<?xml version="1.0" encoding="UTF-8" standalone="no"?><svg xmlns="http://www.w3.org/2000/svg" xmlns:xlink="http://www.w3.org/1999/xlink" clip-rule="evenodd" stroke-miterlimit="4.00" viewBox="0 0 1024 768"><desc>SVG generated by Keynote</desc><defs></defs><g transform="matrix(1.00, 0.00, -0.00, -1.00, 0.0, 768.0)"><path d="M 0.0 768.0 L 1024.0 768.0 L 1024.0 0.0 L 0.0 0.0 Z M 0.0 768.0 " fill="#212121"></path><path d="M 0.0 0.0 L 528.0 0.0 " fill="none" stroke="#A6AAA8" stroke-width="3.00" transform="matrix(1.00, 0.00, 0.00, -1.00, 464.0, 284.5)"></path><g><clipPath id="clip-26"><path d="M 0.0 768.0 L 432.0 768.0 L 432.0 0.0 L 0.0 0.0 Z M 0.0 768.0 "></path></clipPath><g clip-path="url(#clip-26)"><image xlink:href="../../2052746D-ECCF-44DD-8FFC-A1CE77077980/assets/41E681C23ECF853DB75D48C6720904A5.jpeg" width="1152.00" height="768.00" transform="matrix(1.00, 0.00, -0.00, -1.00, -392.0, 768.0)"></image></g></g><path d="M 0.0 0.0 L 0.0 768.0 L 432.0 768.0 L 432.0 0.0 L 0.0 0.0 Z M 0.0 0.0 " fill="none" stroke="#F2F6F5" stroke-width="1.00" transform="matrix(1.00, 0.00, 0.00, -1.00, 0.0, 768.0)"></path><text xml:space="preserve" font-family="DINCondensed-Bold" font-weight="bold" font-size="119.0" fill="#34A4DA" transform="matrix(1.00, 0.00, -0.00, -1.00, 468.0, 173.0)">R</text><text xml:space="preserve" font-family="DINCondensed-Bold" font-weight="bold" font-size="119.0" fill="#34A4DA" transform="matrix(1.00, 0.00, -0.00, -1.00, 518.7, 173.0)">E</text><text xml:space="preserve" font-family="DINCondensed-Bold" font-weight="bold" font-size="119.0" fill="#34A4DA" transform="matrix(1.00, 0.00, -0.00, -1.00, 562.7, 173.0)">Q</text><text xml:space="preserve" font-family="DINCondensed-Bold" font-weight="bold" font-size="119.0" fill="#34A4DA" transform="matrix(1.00, 0.00, -0.00, -1.00, 613.4, 173.0)">U</text><text xml:space="preserve" font-family="DINCondensed-Bold" font-weight="bold" font-size="119.0" fill="#34A4DA" transform="matrix(1.00, 0.00, -0.00, -1.00, 664.1, 173.0)">I</text><text xml:space="preserve" font-family="DINCondensed-Bold" font-weight="bold" font-size="119.0" fill="#34A4DA" transform="matrix(1.00, 0.00, -0.00, -1.00, 688.4, 173.0)">R</text><text xml:space="preserve" font-family="DINCondensed-Bold" font-weight="bold" font-size="119.0" fill="#34A4DA" transform="matrix(1.00, 0.00, -0.00, -1.00, 739.1, 173.0)">E</text><text xml:space="preserve" font-family="DINCondensed-Bold" font-weight="bold" font-size="119.0" fill="#34A4DA" transform="matrix(1.00, 0.00, -0.00, -1.00, 783.1, 173.0)">M</text><text xml:space="preserve" font-family="DINCondensed-Bold" font-weight="bold" font-size="119.0" fill="#34A4DA" transform="matrix(1.00, 0.00, -0.00, -1.00, 849.3, 173.0)">E</text><text xml:space="preserve" font-family="DINCondensed-Bold" font-weight="bold" font-size="119.0" fill="#34A4DA" transform="matrix(1.00, 0.00, -0.00, -1.00, 893.3, 173.0)">N</text><text xml:space="preserve" font-family="DINCondensed-Bold" font-weight="bold" font-size="119.0" fill="#34A4DA" transform="matrix(1.00, 0.00, -0.00, -1.00, 946.1, 173.0)">T</text><text xml:space="preserve" font-family="DINAlternate-Bold" font-weight="bold" font-size="54.0" fill="#A6AAA9" transform="matrix(1.00, 0.00, -0.00, -1.00, 468.0, 306.0)">N</text><text xml:space="preserve" font-family="DINAlternate-Bold" font-weight="bold" font-size="54.0" fill="#A6AAA9" transform="matrix(1.00, 0.00, -0.00, -1.00, 504.9, 306.0)">E</text><text xml:space="preserve" font-family="DINAlternate-Bold" font-weight="bold" font-size="54.0" fill="#A6AAA9" transform="matrix(1.00, 0.00, -0.00, -1.00, 535.0, 306.0)">W</text></g></svg>