<?xml version="1.0" encoding="UTF-8" standalone="no"?><svg xmlns="http://www.w3.org/2000/svg" xmlns:xlink="http://www.w3.org/1999/xlink" clip-rule="evenodd" stroke-miterlimit="4.00" viewBox="0 0 1024 768"><desc>SVG generated by Keynote</desc><defs></defs><g transform="matrix(1.00, 0.00, -0.00, -1.00, 0.0, 768.0)"><path d="M 0.0 768.0 L 1024.0 768.0 L 1024.0 0.0 L 0.0 0.0 Z M 0.0 768.0 " fill="#FFFFFF"></path><text xml:space="preserve" font-family="DINCondensed-Bold" font-weight="bold" font-size="48.0" fill="#34A4DA" transform="matrix(1.00, 0.00, -0.00, -1.00, 36.0, 705.0)">L</text><text xml:space="preserve" font-family="DINCondensed-Bold" font-weight="bold" font-size="48.0" fill="#34A4DA" transform="matrix(1.00, 0.00, -0.00, -1.00, 53.8, 705.0)">I</text><text xml:space="preserve" font-family="DINCondensed-Bold" font-weight="bold" font-size="48.0" fill="#34A4DA" transform="matrix(1.00, 0.00, -0.00, -1.00, 63.6, 705.0)">S</text><text xml:space="preserve" font-family="DINCondensed-Bold" font-weight="bold" font-size="48.0" fill="#34A4DA" transform="matrix(1.00, 0.00, -0.00, -1.00, 83.0, 705.0)">K</text><text xml:space="preserve" font-family="DINCondensed-Bold" font-weight="bold" font-size="48.0" fill="#34A4DA" transform="matrix(1.00, 0.00, -0.00, -1.00, 102.9, 705.0)">O</text><text xml:space="preserve" font-family="DINCondensed-Bold" font-weight="bold" font-size="48.0" fill="#34A4DA" transform="matrix(1.00, 0.00, -0.00, -1.00, 122.5, 705.0)">V</text><text xml:space="preserve" font-family="DINCondensed-Bold" font-weight="bold" font-size="48.0" fill="#34A4DA" transform="matrix(1.00, 0.00, -0.00, -1.00, 142.0, 705.0)"> </text><text xml:space="preserve" font-family="DINCondensed-Bold" font-weight="bold" font-size="48.0" fill="#34A4DA" transform="matrix(1.00, 0.00, -0.00, -1.00, 151.0, 705.0)">S</text><text xml:space="preserve" font-family="DINCondensed-Bold" font-weight="bold" font-size="48.0" fill="#34A4DA" transform="matrix(1.00, 0.00, -0.00, -1.00, 170.4, 705.0)">U</text><text xml:space="preserve" font-family="DINCondensed-Bold" font-weight="bold" font-size="48.0" fill="#34A4DA" transform="matrix(1.00, 0.00, -0.00, -1.00, 190.9, 705.0)">B</text><text xml:space="preserve" font-family="DINCondensed-Bold" font-weight="bold" font-size="48.0" fill="#34A4DA" transform="matrix(1.00, 0.00, -0.00, -1.00, 211.3, 705.0)">S</text><text xml:space="preserve" font-family="DINCondensed-Bold" font-weight="bold" font-size="48.0" fill="#34A4DA" transform="matrix(1.00, 0.00, -0.00, -1.00, 230.8, 705.0)">T</text><text xml:space="preserve" font-family="DINCondensed-Bold" font-weight="bold" font-size="48.0" fill="#34A4DA" transform="matrix(1.00, 0.00, -0.00, -1.00, 246.8, 705.0)">I</text><text xml:space="preserve" font-family="DINCondensed-Bold" font-weight="bold" font-size="48.0" fill="#34A4DA" transform="matrix(1.00, 0.00, -0.00, -1.00, 256.6, 705.0)">T</text><text xml:space="preserve" font-family="DINCondensed-Bold" font-weight="bold" font-size="48.0" fill="#34A4DA" transform="matrix(1.00, 0.00, -0.00, -1.00, 272.5, 705.0)">U</text><text xml:space="preserve" font-family="DINCondensed-Bold" font-weight="bold" font-size="48.0" fill="#34A4DA" transform="matrix(1.00, 0.00, -0.00, -1.00, 292.9, 705.0)">T</text><text xml:space="preserve" font-family="DINCondensed-Bold" font-weight="bold" font-size="48.0" fill="#34A4DA" transform="matrix(1.00, 0.00, -0.00, -1.00, 308.9, 705.0)">I</text><text xml:space="preserve" font-family="DINCondensed-Bold" font-weight="bold" font-size="48.0" fill="#34A4DA" transform="matrix(1.00, 0.00, -0.00, -1.00, 318.7, 705.0)">O</text><text xml:space="preserve" font-family="DINCondensed-Bold" font-weight="bold" font-size="48.0" fill="#34A4DA" transform="matrix(1.00, 0.00, -0.00, -1.00, 339.1, 705.0)">N</text><text xml:space="preserve" font-family="DINCondensed-Bold" font-weight="bold" font-size="48.0" fill="#34A4DA" transform="matrix(1.00, 0.00, -0.00, -1.00, 360.4, 705.0)"> </text><text xml:space="preserve" font-family="DINCondensed-Bold" font-weight="bold" font-size="48.0" fill="#34A4DA" transform="matrix(1.00, 0.00, -0.00, -1.00, 369.4, 705.0)">P</text><text xml:space="preserve" font-family="DINCondensed-Bold" font-weight="bold" font-size="48.0" fill="#34A4DA" transform="matrix(1.00, 0.00, -0.00, -1.00, 388.9, 705.0)">R</text><text xml:space="preserve" font-family="DINCondensed-Bold" font-weight="bold" font-size="48.0" fill="#34A4DA" transform="matrix(1.00, 0.00, -0.00, -1.00, 409.3, 705.0)">I</text><text xml:space="preserve" font-family="DINCondensed-Bold" font-weight="bold" font-size="48.0" fill="#34A4DA" transform="matrix(1.00, 0.00, -0.00, -1.00, 419.1, 705.0)">N</text><text xml:space="preserve" font-family="DINCondensed-Bold" font-weight="bold" font-size="48.0" fill="#34A4DA" transform="matrix(1.00, 0.00, -0.00, -1.00, 440.4, 705.0)">C</text><text xml:space="preserve" font-family="DINCondensed-Bold" font-weight="bold" font-size="48.0" fill="#34A4DA" transform="matrix(1.00, 0.00, -0.00, -1.00, 460.0, 705.0)">I</text><text xml:space="preserve" font-family="DINCondensed-Bold" font-weight="bold" font-size="48.0" fill="#34A4DA" transform="matrix(1.00, 0.00, -0.00, -1.00, 469.8, 705.0)">P</text><text xml:space="preserve" font-family="DINCondensed-Bold" font-weight="bold" font-size="48.0" fill="#34A4DA" transform="matrix(1.00, 0.00, -0.00, -1.00, 489.3, 705.0)">L</text><text xml:space="preserve" font-family="DINCondensed-Bold" font-weight="bold" font-size="48.0" fill="#34A4DA" transform="matrix(1.00, 0.00, -0.00, -1.00, 507.1, 705.0)">E</text><text xml:space="preserve" font-family="AvenirNext-Medium" font-size="46.0" fill="#838686" transform="matrix(1.00, 0.00, -0.00, -1.00, 36.0, 616.0)">S</text><text xml:space="preserve" font-family="AvenirNext-Medium" font-size="46.0" fill="#838686" transform="matrix(1.00, 0.00, -0.00, -1.00, 62.2, 616.0)">u</text><text xml:space="preserve" font-family="AvenirNext-Medium" font-size="46.0" fill="#838686" transform="matrix(1.00, 0.00, -0.00, -1.00, 88.9, 616.0)">b</text><text xml:space="preserve" font-family="AvenirNext-Medium" font-size="46.0" fill="#838686" transform="matrix(1.00, 0.00, -0.00, -1.00, 118.2, 616.0)">c</text><text xml:space="preserve" font-family="AvenirNext-Medium" font-size="46.0" fill="#838686" transform="matrix(1.00, 0.00, -0.00, -1.00, 140.9, 616.0)">l</text><text xml:space="preserve" font-family="AvenirNext-Medium" font-size="46.0" fill="#838686" transform="matrix(1.00, 0.00, -0.00, -1.00, 152.9, 616.0)">a</text><text xml:space="preserve" font-family="AvenirNext-Medium" font-size="46.0" fill="#838686" transform="matrix(1.00, 0.00, -0.00, -1.00, 177.8, 616.0)">s</text><text xml:space="preserve" font-family="AvenirNext-Medium" font-size="46.0" fill="#838686" transform="matrix(1.00, 0.00, -0.00, -1.00, 198.2, 616.0)">s</text><text xml:space="preserve" font-family="AvenirNext-Medium" font-size="46.0" fill="#838686" transform="matrix(1.00, 0.00, -0.00, -1.00, 218.7, 616.0)">e</text><text xml:space="preserve" font-family="AvenirNext-Medium" font-size="46.0" fill="#838686" transform="matrix(1.00, 0.00, -0.00, -1.00, 245.0, 616.0)">s</text><text xml:space="preserve" font-family="AvenirNext-Medium" font-size="46.0" fill="#838686" transform="matrix(1.00, 0.00, -0.00, -1.00, 265.4, 616.0)"> </text><text xml:space="preserve" font-family="AvenirNext-Medium" font-size="46.0" fill="#838686" transform="matrix(1.00, 0.00, -0.00, -1.00, 276.9, 616.0)">m</text><text xml:space="preserve" font-family="AvenirNext-Medium" font-size="46.0" fill="#838686" transform="matrix(1.00, 0.00, -0.00, -1.00, 317.8, 616.0)">u</text><text xml:space="preserve" font-family="AvenirNext-Medium" font-size="46.0" fill="#838686" transform="matrix(1.00, 0.00, -0.00, -1.00, 344.5, 616.0)">s</text><text xml:space="preserve" font-family="AvenirNext-Medium" font-size="46.0" fill="#838686" transform="matrix(1.00, 0.00, -0.00, -1.00, 364.9, 616.0)">t</text><text xml:space="preserve" font-family="AvenirNext-Medium" font-size="46.0" fill="#838686" transform="matrix(1.00, 0.00, -0.00, -1.00, 380.1, 616.0)"> </text><text xml:space="preserve" font-family="AvenirNext-Medium" font-size="46.0" fill="#838686" transform="matrix(1.00, 0.00, -0.00, -1.00, 391.6, 616.0)">b</text><text xml:space="preserve" font-family="AvenirNext-Medium" font-size="46.0" fill="#838686" transform="matrix(1.00, 0.00, -0.00, -1.00, 420.8, 616.0)">e</text><text xml:space="preserve" font-family="AvenirNext-Medium" font-size="46.0" fill="#838686" transform="matrix(1.00, 0.00, -0.00, -1.00, 447.2, 616.0)"> </text><text xml:space="preserve" font-family="AvenirNext-Medium" font-size="46.0" fill="#838686" transform="matrix(1.00, 0.00, -0.00, -1.00, 458.7, 616.0)">s</text><text xml:space="preserve" font-family="AvenirNext-Medium" font-size="46.0" fill="#838686" transform="matrix(1.00, 0.00, -0.00, -1.00, 479.1, 616.0)">u</text><text xml:space="preserve" font-family="AvenirNext-Medium" font-size="46.0" fill="#838686" transform="matrix(1.00, 0.00, -0.00, -1.00, 505.9, 616.0)">b</text><text xml:space="preserve" font-family="AvenirNext-Medium" font-size="46.0" fill="#838686" transform="matrix(1.00, 0.00, -0.00, -1.00, 535.1, 616.0)">s</text><text xml:space="preserve" font-family="AvenirNext-Medium" font-size="46.0" fill="#838686" transform="matrix(1.00, 0.00, -0.00, -1.00, 555.6, 616.0)">t</text><text xml:space="preserve" font-family="AvenirNext-Medium" font-size="46.0" fill="#838686" transform="matrix(1.00, 0.00, -0.00, -1.00, 570.7, 616.0)">i</text><text xml:space="preserve" font-family="AvenirNext-Medium" font-size="46.0" fill="#838686" transform="matrix(1.00, 0.00, -0.00, -1.00, 582.6, 616.0)">t</text><text xml:space="preserve" font-family="AvenirNext-Medium" font-size="46.0" fill="#838686" transform="matrix(1.00, 0.00, -0.00, -1.00, 597.8, 616.0)">u</text><text xml:space="preserve" font-family="AvenirNext-Medium" font-size="46.0" fill="#838686" transform="matrix(1.00, 0.00, -0.00, -1.00, 624.5, 616.0)">t</text><text xml:space="preserve" font-family="AvenirNext-Medium" font-size="46.0" fill="#838686" transform="matrix(1.00, 0.00, -0.00, -1.00, 639.7, 616.0)">a</text><text xml:space="preserve" font-family="AvenirNext-Medium" font-size="46.0" fill="#838686" transform="matrix(1.00, 0.00, -0.00, -1.00, 664.6, 616.0)">b</text><text xml:space="preserve" font-family="AvenirNext-Medium" font-size="46.0" fill="#838686" transform="matrix(1.00, 0.00, -0.00, -1.00, 693.8, 616.0)">l</text><text xml:space="preserve" font-family="AvenirNext-Medium" font-size="46.0" fill="#838686" transform="matrix(1.00, 0.00, -0.00, -1.00, 705.8, 616.0)">e</text><text xml:space="preserve" font-family="AvenirNext-Medium" font-size="46.0" fill="#838686" transform="matrix(1.00, 0.00, -0.00, -1.00, 732.2, 616.0)"> </text><text xml:space="preserve" font-family="AvenirNext-Medium" font-size="46.0" fill="#838686" transform="matrix(1.00, 0.00, -0.00, -1.00, 743.7, 616.0)">f</text><text xml:space="preserve" font-family="AvenirNext-Medium" font-size="46.0" fill="#838686" transform="matrix(1.00, 0.00, -0.00, -1.00, 757.9, 616.0)">o</text><text xml:space="preserve" font-family="AvenirNext-Medium" font-size="46.0" fill="#838686" transform="matrix(1.00, 0.00, -0.00, -1.00, 786.0, 616.0)">r</text><text xml:space="preserve" font-family="AvenirNext-Medium" font-size="46.0" fill="#838686" transform="matrix(1.00, 0.00, -0.00, -1.00, 802.6, 616.0)"> </text><text xml:space="preserve" font-family="AvenirNext-Medium" font-size="46.0" fill="#838686" transform="matrix(1.00, 0.00, -0.00, -1.00, 814.1, 616.0)">t</text><text xml:space="preserve" font-family="AvenirNext-Medium" font-size="46.0" fill="#838686" transform="matrix(1.00, 0.00, -0.00, -1.00, 829.3, 616.0)">h</text><text xml:space="preserve" font-family="AvenirNext-Medium" font-size="46.0" fill="#838686" transform="matrix(1.00, 0.00, -0.00, -1.00, 856.1, 616.0)">e</text><text xml:space="preserve" font-family="AvenirNext-Medium" font-size="46.0" fill="#838686" transform="matrix(1.00, 0.00, -0.00, -1.00, 882.5, 616.0)">i</text><text xml:space="preserve" font-family="AvenirNext-Medium" font-size="46.0" fill="#838686" transform="matrix(1.00, 0.00, -0.00, -1.00, 894.4, 616.0)">r</text><text xml:space="preserve" font-family="AvenirNext-Medium" font-size="46.0" fill="#838686" transform="matrix(1.00, 0.00, -0.00, -1.00, 911.1, 616.0)"> </text><text xml:space="preserve" font-family="AvenirNext-Medium" font-size="46.0" fill="#838686" transform="matrix(1.00, 0.00, -0.00, -1.00, 36.0, 553.0)">b</text><text xml:space="preserve" font-family="AvenirNext-Medium" font-size="46.0" fill="#838686" transform="matrix(1.00, 0.00, -0.00, -1.00, 65.3, 553.0)">a</text><text xml:space="preserve" font-family="AvenirNext-Medium" font-size="46.0" fill="#838686" transform="matrix(1.00, 0.00, -0.00, -1.00, 90.2, 553.0)">s</text><text xml:space="preserve" font-family="AvenirNext-Medium" font-size="46.0" fill="#838686" transform="matrix(1.00, 0.00, -0.00, -1.00, 110.6, 553.0)">e</text><text xml:space="preserve" font-family="AvenirNext-Medium" font-size="46.0" fill="#838686" transform="matrix(1.00, 0.00, -0.00, -1.00, 137.0, 553.0)"> </text><text xml:space="preserve" font-family="AvenirNext-Medium" font-size="46.0" fill="#838686" transform="matrix(1.00, 0.00, -0.00, -1.00, 148.5, 553.0)">c</text><text xml:space="preserve" font-family="AvenirNext-Medium" font-size="46.0" fill="#838686" transform="matrix(1.00, 0.00, -0.00, -1.00, 171.2, 553.0)">l</text><text xml:space="preserve" font-family="AvenirNext-Medium" font-size="46.0" fill="#838686" transform="matrix(1.00, 0.00, -0.00, -1.00, 183.2, 553.0)">a</text><text xml:space="preserve" font-family="AvenirNext-Medium" font-size="46.0" fill="#838686" transform="matrix(1.00, 0.00, -0.00, -1.00, 208.1, 553.0)">s</text><text xml:space="preserve" font-family="AvenirNext-Medium" font-size="46.0" fill="#838686" transform="matrix(1.00, 0.00, -0.00, -1.00, 228.5, 553.0)">s</text><text xml:space="preserve" font-family="AvenirNext-Medium" font-size="46.0" fill="#838686" transform="matrix(1.00, 0.00, -0.00, -1.00, 248.9, 553.0)">e</text><text xml:space="preserve" font-family="AvenirNext-Medium" font-size="46.0" fill="#838686" transform="matrix(1.00, 0.00, -0.00, -1.00, 275.3, 553.0)">s</text><text xml:space="preserve" font-family="AvenirNext-Medium" font-size="46.0" fill="#838686" transform="matrix(1.00, 0.00, -0.00, -1.00, 295.7, 553.0)">.</text><text xml:space="preserve" font-family="AvenirNext-Medium" font-size="46.0" fill="#838686" transform="matrix(1.00, 0.00, -0.00, -1.00, 36.0, 462.0)">O</text><text xml:space="preserve" font-family="AvenirNext-Medium" font-size="46.0" fill="#838686" transform="matrix(1.00, 0.00, -0.00, -1.00, 75.1, 462.0)">b</text><text xml:space="preserve" font-family="AvenirNext-Medium" font-size="46.0" fill="#838686" transform="matrix(1.00, 0.00, -0.00, -1.00, 104.3, 462.0)">j</text><text xml:space="preserve" font-family="AvenirNext-Medium" font-size="46.0" fill="#838686" transform="matrix(1.00, 0.00, -0.00, -1.00, 116.3, 462.0)">e</text><text xml:space="preserve" font-family="AvenirNext-Medium" font-size="46.0" fill="#838686" transform="matrix(1.00, 0.00, -0.00, -1.00, 142.6, 462.0)">c</text><text xml:space="preserve" font-family="AvenirNext-Medium" font-size="46.0" fill="#838686" transform="matrix(1.00, 0.00, -0.00, -1.00, 165.4, 462.0)">t</text><text xml:space="preserve" font-family="AvenirNext-Medium" font-size="46.0" fill="#838686" transform="matrix(1.00, 0.00, -0.00, -1.00, 180.5, 462.0)">s</text><text xml:space="preserve" font-family="AvenirNext-Medium" font-size="46.0" fill="#838686" transform="matrix(1.00, 0.00, -0.00, -1.00, 200.9, 462.0)"> </text><text xml:space="preserve" font-family="AvenirNext-Medium" font-size="46.0" fill="#838686" transform="matrix(1.00, 0.00, -0.00, -1.00, 212.4, 462.0)">t</text><text xml:space="preserve" font-family="AvenirNext-Medium" font-size="46.0" fill="#838686" transform="matrix(1.00, 0.00, -0.00, -1.00, 227.5, 462.0)">h</text><text xml:space="preserve" font-family="AvenirNext-Medium" font-size="46.0" fill="#838686" transform="matrix(1.00, 0.00, -0.00, -1.00, 254.4, 462.0)">a</text><text xml:space="preserve" font-family="AvenirNext-Medium" font-size="46.0" fill="#838686" transform="matrix(1.00, 0.00, -0.00, -1.00, 278.9, 462.0)">t</text><text xml:space="preserve" font-family="AvenirNext-Medium" font-size="46.0" fill="#838686" transform="matrix(1.00, 0.00, -0.00, -1.00, 294.0, 462.0)"> </text><text xml:space="preserve" font-family="AvenirNext-Medium" font-size="46.0" fill="#838686" transform="matrix(1.00, 0.00, -0.00, -1.00, 305.5, 462.0)">a</text><text xml:space="preserve" font-family="AvenirNext-Medium" font-size="46.0" fill="#838686" transform="matrix(1.00, 0.00, -0.00, -1.00, 330.4, 462.0)">r</text><text xml:space="preserve" font-family="AvenirNext-Medium" font-size="46.0" fill="#838686" transform="matrix(1.00, 0.00, -0.00, -1.00, 346.3, 462.0)">e</text><text xml:space="preserve" font-family="AvenirNext-Medium" font-size="46.0" fill="#838686" transform="matrix(1.00, 0.00, -0.00, -1.00, 372.6, 462.0)"> </text><text xml:space="preserve" font-family="AvenirNext-Medium" font-size="46.0" fill="#838686" transform="matrix(1.00, 0.00, -0.00, -1.00, 384.1, 462.0)">m</text><text xml:space="preserve" font-family="AvenirNext-Medium" font-size="46.0" fill="#838686" transform="matrix(1.00, 0.00, -0.00, -1.00, 424.9, 462.0)">e</text><text xml:space="preserve" font-family="AvenirNext-Medium" font-size="46.0" fill="#838686" transform="matrix(1.00, 0.00, -0.00, -1.00, 451.0, 462.0)">a</text><text xml:space="preserve" font-family="AvenirNext-Medium" font-size="46.0" fill="#838686" transform="matrix(1.00, 0.00, -0.00, -1.00, 475.9, 462.0)">n</text><text xml:space="preserve" font-family="AvenirNext-Medium" font-size="46.0" fill="#838686" transform="matrix(1.00, 0.00, -0.00, -1.00, 502.7, 462.0)">t</text><text xml:space="preserve" font-family="AvenirNext-Medium" font-size="46.0" fill="#838686" transform="matrix(1.00, 0.00, -0.00, -1.00, 517.9, 462.0)"> </text><text xml:space="preserve" font-family="AvenirNext-Medium" font-size="46.0" fill="#838686" transform="matrix(1.00, 0.00, -0.00, -1.00, 529.4, 462.0)">t</text><text xml:space="preserve" font-family="AvenirNext-Medium" font-size="46.0" fill="#838686" transform="matrix(1.00, 0.00, -0.00, -1.00, 544.5, 462.0)">o</text><text xml:space="preserve" font-family="AvenirNext-Medium" font-size="46.0" fill="#838686" transform="matrix(1.00, 0.00, -0.00, -1.00, 572.5, 462.0)"> </text><text xml:space="preserve" font-family="AvenirNext-Medium" font-size="46.0" fill="#838686" transform="matrix(1.00, 0.00, -0.00, -1.00, 584.0, 462.0)">b</text><text xml:space="preserve" font-family="AvenirNext-Medium" font-size="46.0" fill="#838686" transform="matrix(1.00, 0.00, -0.00, -1.00, 613.3, 462.0)">e</text><text xml:space="preserve" font-family="AvenirNext-Medium" font-size="46.0" fill="#838686" transform="matrix(1.00, 0.00, -0.00, -1.00, 639.7, 462.0)"> </text><text xml:space="preserve" font-family="AvenirNext-Medium" font-size="46.0" fill="#838686" transform="matrix(1.00, 0.00, -0.00, -1.00, 651.2, 462.0)">t</text><text xml:space="preserve" font-family="AvenirNext-Medium" font-size="46.0" fill="#838686" transform="matrix(1.00, 0.00, -0.00, -1.00, 666.3, 462.0)">r</text><text xml:space="preserve" font-family="AvenirNext-Medium" font-size="46.0" fill="#838686" transform="matrix(1.00, 0.00, -0.00, -1.00, 682.1, 462.0)">e</text><text xml:space="preserve" font-family="AvenirNext-Medium" font-size="46.0" fill="#838686" transform="matrix(1.00, 0.00, -0.00, -1.00, 708.2, 462.0)">a</text><text xml:space="preserve" font-family="AvenirNext-Medium" font-size="46.0" fill="#838686" transform="matrix(1.00, 0.00, -0.00, -1.00, 732.7, 462.0)">t</text><text xml:space="preserve" font-family="AvenirNext-Medium" font-size="46.0" fill="#838686" transform="matrix(1.00, 0.00, -0.00, -1.00, 747.8, 462.0)">e</text><text xml:space="preserve" font-family="AvenirNext-Medium" font-size="46.0" fill="#838686" transform="matrix(1.00, 0.00, -0.00, -1.00, 774.2, 462.0)">d</text><text xml:space="preserve" font-family="AvenirNext-Medium" font-size="46.0" fill="#838686" transform="matrix(1.00, 0.00, -0.00, -1.00, 803.4, 462.0)"> </text><text xml:space="preserve" font-family="AvenirNext-Medium" font-size="46.0" fill="#838686" transform="matrix(1.00, 0.00, -0.00, -1.00, 814.9, 462.0)">a</text><text xml:space="preserve" font-family="AvenirNext-Medium" font-size="46.0" fill="#838686" transform="matrix(1.00, 0.00, -0.00, -1.00, 839.8, 462.0)">s</text><text xml:space="preserve" font-family="AvenirNext-Medium" font-size="46.0" fill="#838686" transform="matrix(1.00, 0.00, -0.00, -1.00, 860.2, 462.0)"> </text><text xml:space="preserve" font-family="AvenirNext-Medium" font-size="46.0" fill="#838686" transform="matrix(1.00, 0.00, -0.00, -1.00, 36.0, 399.0)">s</text><text xml:space="preserve" font-family="AvenirNext-Medium" font-size="46.0" fill="#838686" transform="matrix(1.00, 0.00, -0.00, -1.00, 56.4, 399.0)">u</text><text xml:space="preserve" font-family="AvenirNext-Medium" font-size="46.0" fill="#838686" transform="matrix(1.00, 0.00, -0.00, -1.00, 83.2, 399.0)">b</text><text xml:space="preserve" font-family="AvenirNext-Medium" font-size="46.0" fill="#838686" transform="matrix(1.00, 0.00, -0.00, -1.00, 112.5, 399.0)">t</text><text xml:space="preserve" font-family="AvenirNext-Medium" font-size="46.0" fill="#838686" transform="matrix(1.00, 0.00, -0.00, -1.00, 127.6, 399.0)">y</text><text xml:space="preserve" font-family="AvenirNext-Medium" font-size="46.0" fill="#838686" transform="matrix(1.00, 0.00, -0.00, -1.00, 150.8, 399.0)">p</text><text xml:space="preserve" font-family="AvenirNext-Medium" font-size="46.0" fill="#838686" transform="matrix(1.00, 0.00, -0.00, -1.00, 179.9, 399.0)">e</text><text xml:space="preserve" font-family="AvenirNext-Medium" font-size="46.0" fill="#838686" transform="matrix(1.00, 0.00, -0.00, -1.00, 206.3, 399.0)">s</text><text xml:space="preserve" font-family="AvenirNext-Medium" font-size="46.0" fill="#838686" transform="matrix(1.00, 0.00, -0.00, -1.00, 226.7, 399.0)"> </text><text xml:space="preserve" font-family="AvenirNext-Medium" font-size="46.0" fill="#838686" transform="matrix(1.00, 0.00, -0.00, -1.00, 238.2, 399.0)">o</text><text xml:space="preserve" font-family="AvenirNext-Medium" font-size="46.0" fill="#838686" transform="matrix(1.00, 0.00, -0.00, -1.00, 266.3, 399.0)">f</text><text xml:space="preserve" font-family="AvenirNext-Medium" font-size="46.0" fill="#838686" transform="matrix(1.00, 0.00, -0.00, -1.00, 281.6, 399.0)"> </text><text xml:space="preserve" font-family="AvenirNext-Medium" font-size="46.0" fill="#838686" transform="matrix(1.00, 0.00, -0.00, -1.00, 293.1, 399.0)">a</text><text xml:space="preserve" font-family="AvenirNext-Medium" font-size="46.0" fill="#838686" transform="matrix(1.00, 0.00, -0.00, -1.00, 318.1, 399.0)"> </text><text xml:space="preserve" font-family="AvenirNext-Medium" font-size="46.0" fill="#838686" transform="matrix(1.00, 0.00, -0.00, -1.00, 329.6, 399.0)">b</text><text xml:space="preserve" font-family="AvenirNext-Medium" font-size="46.0" fill="#838686" transform="matrix(1.00, 0.00, -0.00, -1.00, 358.8, 399.0)">a</text><text xml:space="preserve" font-family="AvenirNext-Medium" font-size="46.0" fill="#838686" transform="matrix(1.00, 0.00, -0.00, -1.00, 383.8, 399.0)">s</text><text xml:space="preserve" font-family="AvenirNext-Medium" font-size="46.0" fill="#838686" transform="matrix(1.00, 0.00, -0.00, -1.00, 404.2, 399.0)">e</text><text xml:space="preserve" font-family="AvenirNext-Medium" font-size="46.0" fill="#838686" transform="matrix(1.00, 0.00, -0.00, -1.00, 430.5, 399.0)"> </text><text xml:space="preserve" font-family="AvenirNext-Medium" font-size="46.0" fill="#838686" transform="matrix(1.00, 0.00, -0.00, -1.00, 442.0, 399.0)">t</text><text xml:space="preserve" font-family="AvenirNext-Medium" font-size="46.0" fill="#838686" transform="matrix(1.00, 0.00, -0.00, -1.00, 457.2, 399.0)">y</text><text xml:space="preserve" font-family="AvenirNext-Medium" font-size="46.0" fill="#838686" transform="matrix(1.00, 0.00, -0.00, -1.00, 480.4, 399.0)">p</text><text xml:space="preserve" font-family="AvenirNext-Medium" font-size="46.0" fill="#838686" transform="matrix(1.00, 0.00, -0.00, -1.00, 509.5, 399.0)">e</text><text xml:space="preserve" font-family="AvenirNext-Medium" font-size="46.0" fill="#838686" transform="matrix(1.00, 0.00, -0.00, -1.00, 535.9, 399.0)"> </text><text xml:space="preserve" font-family="AvenirNext-Medium" font-size="46.0" fill="#838686" transform="matrix(1.00, 0.00, -0.00, -1.00, 547.4, 399.0)">s</text><text xml:space="preserve" font-family="AvenirNext-Medium" font-size="46.0" fill="#838686" transform="matrix(1.00, 0.00, -0.00, -1.00, 567.8, 399.0)">h</text><text xml:space="preserve" font-family="AvenirNext-Medium" font-size="46.0" fill="#838686" transform="matrix(1.00, 0.00, -0.00, -1.00, 594.7, 399.0)">o</text><text xml:space="preserve" font-family="AvenirNext-Medium" font-size="46.0" fill="#838686" transform="matrix(1.00, 0.00, -0.00, -1.00, 622.7, 399.0)">u</text><text xml:space="preserve" font-family="AvenirNext-Medium" font-size="46.0" fill="#838686" transform="matrix(1.00, 0.00, -0.00, -1.00, 649.5, 399.0)">l</text><text xml:space="preserve" font-family="AvenirNext-Medium" font-size="46.0" fill="#838686" transform="matrix(1.00, 0.00, -0.00, -1.00, 661.5, 399.0)">d</text><text xml:space="preserve" font-family="AvenirNext-Medium" font-size="46.0" fill="#838686" transform="matrix(1.00, 0.00, -0.00, -1.00, 690.7, 399.0)"> </text><text xml:space="preserve" font-family="AvenirNext-Medium" font-size="46.0" fill="#838686" transform="matrix(1.00, 0.00, -0.00, -1.00, 702.2, 399.0)">n</text><text xml:space="preserve" font-family="AvenirNext-Medium" font-size="46.0" fill="#838686" transform="matrix(1.00, 0.00, -0.00, -1.00, 728.9, 399.0)">o</text><text xml:space="preserve" font-family="AvenirNext-Medium" font-size="46.0" fill="#838686" transform="matrix(1.00, 0.00, -0.00, -1.00, 757.0, 399.0)">t</text><text xml:space="preserve" font-family="AvenirNext-Medium" font-size="46.0" fill="#838686" transform="matrix(1.00, 0.00, -0.00, -1.00, 772.1, 399.0)"> </text><text xml:space="preserve" font-family="AvenirNext-Medium" font-size="46.0" fill="#838686" transform="matrix(1.00, 0.00, -0.00, -1.00, 783.6, 399.0)">b</text><text xml:space="preserve" font-family="AvenirNext-Medium" font-size="46.0" fill="#838686" transform="matrix(1.00, 0.00, -0.00, -1.00, 812.9, 399.0)">r</text><text xml:space="preserve" font-family="AvenirNext-Medium" font-size="46.0" fill="#838686" transform="matrix(1.00, 0.00, -0.00, -1.00, 828.7, 399.0)">e</text><text xml:space="preserve" font-family="AvenirNext-Medium" font-size="46.0" fill="#838686" transform="matrix(1.00, 0.00, -0.00, -1.00, 854.8, 399.0)">a</text><text xml:space="preserve" font-family="AvenirNext-Medium" font-size="46.0" fill="#838686" transform="matrix(1.00, 0.00, -0.00, -1.00, 879.7, 399.0)">k</text><text xml:space="preserve" font-family="AvenirNext-Medium" font-size="46.0" fill="#838686" transform="matrix(1.00, 0.00, -0.00, -1.00, 904.0, 399.0)"> </text><text xml:space="preserve" font-family="AvenirNext-Medium" font-size="46.0" fill="#838686" transform="matrix(1.00, 0.00, -0.00, -1.00, 915.5, 399.0)">t</text><text xml:space="preserve" font-family="AvenirNext-Medium" font-size="46.0" fill="#838686" transform="matrix(1.00, 0.00, -0.00, -1.00, 930.6, 399.0)">h</text><text xml:space="preserve" font-family="AvenirNext-Medium" font-size="46.0" fill="#838686" transform="matrix(1.00, 0.00, -0.00, -1.00, 957.5, 399.0)">e</text><text xml:space="preserve" font-family="AvenirNext-Medium" font-size="46.0" fill="#838686" transform="matrix(1.00, 0.00, -0.00, -1.00, 983.8, 399.0)"> </text><text xml:space="preserve" font-family="AvenirNext-Medium" font-size="46.0" fill="#838686" transform="matrix(1.00, 0.00, -0.00, -1.00, 36.0, 336.0)">c</text><text xml:space="preserve" font-family="AvenirNext-Medium" font-size="46.0" fill="#838686" transform="matrix(1.00, 0.00, -0.00, -1.00, 58.7, 336.0)">o</text><text xml:space="preserve" font-family="AvenirNext-Medium" font-size="46.0" fill="#838686" transform="matrix(1.00, 0.00, -0.00, -1.00, 86.8, 336.0)">n</text><text xml:space="preserve" font-family="AvenirNext-Medium" font-size="46.0" fill="#838686" transform="matrix(1.00, 0.00, -0.00, -1.00, 113.6, 336.0)">t</text><text xml:space="preserve" font-family="AvenirNext-Medium" font-size="46.0" fill="#838686" transform="matrix(1.00, 0.00, -0.00, -1.00, 128.7, 336.0)">r</text><text xml:space="preserve" font-family="AvenirNext-Medium" font-size="46.0" fill="#838686" transform="matrix(1.00, 0.00, -0.00, -1.00, 144.7, 336.0)">a</text><text xml:space="preserve" font-family="AvenirNext-Medium" font-size="46.0" fill="#838686" transform="matrix(1.00, 0.00, -0.00, -1.00, 169.7, 336.0)">c</text><text xml:space="preserve" font-family="AvenirNext-Medium" font-size="46.0" fill="#838686" transform="matrix(1.00, 0.00, -0.00, -1.00, 192.4, 336.0)">t</text><text xml:space="preserve" font-family="AvenirNext-Medium" font-size="46.0" fill="#838686" transform="matrix(1.00, 0.00, -0.00, -1.00, 207.5, 336.0)">s</text><text xml:space="preserve" font-family="AvenirNext-Medium" font-size="46.0" fill="#838686" transform="matrix(1.00, 0.00, -0.00, -1.00, 228.0, 336.0)"> </text><text xml:space="preserve" font-family="AvenirNext-Medium" font-size="46.0" fill="#838686" transform="matrix(1.00, 0.00, -0.00, -1.00, 239.5, 336.0)">o</text><text xml:space="preserve" font-family="AvenirNext-Medium" font-size="46.0" fill="#838686" transform="matrix(1.00, 0.00, -0.00, -1.00, 267.5, 336.0)">f</text><text xml:space="preserve" font-family="AvenirNext-Medium" font-size="46.0" fill="#838686" transform="matrix(1.00, 0.00, -0.00, -1.00, 282.9, 336.0)"> </text><text xml:space="preserve" font-family="AvenirNext-Medium" font-size="46.0" fill="#838686" transform="matrix(1.00, 0.00, -0.00, -1.00, 294.4, 336.0)">t</text><text xml:space="preserve" font-family="AvenirNext-Medium" font-size="46.0" fill="#838686" transform="matrix(1.00, 0.00, -0.00, -1.00, 309.5, 336.0)">h</text><text xml:space="preserve" font-family="AvenirNext-Medium" font-size="46.0" fill="#838686" transform="matrix(1.00, 0.00, -0.00, -1.00, 336.4, 336.0)">e</text><text xml:space="preserve" font-family="AvenirNext-Medium" font-size="46.0" fill="#838686" transform="matrix(1.00, 0.00, -0.00, -1.00, 362.7, 336.0)"> </text><text xml:space="preserve" font-family="AvenirNext-Medium" font-size="46.0" fill="#838686" transform="matrix(1.00, 0.00, -0.00, -1.00, 374.2, 336.0)">b</text><text xml:space="preserve" font-family="AvenirNext-Medium" font-size="46.0" fill="#838686" transform="matrix(1.00, 0.00, -0.00, -1.00, 403.5, 336.0)">a</text><text xml:space="preserve" font-family="AvenirNext-Medium" font-size="46.0" fill="#838686" transform="matrix(1.00, 0.00, -0.00, -1.00, 428.4, 336.0)">s</text><text xml:space="preserve" font-family="AvenirNext-Medium" font-size="46.0" fill="#838686" transform="matrix(1.00, 0.00, -0.00, -1.00, 448.9, 336.0)">e</text><text xml:space="preserve" font-family="AvenirNext-Medium" font-size="46.0" fill="#838686" transform="matrix(1.00, 0.00, -0.00, -1.00, 475.2, 336.0)"> </text><text xml:space="preserve" font-family="AvenirNext-Medium" font-size="46.0" fill="#838686" transform="matrix(1.00, 0.00, -0.00, -1.00, 486.7, 336.0)">t</text><text xml:space="preserve" font-family="AvenirNext-Medium" font-size="46.0" fill="#838686" transform="matrix(1.00, 0.00, -0.00, -1.00, 501.8, 336.0)">y</text><text xml:space="preserve" font-family="AvenirNext-Medium" font-size="46.0" fill="#838686" transform="matrix(1.00, 0.00, -0.00, -1.00, 525.0, 336.0)">p</text><text xml:space="preserve" font-family="AvenirNext-Medium" font-size="46.0" fill="#838686" transform="matrix(1.00, 0.00, -0.00, -1.00, 554.2, 336.0)">e</text><text xml:space="preserve" font-family="AvenirNext-Medium" font-size="46.0" fill="#838686" transform="matrix(1.00, 0.00, -0.00, -1.00, 580.5, 336.0)">.</text></g></svg>