<?xml version="1.0" encoding="UTF-8" standalone="no"?><svg xmlns="http://www.w3.org/2000/svg" xmlns:xlink="http://www.w3.org/1999/xlink" clip-rule="evenodd" stroke-miterlimit="4.00" viewBox="0 0 1024 768"><desc>SVG generated by Keynote</desc><defs></defs><g transform="matrix(1.00, 0.00, -0.00, -1.00, 0.0, 768.0)"><path d="M 0.0 768.0 L 1024.0 768.0 L 1024.0 0.0 L 0.0 0.0 Z M 0.0 768.0 " fill="#FFFFFF"></path><path d="M 284.4 618.0 L 349.3 618.0 L 349.3 593.0 L 284.4 593.0 Z M 284.4 618.0 " fill="#FFE988"></path><path d="M 36.0 568.0 L 252.0 568.0 L 252.0 543.0 L 36.0 543.0 Z M 36.0 568.0 " fill="#FFE988"></path><path d="M 36.0 468.0 L 219.6 468.0 L 219.6 443.0 L 36.0 443.0 Z M 36.0 468.0 " fill="#FFE988"></path><path d="M 36.0 443.0 L 198.0 443.0 L 198.0 418.0 L 36.0 418.0 Z M 36.0 443.0 " fill="#FFE988"></path><path d="M 36.0 418.0 L 230.4 418.0 L 230.4 393.0 L 36.0 393.0 Z M 36.0 418.0 " fill="#FFE988"></path><path d="M 36.0 393.0 L 198.0 393.0 L 198.0 368.0 L 36.0 368.0 Z M 36.0 393.0 " fill="#FFE988"></path><path d="M 36.0 368.0 L 230.4 368.0 L 230.4 343.0 L 36.0 343.0 Z M 36.0 368.0 " fill="#FFE988"></path><path d="M 36.0 343.0 L 111.6 343.0 L 111.6 318.0 L 36.0 318.0 Z M 36.0 343.0 " fill="#FFE988"></path><path d="M 36.0 218.0 L 208.8 218.0 L 208.8 193.0 L 36.0 193.0 Z M 36.0 218.0 " fill="#FFE988"></path><path d="M 36.0 193.0 L 198.0 193.0 L 198.0 168.0 L 36.0 168.0 Z M 36.0 193.0 " fill="#FFE988"></path><path d="M 36.0 168.0 L 90.0 168.0 L 90.0 143.0 L 36.0 143.0 Z M 36.0 168.0 " fill="#FFE988"></path><path d="M 36.0 118.0 L 208.8 118.0 L 208.8 93.0 L 36.0 93.0 Z M 36.0 118.0 " fill="#FFE988"></path><path d="M 36.0 93.0 L 198.0 93.0 L 198.0 68.0 L 36.0 68.0 Z M 36.0 93.0 " fill="#FFE988"></path><path d="M 36.0 68.0 L 90.0 68.0 L 90.0 43.0 L 36.0 43.0 Z M 36.0 68.0 " fill="#FFE988"></path><path d="M 36.0 43.0 L 68.4 43.0 L 68.4 18.0 L 36.0 18.0 Z M 36.0 43.0 " fill="#FFE988"></path><text xml:space="preserve" font-family="Monaco" font-size="18.0" fill="#285E99" transform="matrix(1.00, 0.00, -0.00, -1.00, 36.0, 624.0)">c</text><text xml:space="preserve" font-family="Monaco" font-size="18.0" fill="#285E99" transform="matrix(1.00, 0.00, -0.00, -1.00, 46.8, 624.0)">l</text><text xml:space="preserve" font-family="Monaco" font-size="18.0" fill="#285E99" transform="matrix(1.00, 0.00, -0.00, -1.00, 57.6, 624.0)">a</text><text xml:space="preserve" font-family="Monaco" font-size="18.0" fill="#285E99" transform="matrix(1.00, 0.00, -0.00, -1.00, 68.4, 624.0)">s</text><text xml:space="preserve" font-family="Monaco" font-size="18.0" fill="#285E99" transform="matrix(1.00, 0.00, -0.00, -1.00, 79.2, 624.0)">s</text><text xml:space="preserve" font-family="Monaco" font-size="18.0" fill="#000000" transform="matrix(1.00, 0.00, -0.00, -1.00, 90.0, 624.0)"> </text><text xml:space="preserve" font-family="Monaco" font-size="18.0" fill="#000000" transform="matrix(1.00, 0.00, -0.00, -1.00, 100.8, 624.0)">P</text><text xml:space="preserve" font-family="Monaco" font-size="18.0" fill="#000000" transform="matrix(1.00, 0.00, -0.00, -1.00, 111.6, 624.0)">r</text><text xml:space="preserve" font-family="Monaco" font-size="18.0" fill="#000000" transform="matrix(1.00, 0.00, -0.00, -1.00, 122.4, 624.0)">o</text><text xml:space="preserve" font-family="Monaco" font-size="18.0" fill="#000000" transform="matrix(1.00, 0.00, -0.00, -1.00, 133.2, 624.0)">d</text><text xml:space="preserve" font-family="Monaco" font-size="18.0" fill="#000000" transform="matrix(1.00, 0.00, -0.00, -1.00, 144.0, 624.0)">u</text><text xml:space="preserve" font-family="Monaco" font-size="18.0" fill="#000000" transform="matrix(1.00, 0.00, -0.00, -1.00, 154.8, 624.0)">c</text><text xml:space="preserve" font-family="Monaco" font-size="18.0" fill="#000000" transform="matrix(1.00, 0.00, -0.00, -1.00, 165.6, 624.0)">t</text><text xml:space="preserve" font-family="Monaco" font-size="18.0" fill="#000000" transform="matrix(1.00, 0.00, -0.00, -1.00, 176.4, 624.0)">P</text><text xml:space="preserve" font-family="Monaco" font-size="18.0" fill="#000000" transform="matrix(1.00, 0.00, -0.00, -1.00, 187.2, 624.0)">a</text><text xml:space="preserve" font-family="Monaco" font-size="18.0" fill="#000000" transform="matrix(1.00, 0.00, -0.00, -1.00, 198.0, 624.0)">r</text><text xml:space="preserve" font-family="Monaco" font-size="18.0" fill="#000000" transform="matrix(1.00, 0.00, -0.00, -1.00, 208.8, 624.0)">s</text><text xml:space="preserve" font-family="Monaco" font-size="18.0" fill="#000000" transform="matrix(1.00, 0.00, -0.00, -1.00, 219.6, 624.0)">e</text><text xml:space="preserve" font-family="Monaco" font-size="18.0" fill="#000000" transform="matrix(1.00, 0.00, -0.00, -1.00, 230.5, 624.0)">r</text><g><clipPath id="clip-108"><path d="M 99.8 620.4 L 241.2 620.4 L 241.2 623.8 L 99.8 623.8 Z M 99.8 620.4 "></path></clipPath><g clip-path="url(#clip-108)"><path d="M 68.8 24.9 L 209.2 24.9 " fill="none" stroke="#000000" stroke-width="1.36" stroke-miterlimit="0.00" transform="matrix(1.00, 0.00, 0.00, -1.00, 32.0, 647.0)"></path></g></g><text xml:space="preserve" font-family="Monaco" font-size="18.0" fill="#000000" transform="matrix(1.00, 0.00, -0.00, -1.00, 36.0, 599.0)"> </text><text xml:space="preserve" font-family="Monaco" font-size="18.0" fill="#000000" transform="matrix(1.00, 0.00, -0.00, -1.00, 46.8, 599.0)"> </text><text xml:space="preserve" font-family="Monaco" font-size="18.0" fill="#285E99" transform="matrix(1.00, 0.00, -0.00, -1.00, 57.6, 599.0)">d</text><text xml:space="preserve" font-family="Monaco" font-size="18.0" fill="#285E99" transform="matrix(1.00, 0.00, -0.00, -1.00, 68.4, 599.0)">e</text><text xml:space="preserve" font-family="Monaco" font-size="18.0" fill="#285E99" transform="matrix(1.00, 0.00, -0.00, -1.00, 79.2, 599.0)">f</text><text xml:space="preserve" font-family="Monaco" font-size="18.0" fill="#000000" transform="matrix(1.00, 0.00, -0.00, -1.00, 90.0, 599.0)"> </text><text xml:space="preserve" font-family="Monaco" font-size="18.0" fill="#000000" transform="matrix(1.00, 0.00, -0.00, -1.00, 100.8, 599.0)">i</text><text xml:space="preserve" font-family="Monaco" font-size="18.0" fill="#000000" transform="matrix(1.00, 0.00, -0.00, -1.00, 111.6, 599.0)">n</text><text xml:space="preserve" font-family="Monaco" font-size="18.0" fill="#000000" transform="matrix(1.00, 0.00, -0.00, -1.00, 122.4, 599.0)">i</text><text xml:space="preserve" font-family="Monaco" font-size="18.0" fill="#000000" transform="matrix(1.00, 0.00, -0.00, -1.00, 133.2, 599.0)">t</text><text xml:space="preserve" font-family="Monaco" font-size="18.0" fill="#000000" transform="matrix(1.00, 0.00, -0.00, -1.00, 144.0, 599.0)">i</text><text xml:space="preserve" font-family="Monaco" font-size="18.0" fill="#000000" transform="matrix(1.00, 0.00, -0.00, -1.00, 154.8, 599.0)">a</text><text xml:space="preserve" font-family="Monaco" font-size="18.0" fill="#000000" transform="matrix(1.00, 0.00, -0.00, -1.00, 165.6, 599.0)">l</text><text xml:space="preserve" font-family="Monaco" font-size="18.0" fill="#000000" transform="matrix(1.00, 0.00, -0.00, -1.00, 176.4, 599.0)">i</text><text xml:space="preserve" font-family="Monaco" font-size="18.0" fill="#000000" transform="matrix(1.00, 0.00, -0.00, -1.00, 187.2, 599.0)">z</text><text xml:space="preserve" font-family="Monaco" font-size="18.0" fill="#000000" transform="matrix(1.00, 0.00, -0.00, -1.00, 198.0, 599.0)">e</text><text xml:space="preserve" font-family="Monaco" font-size="18.0" fill="#000000" transform="matrix(1.00, 0.00, -0.00, -1.00, 208.8, 599.0)">(</text><text xml:space="preserve" font-family="Monaco" font-size="18.0" fill="#000000" transform="matrix(1.00, 0.00, -0.00, -1.00, 219.7, 599.0)">f</text><text xml:space="preserve" font-family="Monaco" font-size="18.0" fill="#000000" transform="matrix(1.00, 0.00, -0.00, -1.00, 230.5, 599.0)">i</text><text xml:space="preserve" font-family="Monaco" font-size="18.0" fill="#000000" transform="matrix(1.00, 0.00, -0.00, -1.00, 241.3, 599.0)">l</text><text xml:space="preserve" font-family="Monaco" font-size="18.0" fill="#000000" transform="matrix(1.00, 0.00, -0.00, -1.00, 252.1, 599.0)">e</text><text xml:space="preserve" font-family="Monaco" font-size="18.0" fill="#000000" transform="matrix(1.00, 0.00, -0.00, -1.00, 262.9, 599.0)">,</text><text xml:space="preserve" font-family="Monaco" font-size="18.0" fill="#000000" transform="matrix(1.00, 0.00, -0.00, -1.00, 273.7, 599.0)"> </text><text xml:space="preserve" font-family="Monaco" font-size="18.0" fill="#000000" transform="matrix(1.00, 0.00, -0.00, -1.00, 284.4, 599.0)">f</text><text xml:space="preserve" font-family="Monaco" font-size="18.0" fill="#000000" transform="matrix(1.00, 0.00, -0.00, -1.00, 295.2, 599.0)">o</text><text xml:space="preserve" font-family="Monaco" font-size="18.0" fill="#000000" transform="matrix(1.00, 0.00, -0.00, -1.00, 306.0, 599.0)">r</text><text xml:space="preserve" font-family="Monaco" font-size="18.0" fill="#000000" transform="matrix(1.00, 0.00, -0.00, -1.00, 316.9, 599.0)">m</text><text xml:space="preserve" font-family="Monaco" font-size="18.0" fill="#000000" transform="matrix(1.00, 0.00, -0.00, -1.00, 327.7, 599.0)">a</text><text xml:space="preserve" font-family="Monaco" font-size="18.0" fill="#000000" transform="matrix(1.00, 0.00, -0.00, -1.00, 338.5, 599.0)">t</text><text xml:space="preserve" font-family="Monaco" font-size="18.0" fill="#000000" transform="matrix(1.00, 0.00, -0.00, -1.00, 349.3, 599.0)">)</text><text xml:space="preserve" font-family="Monaco" font-size="18.0" fill="#000000" transform="matrix(1.00, 0.00, -0.00, -1.00, 36.0, 574.0)"> </text><text xml:space="preserve" font-family="Monaco" font-size="18.0" fill="#000000" transform="matrix(1.00, 0.00, -0.00, -1.00, 46.8, 574.0)"> </text><text xml:space="preserve" font-family="Monaco" font-size="18.0" fill="#000000" transform="matrix(1.00, 0.00, -0.00, -1.00, 57.6, 574.0)"> </text><text xml:space="preserve" font-family="Monaco" font-size="18.0" fill="#000000" transform="matrix(1.00, 0.00, -0.00, -1.00, 68.4, 574.0)"> </text><text xml:space="preserve" font-family="Monaco" font-size="18.0" fill="#000000" transform="matrix(1.00, 0.00, -0.00, -1.00, 79.2, 574.0)">@</text><text xml:space="preserve" font-family="Monaco" font-size="18.0" fill="#000000" transform="matrix(1.00, 0.00, -0.00, -1.00, 90.0, 574.0)">f</text><text xml:space="preserve" font-family="Monaco" font-size="18.0" fill="#000000" transform="matrix(1.00, 0.00, -0.00, -1.00, 100.8, 574.0)">i</text><text xml:space="preserve" font-family="Monaco" font-size="18.0" fill="#000000" transform="matrix(1.00, 0.00, -0.00, -1.00, 111.6, 574.0)">l</text><text xml:space="preserve" font-family="Monaco" font-size="18.0" fill="#000000" transform="matrix(1.00, 0.00, -0.00, -1.00, 122.4, 574.0)">e</text><text xml:space="preserve" font-family="Monaco" font-size="18.0" fill="#000000" transform="matrix(1.00, 0.00, -0.00, -1.00, 133.2, 574.0)"> </text><text xml:space="preserve" font-family="Monaco" font-size="18.0" fill="#D97000" transform="matrix(1.00, 0.00, -0.00, -1.00, 144.0, 574.0)">=</text><text xml:space="preserve" font-family="Monaco" font-size="18.0" fill="#000000" transform="matrix(1.00, 0.00, -0.00, -1.00, 154.8, 574.0)"> </text><text xml:space="preserve" font-family="Monaco" font-size="18.0" fill="#000000" transform="matrix(1.00, 0.00, -0.00, -1.00, 165.6, 574.0)">f</text><text xml:space="preserve" font-family="Monaco" font-size="18.0" fill="#000000" transform="matrix(1.00, 0.00, -0.00, -1.00, 176.4, 574.0)">i</text><text xml:space="preserve" font-family="Monaco" font-size="18.0" fill="#000000" transform="matrix(1.00, 0.00, -0.00, -1.00, 187.2, 574.0)">l</text><text xml:space="preserve" font-family="Monaco" font-size="18.0" fill="#000000" transform="matrix(1.00, 0.00, -0.00, -1.00, 198.0, 574.0)">e</text><text xml:space="preserve" font-family="Monaco" font-size="18.0" fill="#000000" transform="matrix(1.00, 0.00, -0.00, -1.00, 36.0, 549.0)"> </text><text xml:space="preserve" font-family="Monaco" font-size="18.0" fill="#000000" transform="matrix(1.00, 0.00, -0.00, -1.00, 46.8, 549.0)"> </text><text xml:space="preserve" font-family="Monaco" font-size="18.0" fill="#000000" transform="matrix(1.00, 0.00, -0.00, -1.00, 57.6, 549.0)"> </text><text xml:space="preserve" font-family="Monaco" font-size="18.0" fill="#000000" transform="matrix(1.00, 0.00, -0.00, -1.00, 68.4, 549.0)"> </text><text xml:space="preserve" font-family="Monaco" font-size="18.0" fill="#000000" transform="matrix(1.00, 0.00, -0.00, -1.00, 79.2, 549.0)">@</text><text xml:space="preserve" font-family="Monaco" font-size="18.0" fill="#000000" transform="matrix(1.00, 0.00, -0.00, -1.00, 90.0, 549.0)">f</text><text xml:space="preserve" font-family="Monaco" font-size="18.0" fill="#000000" transform="matrix(1.00, 0.00, -0.00, -1.00, 100.8, 549.0)">o</text><text xml:space="preserve" font-family="Monaco" font-size="18.0" fill="#000000" transform="matrix(1.00, 0.00, -0.00, -1.00, 111.6, 549.0)">r</text><text xml:space="preserve" font-family="Monaco" font-size="18.0" fill="#000000" transform="matrix(1.00, 0.00, -0.00, -1.00, 122.4, 549.0)">m</text><text xml:space="preserve" font-family="Monaco" font-size="18.0" fill="#000000" transform="matrix(1.00, 0.00, -0.00, -1.00, 133.2, 549.0)">a</text><text xml:space="preserve" font-family="Monaco" font-size="18.0" fill="#000000" transform="matrix(1.00, 0.00, -0.00, -1.00, 144.0, 549.0)">t</text><text xml:space="preserve" font-family="Monaco" font-size="18.0" fill="#000000" transform="matrix(1.00, 0.00, -0.00, -1.00, 154.8, 549.0)"> </text><text xml:space="preserve" font-family="Monaco" font-size="18.0" fill="#D97000" transform="matrix(1.00, 0.00, -0.00, -1.00, 165.6, 549.0)">=</text><text xml:space="preserve" font-family="Monaco" font-size="18.0" fill="#000000" transform="matrix(1.00, 0.00, -0.00, -1.00, 176.4, 549.0)"> </text><text xml:space="preserve" font-family="Monaco" font-size="18.0" fill="#000000" transform="matrix(1.00, 0.00, -0.00, -1.00, 187.2, 549.0)">f</text><text xml:space="preserve" font-family="Monaco" font-size="18.0" fill="#000000" transform="matrix(1.00, 0.00, -0.00, -1.00, 198.0, 549.0)">o</text><text xml:space="preserve" font-family="Monaco" font-size="18.0" fill="#000000" transform="matrix(1.00, 0.00, -0.00, -1.00, 208.8, 549.0)">r</text><text xml:space="preserve" font-family="Monaco" font-size="18.0" fill="#000000" transform="matrix(1.00, 0.00, -0.00, -1.00, 219.6, 549.0)">m</text><text xml:space="preserve" font-family="Monaco" font-size="18.0" fill="#000000" transform="matrix(1.00, 0.00, -0.00, -1.00, 230.4, 549.0)">a</text><text xml:space="preserve" font-family="Monaco" font-size="18.0" fill="#000000" transform="matrix(1.00, 0.00, -0.00, -1.00, 241.2, 549.0)">t</text><text xml:space="preserve" font-family="Monaco" font-size="18.0" fill="#000000" transform="matrix(1.00, 0.00, -0.00, -1.00, 36.0, 524.0)"> </text><text xml:space="preserve" font-family="Monaco" font-size="18.0" fill="#000000" transform="matrix(1.00, 0.00, -0.00, -1.00, 46.8, 524.0)"> </text><text xml:space="preserve" font-family="Monaco" font-size="18.0" fill="#285E99" transform="matrix(1.00, 0.00, -0.00, -1.00, 57.6, 524.0)">e</text><text xml:space="preserve" font-family="Monaco" font-size="18.0" fill="#285E99" transform="matrix(1.00, 0.00, -0.00, -1.00, 68.4, 524.0)">n</text><text xml:space="preserve" font-family="Monaco" font-size="18.0" fill="#285E99" transform="matrix(1.00, 0.00, -0.00, -1.00, 79.2, 524.0)">d</text><text xml:space="preserve" font-family="Monaco" font-size="18.0" fill="#000000" transform="matrix(1.00, 0.00, -0.00, -1.00, 36.0, 474.0)"> </text><text xml:space="preserve" font-family="Monaco" font-size="18.0" fill="#000000" transform="matrix(1.00, 0.00, -0.00, -1.00, 46.8, 474.0)"> </text><text xml:space="preserve" font-family="Monaco" font-size="18.0" fill="#285E99" transform="matrix(1.00, 0.00, -0.00, -1.00, 57.6, 474.0)">d</text><text xml:space="preserve" font-family="Monaco" font-size="18.0" fill="#285E99" transform="matrix(1.00, 0.00, -0.00, -1.00, 68.4, 474.0)">e</text><text xml:space="preserve" font-family="Monaco" font-size="18.0" fill="#285E99" transform="matrix(1.00, 0.00, -0.00, -1.00, 79.2, 474.0)">f</text><text xml:space="preserve" font-family="Monaco" font-size="18.0" fill="#000000" transform="matrix(1.00, 0.00, -0.00, -1.00, 90.0, 474.0)"> </text><text xml:space="preserve" font-family="Monaco" font-size="18.0" fill="#000000" transform="matrix(1.00, 0.00, -0.00, -1.00, 100.8, 474.0)">p</text><text xml:space="preserve" font-family="Monaco" font-size="18.0" fill="#000000" transform="matrix(1.00, 0.00, -0.00, -1.00, 111.6, 474.0)">a</text><text xml:space="preserve" font-family="Monaco" font-size="18.0" fill="#000000" transform="matrix(1.00, 0.00, -0.00, -1.00, 122.4, 474.0)">r</text><text xml:space="preserve" font-family="Monaco" font-size="18.0" fill="#000000" transform="matrix(1.00, 0.00, -0.00, -1.00, 133.2, 474.0)">s</text><text xml:space="preserve" font-family="Monaco" font-size="18.0" fill="#000000" transform="matrix(1.00, 0.00, -0.00, -1.00, 144.0, 474.0)">e</text><text xml:space="preserve" font-family="Monaco" font-size="18.0" fill="#000000" transform="matrix(1.00, 0.00, -0.00, -1.00, 36.0, 449.0)"> </text><text xml:space="preserve" font-family="Monaco" font-size="18.0" fill="#000000" transform="matrix(1.00, 0.00, -0.00, -1.00, 46.8, 449.0)"> </text><text xml:space="preserve" font-family="Monaco" font-size="18.0" fill="#000000" transform="matrix(1.00, 0.00, -0.00, -1.00, 57.6, 449.0)"> </text><text xml:space="preserve" font-family="Monaco" font-size="18.0" fill="#000000" transform="matrix(1.00, 0.00, -0.00, -1.00, 68.4, 449.0)"> </text><text xml:space="preserve" font-family="Monaco" font-size="18.0" fill="#285E99" transform="matrix(1.00, 0.00, -0.00, -1.00, 79.2, 449.0)">c</text><text xml:space="preserve" font-family="Monaco" font-size="18.0" fill="#285E99" transform="matrix(1.00, 0.00, -0.00, -1.00, 90.0, 449.0)">a</text><text xml:space="preserve" font-family="Monaco" font-size="18.0" fill="#285E99" transform="matrix(1.00, 0.00, -0.00, -1.00, 100.8, 449.0)">s</text><text xml:space="preserve" font-family="Monaco" font-size="18.0" fill="#285E99" transform="matrix(1.00, 0.00, -0.00, -1.00, 111.6, 449.0)">e</text><text xml:space="preserve" font-family="Monaco" font-size="18.0" fill="#000000" transform="matrix(1.00, 0.00, -0.00, -1.00, 122.4, 449.0)"> </text><text xml:space="preserve" font-family="Monaco" font-size="18.0" fill="#000000" transform="matrix(1.00, 0.00, -0.00, -1.00, 133.2, 449.0)">@</text><text xml:space="preserve" font-family="Monaco" font-size="18.0" fill="#000000" transform="matrix(1.00, 0.00, -0.00, -1.00, 144.0, 449.0)">f</text><text xml:space="preserve" font-family="Monaco" font-size="18.0" fill="#000000" transform="matrix(1.00, 0.00, -0.00, -1.00, 154.8, 449.0)">o</text><text xml:space="preserve" font-family="Monaco" font-size="18.0" fill="#000000" transform="matrix(1.00, 0.00, -0.00, -1.00, 165.6, 449.0)">r</text><text xml:space="preserve" font-family="Monaco" font-size="18.0" fill="#000000" transform="matrix(1.00, 0.00, -0.00, -1.00, 176.4, 449.0)">m</text><text xml:space="preserve" font-family="Monaco" font-size="18.0" fill="#000000" transform="matrix(1.00, 0.00, -0.00, -1.00, 187.2, 449.0)">a</text><text xml:space="preserve" font-family="Monaco" font-size="18.0" fill="#000000" transform="matrix(1.00, 0.00, -0.00, -1.00, 198.0, 449.0)">t</text><text xml:space="preserve" font-family="Monaco" font-size="18.0" fill="#000000" transform="matrix(1.00, 0.00, -0.00, -1.00, 36.0, 424.0)"> </text><text xml:space="preserve" font-family="Monaco" font-size="18.0" fill="#000000" transform="matrix(1.00, 0.00, -0.00, -1.00, 46.8, 424.0)"> </text><text xml:space="preserve" font-family="Monaco" font-size="18.0" fill="#000000" transform="matrix(1.00, 0.00, -0.00, -1.00, 57.6, 424.0)"> </text><text xml:space="preserve" font-family="Monaco" font-size="18.0" fill="#000000" transform="matrix(1.00, 0.00, -0.00, -1.00, 68.4, 424.0)"> </text><text xml:space="preserve" font-family="Monaco" font-size="18.0" fill="#000000" transform="matrix(1.00, 0.00, -0.00, -1.00, 79.2, 424.0)"> </text><text xml:space="preserve" font-family="Monaco" font-size="18.0" fill="#000000" transform="matrix(1.00, 0.00, -0.00, -1.00, 90.0, 424.0)"> </text><text xml:space="preserve" font-family="Monaco" font-size="18.0" fill="#285E99" transform="matrix(1.00, 0.00, -0.00, -1.00, 100.8, 424.0)">w</text><text xml:space="preserve" font-family="Monaco" font-size="18.0" fill="#285E99" transform="matrix(1.00, 0.00, -0.00, -1.00, 111.6, 424.0)">h</text><text xml:space="preserve" font-family="Monaco" font-size="18.0" fill="#285E99" transform="matrix(1.00, 0.00, -0.00, -1.00, 122.4, 424.0)">e</text><text xml:space="preserve" font-family="Monaco" font-size="18.0" fill="#285E99" transform="matrix(1.00, 0.00, -0.00, -1.00, 133.2, 424.0)">n</text><text xml:space="preserve" font-family="Monaco" font-size="18.0" fill="#000000" transform="matrix(1.00, 0.00, -0.00, -1.00, 144.0, 424.0)"> </text><text xml:space="preserve" font-family="Monaco" font-size="18.0" fill="#5DA602" transform="matrix(1.00, 0.00, -0.00, -1.00, 154.8, 424.0)">:</text><text xml:space="preserve" font-family="Monaco" font-size="18.0" fill="#5DA602" transform="matrix(1.00, 0.00, -0.00, -1.00, 165.6, 424.0)">x</text><text xml:space="preserve" font-family="Monaco" font-size="18.0" fill="#5DA602" transform="matrix(1.00, 0.00, -0.00, -1.00, 176.4, 424.0)">m</text><text xml:space="preserve" font-family="Monaco" font-size="18.0" fill="#5DA602" transform="matrix(1.00, 0.00, -0.00, -1.00, 187.2, 424.0)">l</text><text xml:space="preserve" font-family="Monaco" font-size="18.0" fill="#000000" transform="matrix(1.00, 0.00, -0.00, -1.00, 36.0, 399.0)"> </text><text xml:space="preserve" font-family="Monaco" font-size="18.0" fill="#000000" transform="matrix(1.00, 0.00, -0.00, -1.00, 46.8, 399.0)"> </text><text xml:space="preserve" font-family="Monaco" font-size="18.0" fill="#000000" transform="matrix(1.00, 0.00, -0.00, -1.00, 57.6, 399.0)"> </text><text xml:space="preserve" font-family="Monaco" font-size="18.0" fill="#000000" transform="matrix(1.00, 0.00, -0.00, -1.00, 68.4, 399.0)"> </text><text xml:space="preserve" font-family="Monaco" font-size="18.0" fill="#000000" transform="matrix(1.00, 0.00, -0.00, -1.00, 79.2, 399.0)"> </text><text xml:space="preserve" font-family="Monaco" font-size="18.0" fill="#000000" transform="matrix(1.00, 0.00, -0.00, -1.00, 90.0, 399.0)"> </text><text xml:space="preserve" font-family="Monaco" font-size="18.0" fill="#000000" transform="matrix(1.00, 0.00, -0.00, -1.00, 100.8, 399.0)"> </text><text xml:space="preserve" font-family="Monaco" font-size="18.0" fill="#000000" transform="matrix(1.00, 0.00, -0.00, -1.00, 111.6, 399.0)"> </text><text xml:space="preserve" font-family="Monaco" font-size="18.0" fill="#000000" transform="matrix(1.00, 0.00, -0.00, -1.00, 122.4, 399.0)">p</text><text xml:space="preserve" font-family="Monaco" font-size="18.0" fill="#000000" transform="matrix(1.00, 0.00, -0.00, -1.00, 133.2, 399.0)">a</text><text xml:space="preserve" font-family="Monaco" font-size="18.0" fill="#000000" transform="matrix(1.00, 0.00, -0.00, -1.00, 144.0, 399.0)">r</text><text xml:space="preserve" font-family="Monaco" font-size="18.0" fill="#000000" transform="matrix(1.00, 0.00, -0.00, -1.00, 154.8, 399.0)">s</text><text xml:space="preserve" font-family="Monaco" font-size="18.0" fill="#000000" transform="matrix(1.00, 0.00, -0.00, -1.00, 165.6, 399.0)">e</text><text xml:space="preserve" font-family="Monaco" font-size="18.0" fill="#000000" transform="matrix(1.00, 0.00, -0.00, -1.00, 176.4, 399.0)">_</text><text xml:space="preserve" font-family="Monaco" font-size="18.0" fill="#000000" transform="matrix(1.00, 0.00, -0.00, -1.00, 187.2, 399.0)">x</text><text xml:space="preserve" font-family="Monaco" font-size="18.0" fill="#000000" transform="matrix(1.00, 0.00, -0.00, -1.00, 198.1, 399.0)">m</text><text xml:space="preserve" font-family="Monaco" font-size="18.0" fill="#000000" transform="matrix(1.00, 0.00, -0.00, -1.00, 208.9, 399.0)">l</text><text xml:space="preserve" font-family="Monaco" font-size="18.0" fill="#000000" transform="matrix(1.00, 0.00, -0.00, -1.00, 36.0, 374.0)"> </text><text xml:space="preserve" font-family="Monaco" font-size="18.0" fill="#000000" transform="matrix(1.00, 0.00, -0.00, -1.00, 46.8, 374.0)"> </text><text xml:space="preserve" font-family="Monaco" font-size="18.0" fill="#000000" transform="matrix(1.00, 0.00, -0.00, -1.00, 57.6, 374.0)"> </text><text xml:space="preserve" font-family="Monaco" font-size="18.0" fill="#000000" transform="matrix(1.00, 0.00, -0.00, -1.00, 68.4, 374.0)"> </text><text xml:space="preserve" font-family="Monaco" font-size="18.0" fill="#000000" transform="matrix(1.00, 0.00, -0.00, -1.00, 79.2, 374.0)"> </text><text xml:space="preserve" font-family="Monaco" font-size="18.0" fill="#000000" transform="matrix(1.00, 0.00, -0.00, -1.00, 90.0, 374.0)"> </text><text xml:space="preserve" font-family="Monaco" font-size="18.0" fill="#285E99" transform="matrix(1.00, 0.00, -0.00, -1.00, 100.8, 374.0)">w</text><text xml:space="preserve" font-family="Monaco" font-size="18.0" fill="#285E99" transform="matrix(1.00, 0.00, -0.00, -1.00, 111.6, 374.0)">h</text><text xml:space="preserve" font-family="Monaco" font-size="18.0" fill="#285E99" transform="matrix(1.00, 0.00, -0.00, -1.00, 122.4, 374.0)">e</text><text xml:space="preserve" font-family="Monaco" font-size="18.0" fill="#285E99" transform="matrix(1.00, 0.00, -0.00, -1.00, 133.2, 374.0)">n</text><text xml:space="preserve" font-family="Monaco" font-size="18.0" fill="#000000" transform="matrix(1.00, 0.00, -0.00, -1.00, 144.0, 374.0)"> </text><text xml:space="preserve" font-family="Monaco" font-size="18.0" fill="#5DA602" transform="matrix(1.00, 0.00, -0.00, -1.00, 154.8, 374.0)">:</text><text xml:space="preserve" font-family="Monaco" font-size="18.0" fill="#5DA602" transform="matrix(1.00, 0.00, -0.00, -1.00, 165.6, 374.0)">c</text><text xml:space="preserve" font-family="Monaco" font-size="18.0" fill="#5DA602" transform="matrix(1.00, 0.00, -0.00, -1.00, 176.4, 374.0)">s</text><text xml:space="preserve" font-family="Monaco" font-size="18.0" fill="#5DA602" transform="matrix(1.00, 0.00, -0.00, -1.00, 187.2, 374.0)">v</text><text xml:space="preserve" font-family="Monaco" font-size="18.0" fill="#000000" transform="matrix(1.00, 0.00, -0.00, -1.00, 36.0, 349.0)"> </text><text xml:space="preserve" font-family="Monaco" font-size="18.0" fill="#000000" transform="matrix(1.00, 0.00, -0.00, -1.00, 46.8, 349.0)"> </text><text xml:space="preserve" font-family="Monaco" font-size="18.0" fill="#000000" transform="matrix(1.00, 0.00, -0.00, -1.00, 57.6, 349.0)"> </text><text xml:space="preserve" font-family="Monaco" font-size="18.0" fill="#000000" transform="matrix(1.00, 0.00, -0.00, -1.00, 68.4, 349.0)"> </text><text xml:space="preserve" font-family="Monaco" font-size="18.0" fill="#000000" transform="matrix(1.00, 0.00, -0.00, -1.00, 79.2, 349.0)"> </text><text xml:space="preserve" font-family="Monaco" font-size="18.0" fill="#000000" transform="matrix(1.00, 0.00, -0.00, -1.00, 90.0, 349.0)"> </text><text xml:space="preserve" font-family="Monaco" font-size="18.0" fill="#000000" transform="matrix(1.00, 0.00, -0.00, -1.00, 100.8, 349.0)"> </text><text xml:space="preserve" font-family="Monaco" font-size="18.0" fill="#000000" transform="matrix(1.00, 0.00, -0.00, -1.00, 111.6, 349.0)"> </text><text xml:space="preserve" font-family="Monaco" font-size="18.0" fill="#000000" transform="matrix(1.00, 0.00, -0.00, -1.00, 122.4, 349.0)">p</text><text xml:space="preserve" font-family="Monaco" font-size="18.0" fill="#000000" transform="matrix(1.00, 0.00, -0.00, -1.00, 133.2, 349.0)">a</text><text xml:space="preserve" font-family="Monaco" font-size="18.0" fill="#000000" transform="matrix(1.00, 0.00, -0.00, -1.00, 144.0, 349.0)">r</text><text xml:space="preserve" font-family="Monaco" font-size="18.0" fill="#000000" transform="matrix(1.00, 0.00, -0.00, -1.00, 154.8, 349.0)">s</text><text xml:space="preserve" font-family="Monaco" font-size="18.0" fill="#000000" transform="matrix(1.00, 0.00, -0.00, -1.00, 165.6, 349.0)">e</text><text xml:space="preserve" font-family="Monaco" font-size="18.0" fill="#000000" transform="matrix(1.00, 0.00, -0.00, -1.00, 176.4, 349.0)">_</text><text xml:space="preserve" font-family="Monaco" font-size="18.0" fill="#000000" transform="matrix(1.00, 0.00, -0.00, -1.00, 187.2, 349.0)">c</text><text xml:space="preserve" font-family="Monaco" font-size="18.0" fill="#000000" transform="matrix(1.00, 0.00, -0.00, -1.00, 198.1, 349.0)">s</text><text xml:space="preserve" font-family="Monaco" font-size="18.0" fill="#000000" transform="matrix(1.00, 0.00, -0.00, -1.00, 208.9, 349.0)">v</text><text xml:space="preserve" font-family="Monaco" font-size="18.0" fill="#000000" transform="matrix(1.00, 0.00, -0.00, -1.00, 36.0, 324.0)"> </text><text xml:space="preserve" font-family="Monaco" font-size="18.0" fill="#000000" transform="matrix(1.00, 0.00, -0.00, -1.00, 46.8, 324.0)"> </text><text xml:space="preserve" font-family="Monaco" font-size="18.0" fill="#000000" transform="matrix(1.00, 0.00, -0.00, -1.00, 57.6, 324.0)"> </text><text xml:space="preserve" font-family="Monaco" font-size="18.0" fill="#000000" transform="matrix(1.00, 0.00, -0.00, -1.00, 68.4, 324.0)"> </text><text xml:space="preserve" font-family="Monaco" font-size="18.0" fill="#285E99" transform="matrix(1.00, 0.00, -0.00, -1.00, 79.2, 324.0)">e</text><text xml:space="preserve" font-family="Monaco" font-size="18.0" fill="#285E99" transform="matrix(1.00, 0.00, -0.00, -1.00, 90.0, 324.0)">n</text><text xml:space="preserve" font-family="Monaco" font-size="18.0" fill="#285E99" transform="matrix(1.00, 0.00, -0.00, -1.00, 100.8, 324.0)">d</text><text xml:space="preserve" font-family="Monaco" font-size="18.0" fill="#000000" transform="matrix(1.00, 0.00, -0.00, -1.00, 36.0, 299.0)"> </text><text xml:space="preserve" font-family="Monaco" font-size="18.0" fill="#000000" transform="matrix(1.00, 0.00, -0.00, -1.00, 46.8, 299.0)"> </text><text xml:space="preserve" font-family="Monaco" font-size="18.0" fill="#285E99" transform="matrix(1.00, 0.00, -0.00, -1.00, 57.6, 299.0)">e</text><text xml:space="preserve" font-family="Monaco" font-size="18.0" fill="#285E99" transform="matrix(1.00, 0.00, -0.00, -1.00, 68.4, 299.0)">n</text><text xml:space="preserve" font-family="Monaco" font-size="18.0" fill="#285E99" transform="matrix(1.00, 0.00, -0.00, -1.00, 79.2, 299.0)">d</text><text xml:space="preserve" font-family="Monaco" font-size="18.0" fill="#000000" transform="matrix(1.00, 0.00, -0.00, -1.00, 36.0, 249.0)"> </text><text xml:space="preserve" font-family="Monaco" font-size="18.0" fill="#000000" transform="matrix(1.00, 0.00, -0.00, -1.00, 46.8, 249.0)"> </text><text xml:space="preserve" font-family="Monaco" font-size="18.0" fill="#285E99" transform="matrix(1.00, 0.00, -0.00, -1.00, 57.6, 249.0)">p</text><text xml:space="preserve" font-family="Monaco" font-size="18.0" fill="#285E99" transform="matrix(1.00, 0.00, -0.00, -1.00, 68.4, 249.0)">r</text><text xml:space="preserve" font-family="Monaco" font-size="18.0" fill="#285E99" transform="matrix(1.00, 0.00, -0.00, -1.00, 79.2, 249.0)">i</text><text xml:space="preserve" font-family="Monaco" font-size="18.0" fill="#285E99" transform="matrix(1.00, 0.00, -0.00, -1.00, 90.0, 249.0)">v</text><text xml:space="preserve" font-family="Monaco" font-size="18.0" fill="#285E99" transform="matrix(1.00, 0.00, -0.00, -1.00, 100.8, 249.0)">a</text><text xml:space="preserve" font-family="Monaco" font-size="18.0" fill="#285E99" transform="matrix(1.00, 0.00, -0.00, -1.00, 111.6, 249.0)">t</text><text xml:space="preserve" font-family="Monaco" font-size="18.0" fill="#285E99" transform="matrix(1.00, 0.00, -0.00, -1.00, 122.4, 249.0)">e</text><text xml:space="preserve" font-family="Monaco" font-size="18.0" fill="#000000" transform="matrix(1.00, 0.00, -0.00, -1.00, 36.0, 199.0)"> </text><text xml:space="preserve" font-family="Monaco" font-size="18.0" fill="#000000" transform="matrix(1.00, 0.00, -0.00, -1.00, 46.8, 199.0)"> </text><text xml:space="preserve" font-family="Monaco" font-size="18.0" fill="#285E99" transform="matrix(1.00, 0.00, -0.00, -1.00, 57.6, 199.0)">d</text><text xml:space="preserve" font-family="Monaco" font-size="18.0" fill="#285E99" transform="matrix(1.00, 0.00, -0.00, -1.00, 68.4, 199.0)">e</text><text xml:space="preserve" font-family="Monaco" font-size="18.0" fill="#285E99" transform="matrix(1.00, 0.00, -0.00, -1.00, 79.2, 199.0)">f</text><text xml:space="preserve" font-family="Monaco" font-size="18.0" fill="#000000" transform="matrix(1.00, 0.00, -0.00, -1.00, 90.0, 199.0)"> </text><text xml:space="preserve" font-family="Monaco" font-size="18.0" fill="#000000" transform="matrix(1.00, 0.00, -0.00, -1.00, 100.8, 199.0)">p</text><text xml:space="preserve" font-family="Monaco" font-size="18.0" fill="#000000" transform="matrix(1.00, 0.00, -0.00, -1.00, 111.6, 199.0)">a</text><text xml:space="preserve" font-family="Monaco" font-size="18.0" fill="#000000" transform="matrix(1.00, 0.00, -0.00, -1.00, 122.4, 199.0)">r</text><text xml:space="preserve" font-family="Monaco" font-size="18.0" fill="#000000" transform="matrix(1.00, 0.00, -0.00, -1.00, 133.2, 199.0)">s</text><text xml:space="preserve" font-family="Monaco" font-size="18.0" fill="#000000" transform="matrix(1.00, 0.00, -0.00, -1.00, 144.0, 199.0)">e</text><text xml:space="preserve" font-family="Monaco" font-size="18.0" fill="#000000" transform="matrix(1.00, 0.00, -0.00, -1.00, 154.8, 199.0)">_</text><text xml:space="preserve" font-family="Monaco" font-size="18.0" fill="#000000" transform="matrix(1.00, 0.00, -0.00, -1.00, 165.6, 199.0)">x</text><text xml:space="preserve" font-family="Monaco" font-size="18.0" fill="#000000" transform="matrix(1.00, 0.00, -0.00, -1.00, 176.4, 199.0)">m</text><text xml:space="preserve" font-family="Monaco" font-size="18.0" fill="#000000" transform="matrix(1.00, 0.00, -0.00, -1.00, 187.2, 199.0)">l</text><text xml:space="preserve" font-family="Monaco" font-size="18.0" fill="#000000" transform="matrix(1.00, 0.00, -0.00, -1.00, 36.0, 174.0)"> </text><text xml:space="preserve" font-family="Monaco" font-size="18.0" fill="#000000" transform="matrix(1.00, 0.00, -0.00, -1.00, 46.8, 174.0)"> </text><text xml:space="preserve" font-family="Monaco" font-size="18.0" fill="#000000" transform="matrix(1.00, 0.00, -0.00, -1.00, 57.6, 174.0)"> </text><text xml:space="preserve" font-family="Monaco" font-size="18.0" fill="#000000" transform="matrix(1.00, 0.00, -0.00, -1.00, 68.4, 174.0)"> </text><text xml:space="preserve" font-family="Monaco" font-size="18.0" fill="#A16B00" transform="matrix(1.00, 0.00, -0.00, -1.00, 79.2, 174.0)">#</text><text xml:space="preserve" font-family="Monaco" font-size="18.0" fill="#A16B00" transform="matrix(1.00, 0.00, -0.00, -1.00, 90.0, 174.0)"> </text><text xml:space="preserve" font-family="Monaco" font-size="18.0" fill="#A16B00" transform="matrix(1.00, 0.00, -0.00, -1.00, 100.8, 174.0)">P</text><text xml:space="preserve" font-family="Monaco" font-size="18.0" fill="#A16B00" transform="matrix(1.00, 0.00, -0.00, -1.00, 111.6, 174.0)">a</text><text xml:space="preserve" font-family="Monaco" font-size="18.0" fill="#A16B00" transform="matrix(1.00, 0.00, -0.00, -1.00, 122.4, 174.0)">r</text><text xml:space="preserve" font-family="Monaco" font-size="18.0" fill="#A16B00" transform="matrix(1.00, 0.00, -0.00, -1.00, 133.2, 174.0)">s</text><text xml:space="preserve" font-family="Monaco" font-size="18.0" fill="#A16B00" transform="matrix(1.00, 0.00, -0.00, -1.00, 144.0, 174.0)">e</text><text xml:space="preserve" font-family="Monaco" font-size="18.0" fill="#A16B00" transform="matrix(1.00, 0.00, -0.00, -1.00, 154.8, 174.0)"> </text><text xml:space="preserve" font-family="Monaco" font-size="18.0" fill="#A16B00" transform="matrix(1.00, 0.00, -0.00, -1.00, 165.6, 174.0)">X</text><text xml:space="preserve" font-family="Monaco" font-size="18.0" fill="#A16B00" transform="matrix(1.00, 0.00, -0.00, -1.00, 176.4, 174.0)">M</text><text xml:space="preserve" font-family="Monaco" font-size="18.0" fill="#A16B00" transform="matrix(1.00, 0.00, -0.00, -1.00, 187.2, 174.0)">L</text><text xml:space="preserve" font-family="Monaco" font-size="18.0" fill="#000000" transform="matrix(1.00, 0.00, -0.00, -1.00, 36.0, 149.0)"> </text><text xml:space="preserve" font-family="Monaco" font-size="18.0" fill="#000000" transform="matrix(1.00, 0.00, -0.00, -1.00, 46.8, 149.0)"> </text><text xml:space="preserve" font-family="Monaco" font-size="18.0" fill="#285E99" transform="matrix(1.00, 0.00, -0.00, -1.00, 57.6, 149.0)">e</text><text xml:space="preserve" font-family="Monaco" font-size="18.0" fill="#285E99" transform="matrix(1.00, 0.00, -0.00, -1.00, 68.4, 149.0)">n</text><text xml:space="preserve" font-family="Monaco" font-size="18.0" fill="#285E99" transform="matrix(1.00, 0.00, -0.00, -1.00, 79.2, 149.0)">d</text><text xml:space="preserve" font-family="Monaco" font-size="18.0" fill="#000000" transform="matrix(1.00, 0.00, -0.00, -1.00, 36.0, 99.0)"> </text><text xml:space="preserve" font-family="Monaco" font-size="18.0" fill="#000000" transform="matrix(1.00, 0.00, -0.00, -1.00, 46.8, 99.0)"> </text><text xml:space="preserve" font-family="Monaco" font-size="18.0" fill="#285E99" transform="matrix(1.00, 0.00, -0.00, -1.00, 57.6, 99.0)">d</text><text xml:space="preserve" font-family="Monaco" font-size="18.0" fill="#285E99" transform="matrix(1.00, 0.00, -0.00, -1.00, 68.4, 99.0)">e</text><text xml:space="preserve" font-family="Monaco" font-size="18.0" fill="#285E99" transform="matrix(1.00, 0.00, -0.00, -1.00, 79.2, 99.0)">f</text><text xml:space="preserve" font-family="Monaco" font-size="18.0" fill="#000000" transform="matrix(1.00, 0.00, -0.00, -1.00, 90.0, 99.0)"> </text><text xml:space="preserve" font-family="Monaco" font-size="18.0" fill="#000000" transform="matrix(1.00, 0.00, -0.00, -1.00, 100.8, 99.0)">p</text><text xml:space="preserve" font-family="Monaco" font-size="18.0" fill="#000000" transform="matrix(1.00, 0.00, -0.00, -1.00, 111.6, 99.0)">a</text><text xml:space="preserve" font-family="Monaco" font-size="18.0" fill="#000000" transform="matrix(1.00, 0.00, -0.00, -1.00, 122.4, 99.0)">r</text><text xml:space="preserve" font-family="Monaco" font-size="18.0" fill="#000000" transform="matrix(1.00, 0.00, -0.00, -1.00, 133.2, 99.0)">s</text><text xml:space="preserve" font-family="Monaco" font-size="18.0" fill="#000000" transform="matrix(1.00, 0.00, -0.00, -1.00, 144.0, 99.0)">e</text><text xml:space="preserve" font-family="Monaco" font-size="18.0" fill="#000000" transform="matrix(1.00, 0.00, -0.00, -1.00, 154.8, 99.0)">_</text><text xml:space="preserve" font-family="Monaco" font-size="18.0" fill="#000000" transform="matrix(1.00, 0.00, -0.00, -1.00, 165.6, 99.0)">c</text><text xml:space="preserve" font-family="Monaco" font-size="18.0" fill="#000000" transform="matrix(1.00, 0.00, -0.00, -1.00, 176.4, 99.0)">s</text><text xml:space="preserve" font-family="Monaco" font-size="18.0" fill="#000000" transform="matrix(1.00, 0.00, -0.00, -1.00, 187.2, 99.0)">v</text><text xml:space="preserve" font-family="Monaco" font-size="18.0" fill="#000000" transform="matrix(1.00, 0.00, -0.00, -1.00, 36.0, 74.0)"> </text><text xml:space="preserve" font-family="Monaco" font-size="18.0" fill="#000000" transform="matrix(1.00, 0.00, -0.00, -1.00, 46.8, 74.0)"> </text><text xml:space="preserve" font-family="Monaco" font-size="18.0" fill="#000000" transform="matrix(1.00, 0.00, -0.00, -1.00, 57.6, 74.0)"> </text><text xml:space="preserve" font-family="Monaco" font-size="18.0" fill="#000000" transform="matrix(1.00, 0.00, -0.00, -1.00, 68.4, 74.0)"> </text><text xml:space="preserve" font-family="Monaco" font-size="18.0" fill="#A16B00" transform="matrix(1.00, 0.00, -0.00, -1.00, 79.2, 74.0)">#</text><text xml:space="preserve" font-family="Monaco" font-size="18.0" fill="#A16B00" transform="matrix(1.00, 0.00, -0.00, -1.00, 90.0, 74.0)"> </text><text xml:space="preserve" font-family="Monaco" font-size="18.0" fill="#A16B00" transform="matrix(1.00, 0.00, -0.00, -1.00, 100.8, 74.0)">P</text><text xml:space="preserve" font-family="Monaco" font-size="18.0" fill="#A16B00" transform="matrix(1.00, 0.00, -0.00, -1.00, 111.6, 74.0)">a</text><text xml:space="preserve" font-family="Monaco" font-size="18.0" fill="#A16B00" transform="matrix(1.00, 0.00, -0.00, -1.00, 122.4, 74.0)">r</text><text xml:space="preserve" font-family="Monaco" font-size="18.0" fill="#A16B00" transform="matrix(1.00, 0.00, -0.00, -1.00, 133.2, 74.0)">s</text><text xml:space="preserve" font-family="Monaco" font-size="18.0" fill="#A16B00" transform="matrix(1.00, 0.00, -0.00, -1.00, 144.0, 74.0)">e</text><text xml:space="preserve" font-family="Monaco" font-size="18.0" fill="#A16B00" transform="matrix(1.00, 0.00, -0.00, -1.00, 154.8, 74.0)"> </text><text xml:space="preserve" font-family="Monaco" font-size="18.0" fill="#A16B00" transform="matrix(1.00, 0.00, -0.00, -1.00, 165.6, 74.0)">C</text><text xml:space="preserve" font-family="Monaco" font-size="18.0" fill="#A16B00" transform="matrix(1.00, 0.00, -0.00, -1.00, 176.4, 74.0)">S</text><text xml:space="preserve" font-family="Monaco" font-size="18.0" fill="#A16B00" transform="matrix(1.00, 0.00, -0.00, -1.00, 187.2, 74.0)">V</text><text xml:space="preserve" font-family="Monaco" font-size="18.0" fill="#000000" transform="matrix(1.00, 0.00, -0.00, -1.00, 36.0, 49.0)"> </text><text xml:space="preserve" font-family="Monaco" font-size="18.0" fill="#000000" transform="matrix(1.00, 0.00, -0.00, -1.00, 46.8, 49.0)"> </text><text xml:space="preserve" font-family="Monaco" font-size="18.0" fill="#285E99" transform="matrix(1.00, 0.00, -0.00, -1.00, 57.6, 49.0)">e</text><text xml:space="preserve" font-family="Monaco" font-size="18.0" fill="#285E99" transform="matrix(1.00, 0.00, -0.00, -1.00, 68.4, 49.0)">n</text><text xml:space="preserve" font-family="Monaco" font-size="18.0" fill="#285E99" transform="matrix(1.00, 0.00, -0.00, -1.00, 79.2, 49.0)">d</text><text xml:space="preserve" font-family="Monaco" font-size="18.0" fill="#285E99" transform="matrix(1.00, 0.00, -0.00, -1.00, 36.0, 24.0)">e</text><text xml:space="preserve" font-family="Monaco" font-size="18.0" fill="#285E99" transform="matrix(1.00, 0.00, -0.00, -1.00, 46.8, 24.0)">n</text><text xml:space="preserve" font-family="Monaco" font-size="18.0" fill="#285E99" transform="matrix(1.00, 0.00, -0.00, -1.00, 57.6, 24.0)">d</text><text xml:space="preserve" font-family="DINCondensed-Bold" font-weight="bold" font-size="48.0" fill="#34A4DA" transform="matrix(1.00, 0.00, -0.00, -1.00, 36.0, 705.0)">O</text><text xml:space="preserve" font-family="DINCondensed-Bold" font-weight="bold" font-size="48.0" fill="#34A4DA" transform="matrix(1.00, 0.00, -0.00, -1.00, 56.4, 705.0)">P</text><text xml:space="preserve" font-family="DINCondensed-Bold" font-weight="bold" font-size="48.0" fill="#34A4DA" transform="matrix(1.00, 0.00, -0.00, -1.00, 76.0, 705.0)">E</text><text xml:space="preserve" font-family="DINCondensed-Bold" font-weight="bold" font-size="48.0" fill="#34A4DA" transform="matrix(1.00, 0.00, -0.00, -1.00, 93.7, 705.0)">N</text><text xml:space="preserve" font-family="DINCondensed-Bold" font-weight="bold" font-size="48.0" fill="#34A4DA" transform="matrix(1.00, 0.00, -0.00, -1.00, 115.1, 705.0)">/</text><text xml:space="preserve" font-family="DINCondensed-Bold" font-weight="bold" font-size="48.0" fill="#34A4DA" transform="matrix(1.00, 0.00, -0.00, -1.00, 125.7, 705.0)">C</text><text xml:space="preserve" font-family="DINCondensed-Bold" font-weight="bold" font-size="48.0" fill="#34A4DA" transform="matrix(1.00, 0.00, -0.00, -1.00, 145.2, 705.0)">L</text><text xml:space="preserve" font-family="DINCondensed-Bold" font-weight="bold" font-size="48.0" fill="#34A4DA" transform="matrix(1.00, 0.00, -0.00, -1.00, 163.0, 705.0)">O</text><text xml:space="preserve" font-family="DINCondensed-Bold" font-weight="bold" font-size="48.0" fill="#34A4DA" transform="matrix(1.00, 0.00, -0.00, -1.00, 183.5, 705.0)">S</text><text xml:space="preserve" font-family="DINCondensed-Bold" font-weight="bold" font-size="48.0" fill="#34A4DA" transform="matrix(1.00, 0.00, -0.00, -1.00, 202.9, 705.0)">E</text><text xml:space="preserve" font-family="DINCondensed-Bold" font-weight="bold" font-size="48.0" fill="#34A4DA" transform="matrix(1.00, 0.00, -0.00, -1.00, 220.7, 705.0)">D</text><text xml:space="preserve" font-family="DINCondensed-Bold" font-weight="bold" font-size="48.0" fill="#34A4DA" transform="matrix(1.00, 0.00, -0.00, -1.00, 241.2, 705.0)"> </text><text xml:space="preserve" font-family="DINCondensed-Bold" font-weight="bold" font-size="48.0" fill="#34A4DA" transform="matrix(1.00, 0.00, -0.00, -1.00, 250.1, 705.0)">P</text><text xml:space="preserve" font-family="DINCondensed-Bold" font-weight="bold" font-size="48.0" fill="#34A4DA" transform="matrix(1.00, 0.00, -0.00, -1.00, 269.6, 705.0)">R</text><text xml:space="preserve" font-family="DINCondensed-Bold" font-weight="bold" font-size="48.0" fill="#34A4DA" transform="matrix(1.00, 0.00, -0.00, -1.00, 290.1, 705.0)">I</text><text xml:space="preserve" font-family="DINCondensed-Bold" font-weight="bold" font-size="48.0" fill="#34A4DA" transform="matrix(1.00, 0.00, -0.00, -1.00, 299.9, 705.0)">N</text><text xml:space="preserve" font-family="DINCondensed-Bold" font-weight="bold" font-size="48.0" fill="#34A4DA" transform="matrix(1.00, 0.00, -0.00, -1.00, 321.2, 705.0)">C</text><text xml:space="preserve" font-family="DINCondensed-Bold" font-weight="bold" font-size="48.0" fill="#34A4DA" transform="matrix(1.00, 0.00, -0.00, -1.00, 340.7, 705.0)">I</text><text xml:space="preserve" font-family="DINCondensed-Bold" font-weight="bold" font-size="48.0" fill="#34A4DA" transform="matrix(1.00, 0.00, -0.00, -1.00, 350.5, 705.0)">P</text><text xml:space="preserve" font-family="DINCondensed-Bold" font-weight="bold" font-size="48.0" fill="#34A4DA" transform="matrix(1.00, 0.00, -0.00, -1.00, 370.0, 705.0)">L</text><text xml:space="preserve" font-family="DINCondensed-Bold" font-weight="bold" font-size="48.0" fill="#34A4DA" transform="matrix(1.00, 0.00, -0.00, -1.00, 387.8, 705.0)">E</text></g></svg>