<?xml version="1.0" encoding="UTF-8" standalone="no"?><svg xmlns="http://www.w3.org/2000/svg" xmlns:xlink="http://www.w3.org/1999/xlink" clip-rule="evenodd" stroke-miterlimit="4.00" viewBox="0 0 1024 768"><desc>SVG generated by Keynote</desc><defs></defs><g transform="matrix(1.00, 0.00, -0.00, -1.00, 0.0, 768.0)"><path d="M 0.0 768.0 L 1024.0 768.0 L 1024.0 0.0 L 0.0 0.0 Z M 0.0 768.0 " fill="#FFFFFF"></path><path d="M 207.6 468.0 L 394.9 468.0 L 394.9 433.0 L 207.6 433.0 Z M 207.6 468.0 " fill="#FFE988"></path><path d="M 36.0 433.0 L 504.1 433.0 L 504.1 398.0 L 36.0 398.0 Z M 36.0 433.0 " fill="#FFE988"></path><text xml:space="preserve" font-family="Monaco" font-size="26.0" fill="#285E99" transform="matrix(1.00, 0.00, -0.00, -1.00, 36.0, 617.0)">c</text><text xml:space="preserve" font-family="Monaco" font-size="26.0" fill="#285E99" transform="matrix(1.00, 0.00, -0.00, -1.00, 51.6, 617.0)">l</text><text xml:space="preserve" font-family="Monaco" font-size="26.0" fill="#285E99" transform="matrix(1.00, 0.00, -0.00, -1.00, 67.2, 617.0)">a</text><text xml:space="preserve" font-family="Monaco" font-size="26.0" fill="#285E99" transform="matrix(1.00, 0.00, -0.00, -1.00, 82.8, 617.0)">s</text><text xml:space="preserve" font-family="Monaco" font-size="26.0" fill="#285E99" transform="matrix(1.00, 0.00, -0.00, -1.00, 98.4, 617.0)">s</text><text xml:space="preserve" font-family="Monaco" font-size="26.0" fill="#000000" transform="matrix(1.00, 0.00, -0.00, -1.00, 114.0, 617.0)"> </text><text xml:space="preserve" font-family="Monaco" font-size="26.0" fill="#000000" transform="matrix(1.00, 0.00, -0.00, -1.00, 129.6, 617.0)">P</text><text xml:space="preserve" font-family="Monaco" font-size="26.0" fill="#000000" transform="matrix(1.00, 0.00, -0.00, -1.00, 145.2, 617.0)">r</text><text xml:space="preserve" font-family="Monaco" font-size="26.0" fill="#000000" transform="matrix(1.00, 0.00, -0.00, -1.00, 160.8, 617.0)">o</text><text xml:space="preserve" font-family="Monaco" font-size="26.0" fill="#000000" transform="matrix(1.00, 0.00, -0.00, -1.00, 176.4, 617.0)">d</text><text xml:space="preserve" font-family="Monaco" font-size="26.0" fill="#000000" transform="matrix(1.00, 0.00, -0.00, -1.00, 192.0, 617.0)">u</text><text xml:space="preserve" font-family="Monaco" font-size="26.0" fill="#000000" transform="matrix(1.00, 0.00, -0.00, -1.00, 207.6, 617.0)">c</text><text xml:space="preserve" font-family="Monaco" font-size="26.0" fill="#000000" transform="matrix(1.00, 0.00, -0.00, -1.00, 223.2, 617.0)">t</text><text xml:space="preserve" font-family="Monaco" font-size="26.0" fill="#000000" transform="matrix(1.00, 0.00, -0.00, -1.00, 238.9, 617.0)">R</text><text xml:space="preserve" font-family="Monaco" font-size="26.0" fill="#000000" transform="matrix(1.00, 0.00, -0.00, -1.00, 254.5, 617.0)">e</text><text xml:space="preserve" font-family="Monaco" font-size="26.0" fill="#000000" transform="matrix(1.00, 0.00, -0.00, -1.00, 270.1, 617.0)">p</text><text xml:space="preserve" font-family="Monaco" font-size="26.0" fill="#000000" transform="matrix(1.00, 0.00, -0.00, -1.00, 285.7, 617.0)">o</text><text xml:space="preserve" font-family="Monaco" font-size="26.0" fill="#000000" transform="matrix(1.00, 0.00, -0.00, -1.00, 301.3, 617.0)">r</text><text xml:space="preserve" font-family="Monaco" font-size="26.0" fill="#000000" transform="matrix(1.00, 0.00, -0.00, -1.00, 316.9, 617.0)">t</text><g><clipPath id="clip-150"><path d="M 128.6 611.9 L 332.4 611.9 L 332.4 615.8 L 128.6 615.8 Z M 128.6 611.9 "></path></clipPath><g clip-path="url(#clip-150)"><path d="M 97.6 33.2 L 300.4 33.2 " fill="none" stroke="#000000" stroke-width="1.97" stroke-miterlimit="0.00" transform="matrix(1.00, 0.00, 0.00, -1.00, 32.0, 647.0)"></path></g></g><text xml:space="preserve" font-family="Monaco" font-size="26.0" fill="#000000" transform="matrix(1.00, 0.00, -0.00, -1.00, 36.0, 582.0)"> </text><text xml:space="preserve" font-family="Monaco" font-size="26.0" fill="#000000" transform="matrix(1.00, 0.00, -0.00, -1.00, 51.6, 582.0)"> </text><text xml:space="preserve" font-family="Monaco" font-size="26.0" fill="#285E99" transform="matrix(1.00, 0.00, -0.00, -1.00, 67.2, 582.0)">d</text><text xml:space="preserve" font-family="Monaco" font-size="26.0" fill="#285E99" transform="matrix(1.00, 0.00, -0.00, -1.00, 82.8, 582.0)">e</text><text xml:space="preserve" font-family="Monaco" font-size="26.0" fill="#285E99" transform="matrix(1.00, 0.00, -0.00, -1.00, 98.4, 582.0)">f</text><text xml:space="preserve" font-family="Monaco" font-size="26.0" fill="#000000" transform="matrix(1.00, 0.00, -0.00, -1.00, 114.0, 582.0)"> </text><text xml:space="preserve" font-family="Monaco" font-size="26.0" fill="#000000" transform="matrix(1.00, 0.00, -0.00, -1.00, 129.6, 582.0)">c</text><text xml:space="preserve" font-family="Monaco" font-size="26.0" fill="#000000" transform="matrix(1.00, 0.00, -0.00, -1.00, 145.2, 582.0)">o</text><text xml:space="preserve" font-family="Monaco" font-size="26.0" fill="#000000" transform="matrix(1.00, 0.00, -0.00, -1.00, 160.8, 582.0)">n</text><text xml:space="preserve" font-family="Monaco" font-size="26.0" fill="#000000" transform="matrix(1.00, 0.00, -0.00, -1.00, 176.4, 582.0)">t</text><text xml:space="preserve" font-family="Monaco" font-size="26.0" fill="#000000" transform="matrix(1.00, 0.00, -0.00, -1.00, 192.0, 582.0)">e</text><text xml:space="preserve" font-family="Monaco" font-size="26.0" fill="#000000" transform="matrix(1.00, 0.00, -0.00, -1.00, 207.6, 582.0)">n</text><text xml:space="preserve" font-family="Monaco" font-size="26.0" fill="#000000" transform="matrix(1.00, 0.00, -0.00, -1.00, 223.2, 582.0)">t</text><text xml:space="preserve" font-family="Monaco" font-size="26.0" fill="#000000" transform="matrix(1.00, 0.00, -0.00, -1.00, 36.0, 547.0)"> </text><text xml:space="preserve" font-family="Monaco" font-size="26.0" fill="#000000" transform="matrix(1.00, 0.00, -0.00, -1.00, 51.6, 547.0)"> </text><text xml:space="preserve" font-family="Monaco" font-size="26.0" fill="#000000" transform="matrix(1.00, 0.00, -0.00, -1.00, 67.2, 547.0)"> </text><text xml:space="preserve" font-family="Monaco" font-size="26.0" fill="#000000" transform="matrix(1.00, 0.00, -0.00, -1.00, 82.8, 547.0)"> </text><text xml:space="preserve" font-family="Monaco" font-size="26.0" fill="#A16B00" transform="matrix(1.00, 0.00, -0.00, -1.00, 98.4, 547.0)">#</text><text xml:space="preserve" font-family="Monaco" font-size="26.0" fill="#A16B00" transform="matrix(1.00, 0.00, -0.00, -1.00, 114.0, 547.0)"> </text><text xml:space="preserve" font-family="Monaco" font-size="26.0" fill="#A16B00" transform="matrix(1.00, 0.00, -0.00, -1.00, 129.6, 547.0)">R</text><text xml:space="preserve" font-family="Monaco" font-size="26.0" fill="#A16B00" transform="matrix(1.00, 0.00, -0.00, -1.00, 145.2, 547.0)">e</text><text xml:space="preserve" font-family="Monaco" font-size="26.0" fill="#A16B00" transform="matrix(1.00, 0.00, -0.00, -1.00, 160.8, 547.0)">p</text><text xml:space="preserve" font-family="Monaco" font-size="26.0" fill="#A16B00" transform="matrix(1.00, 0.00, -0.00, -1.00, 176.4, 547.0)">o</text><text xml:space="preserve" font-family="Monaco" font-size="26.0" fill="#A16B00" transform="matrix(1.00, 0.00, -0.00, -1.00, 192.0, 547.0)">r</text><text xml:space="preserve" font-family="Monaco" font-size="26.0" fill="#A16B00" transform="matrix(1.00, 0.00, -0.00, -1.00, 207.6, 547.0)">t</text><text xml:space="preserve" font-family="Monaco" font-size="26.0" fill="#000000" transform="matrix(1.00, 0.00, -0.00, -1.00, 36.0, 512.0)"> </text><text xml:space="preserve" font-family="Monaco" font-size="26.0" fill="#000000" transform="matrix(1.00, 0.00, -0.00, -1.00, 51.6, 512.0)"> </text><text xml:space="preserve" font-family="Monaco" font-size="26.0" fill="#285E99" transform="matrix(1.00, 0.00, -0.00, -1.00, 67.2, 512.0)">e</text><text xml:space="preserve" font-family="Monaco" font-size="26.0" fill="#285E99" transform="matrix(1.00, 0.00, -0.00, -1.00, 82.8, 512.0)">n</text><text xml:space="preserve" font-family="Monaco" font-size="26.0" fill="#285E99" transform="matrix(1.00, 0.00, -0.00, -1.00, 98.4, 512.0)">d</text><text xml:space="preserve" font-family="Monaco" font-size="26.0" fill="#000000" transform="matrix(1.00, 0.00, -0.00, -1.00, 36.0, 477.0)"> </text><text xml:space="preserve" font-family="Monaco" font-size="26.0" fill="#000000" transform="matrix(1.00, 0.00, -0.00, -1.00, 51.6, 477.0)"> </text><text xml:space="preserve" font-family="Monaco" font-size="26.0" fill="#000000" transform="matrix(1.00, 0.00, -0.00, -1.00, 36.0, 442.0)"> </text><text xml:space="preserve" font-family="Monaco" font-size="26.0" fill="#000000" transform="matrix(1.00, 0.00, -0.00, -1.00, 51.6, 442.0)"> </text><text xml:space="preserve" font-family="Monaco" font-size="26.0" fill="#285E99" transform="matrix(1.00, 0.00, -0.00, -1.00, 67.2, 442.0)">d</text><text xml:space="preserve" font-family="Monaco" font-size="26.0" fill="#285E99" transform="matrix(1.00, 0.00, -0.00, -1.00, 82.8, 442.0)">e</text><text xml:space="preserve" font-family="Monaco" font-size="26.0" fill="#285E99" transform="matrix(1.00, 0.00, -0.00, -1.00, 98.4, 442.0)">f</text><text xml:space="preserve" font-family="Monaco" font-size="26.0" fill="#000000" transform="matrix(1.00, 0.00, -0.00, -1.00, 114.0, 442.0)"> </text><text xml:space="preserve" font-family="Monaco" font-size="26.0" fill="#000000" transform="matrix(1.00, 0.00, -0.00, -1.00, 129.6, 442.0)">p</text><text xml:space="preserve" font-family="Monaco" font-size="26.0" fill="#000000" transform="matrix(1.00, 0.00, -0.00, -1.00, 145.2, 442.0)">r</text><text xml:space="preserve" font-family="Monaco" font-size="26.0" fill="#000000" transform="matrix(1.00, 0.00, -0.00, -1.00, 160.8, 442.0)">i</text><text xml:space="preserve" font-family="Monaco" font-size="26.0" fill="#000000" transform="matrix(1.00, 0.00, -0.00, -1.00, 176.4, 442.0)">n</text><text xml:space="preserve" font-family="Monaco" font-size="26.0" fill="#000000" transform="matrix(1.00, 0.00, -0.00, -1.00, 192.0, 442.0)">t</text><text xml:space="preserve" font-family="Monaco" font-size="26.0" fill="#000000" transform="matrix(1.00, 0.00, -0.00, -1.00, 207.6, 442.0)">(</text><text xml:space="preserve" font-family="Monaco" font-size="26.0" fill="#000000" transform="matrix(1.00, 0.00, -0.00, -1.00, 223.2, 442.0)">f</text><text xml:space="preserve" font-family="Monaco" font-size="26.0" fill="#000000" transform="matrix(1.00, 0.00, -0.00, -1.00, 238.8, 442.0)">o</text><text xml:space="preserve" font-family="Monaco" font-size="26.0" fill="#000000" transform="matrix(1.00, 0.00, -0.00, -1.00, 254.4, 442.0)">r</text><text xml:space="preserve" font-family="Monaco" font-size="26.0" fill="#000000" transform="matrix(1.00, 0.00, -0.00, -1.00, 270.0, 442.0)">m</text><text xml:space="preserve" font-family="Monaco" font-size="26.0" fill="#000000" transform="matrix(1.00, 0.00, -0.00, -1.00, 285.7, 442.0)">a</text><text xml:space="preserve" font-family="Monaco" font-size="26.0" fill="#000000" transform="matrix(1.00, 0.00, -0.00, -1.00, 301.3, 442.0)">t</text><text xml:space="preserve" font-family="Monaco" font-size="26.0" fill="#000000" transform="matrix(1.00, 0.00, -0.00, -1.00, 316.9, 442.0)">t</text><text xml:space="preserve" font-family="Monaco" font-size="26.0" fill="#000000" transform="matrix(1.00, 0.00, -0.00, -1.00, 332.5, 442.0)">e</text><text xml:space="preserve" font-family="Monaco" font-size="26.0" fill="#000000" transform="matrix(1.00, 0.00, -0.00, -1.00, 348.1, 442.0)">r</text><text xml:space="preserve" font-family="Monaco" font-size="26.0" fill="#000000" transform="matrix(1.00, 0.00, -0.00, -1.00, 363.7, 442.0)">)</text><text xml:space="preserve" font-family="Monaco" font-size="26.0" fill="#000000" transform="matrix(1.00, 0.00, -0.00, -1.00, 36.0, 407.0)"> </text><text xml:space="preserve" font-family="Monaco" font-size="26.0" fill="#000000" transform="matrix(1.00, 0.00, -0.00, -1.00, 51.6, 407.0)"> </text><text xml:space="preserve" font-family="Monaco" font-size="26.0" fill="#000000" transform="matrix(1.00, 0.00, -0.00, -1.00, 67.2, 407.0)"> </text><text xml:space="preserve" font-family="Monaco" font-size="26.0" fill="#000000" transform="matrix(1.00, 0.00, -0.00, -1.00, 82.8, 407.0)"> </text><text xml:space="preserve" font-family="Monaco" font-size="26.0" fill="#000000" transform="matrix(1.00, 0.00, -0.00, -1.00, 98.4, 407.0)">f</text><text xml:space="preserve" font-family="Monaco" font-size="26.0" fill="#000000" transform="matrix(1.00, 0.00, -0.00, -1.00, 114.0, 407.0)">o</text><text xml:space="preserve" font-family="Monaco" font-size="26.0" fill="#000000" transform="matrix(1.00, 0.00, -0.00, -1.00, 129.6, 407.0)">r</text><text xml:space="preserve" font-family="Monaco" font-size="26.0" fill="#000000" transform="matrix(1.00, 0.00, -0.00, -1.00, 145.2, 407.0)">m</text><text xml:space="preserve" font-family="Monaco" font-size="26.0" fill="#000000" transform="matrix(1.00, 0.00, -0.00, -1.00, 160.8, 407.0)">a</text><text xml:space="preserve" font-family="Monaco" font-size="26.0" fill="#000000" transform="matrix(1.00, 0.00, -0.00, -1.00, 176.4, 407.0)">t</text><text xml:space="preserve" font-family="Monaco" font-size="26.0" fill="#000000" transform="matrix(1.00, 0.00, -0.00, -1.00, 192.1, 407.0)">t</text><text xml:space="preserve" font-family="Monaco" font-size="26.0" fill="#000000" transform="matrix(1.00, 0.00, -0.00, -1.00, 207.7, 407.0)">e</text><text xml:space="preserve" font-family="Monaco" font-size="26.0" fill="#000000" transform="matrix(1.00, 0.00, -0.00, -1.00, 223.3, 407.0)">r</text><text xml:space="preserve" font-family="Monaco" font-size="26.0" fill="#D97000" transform="matrix(1.00, 0.00, -0.00, -1.00, 238.8, 407.0)">.</text><text xml:space="preserve" font-family="Monaco" font-size="26.0" fill="#000000" transform="matrix(1.00, 0.00, -0.00, -1.00, 254.4, 407.0)">f</text><text xml:space="preserve" font-family="Monaco" font-size="26.0" fill="#000000" transform="matrix(1.00, 0.00, -0.00, -1.00, 270.0, 407.0)">o</text><text xml:space="preserve" font-family="Monaco" font-size="26.0" fill="#000000" transform="matrix(1.00, 0.00, -0.00, -1.00, 285.6, 407.0)">r</text><text xml:space="preserve" font-family="Monaco" font-size="26.0" fill="#000000" transform="matrix(1.00, 0.00, -0.00, -1.00, 301.3, 407.0)">m</text><text xml:space="preserve" font-family="Monaco" font-size="26.0" fill="#000000" transform="matrix(1.00, 0.00, -0.00, -1.00, 316.9, 407.0)">a</text><text xml:space="preserve" font-family="Monaco" font-size="26.0" fill="#000000" transform="matrix(1.00, 0.00, -0.00, -1.00, 332.5, 407.0)">t</text><text xml:space="preserve" font-family="Monaco" font-size="26.0" fill="#000000" transform="matrix(1.00, 0.00, -0.00, -1.00, 348.1, 407.0)">(</text><text xml:space="preserve" font-family="Monaco" font-size="26.0" fill="#000000" transform="matrix(1.00, 0.00, -0.00, -1.00, 363.7, 407.0)">c</text><text xml:space="preserve" font-family="Monaco" font-size="26.0" fill="#000000" transform="matrix(1.00, 0.00, -0.00, -1.00, 379.3, 407.0)">o</text><text xml:space="preserve" font-family="Monaco" font-size="26.0" fill="#000000" transform="matrix(1.00, 0.00, -0.00, -1.00, 394.9, 407.0)">n</text><text xml:space="preserve" font-family="Monaco" font-size="26.0" fill="#000000" transform="matrix(1.00, 0.00, -0.00, -1.00, 410.5, 407.0)">t</text><text xml:space="preserve" font-family="Monaco" font-size="26.0" fill="#000000" transform="matrix(1.00, 0.00, -0.00, -1.00, 426.1, 407.0)">e</text><text xml:space="preserve" font-family="Monaco" font-size="26.0" fill="#000000" transform="matrix(1.00, 0.00, -0.00, -1.00, 441.7, 407.0)">n</text><text xml:space="preserve" font-family="Monaco" font-size="26.0" fill="#000000" transform="matrix(1.00, 0.00, -0.00, -1.00, 457.3, 407.0)">t</text><text xml:space="preserve" font-family="Monaco" font-size="26.0" fill="#000000" transform="matrix(1.00, 0.00, -0.00, -1.00, 472.9, 407.0)">)</text><text xml:space="preserve" font-family="Monaco" font-size="26.0" fill="#000000" transform="matrix(1.00, 0.00, -0.00, -1.00, 36.0, 372.0)"> </text><text xml:space="preserve" font-family="Monaco" font-size="26.0" fill="#000000" transform="matrix(1.00, 0.00, -0.00, -1.00, 51.6, 372.0)"> </text><text xml:space="preserve" font-family="Monaco" font-size="26.0" fill="#285E99" transform="matrix(1.00, 0.00, -0.00, -1.00, 67.2, 372.0)">e</text><text xml:space="preserve" font-family="Monaco" font-size="26.0" fill="#285E99" transform="matrix(1.00, 0.00, -0.00, -1.00, 82.8, 372.0)">n</text><text xml:space="preserve" font-family="Monaco" font-size="26.0" fill="#285E99" transform="matrix(1.00, 0.00, -0.00, -1.00, 98.4, 372.0)">d</text><text xml:space="preserve" font-family="Monaco" font-size="26.0" fill="#285E99" transform="matrix(1.00, 0.00, -0.00, -1.00, 36.0, 337.0)">e</text><text xml:space="preserve" font-family="Monaco" font-size="26.0" fill="#285E99" transform="matrix(1.00, 0.00, -0.00, -1.00, 51.6, 337.0)">n</text><text xml:space="preserve" font-family="Monaco" font-size="26.0" fill="#285E99" transform="matrix(1.00, 0.00, -0.00, -1.00, 67.2, 337.0)">d</text><text xml:space="preserve" font-family="Monaco" font-size="26.0" fill="#000000" transform="matrix(1.00, 0.00, -0.00, -1.00, 36.0, 267.0)">P</text><text xml:space="preserve" font-family="Monaco" font-size="26.0" fill="#000000" transform="matrix(1.00, 0.00, -0.00, -1.00, 51.6, 267.0)">r</text><text xml:space="preserve" font-family="Monaco" font-size="26.0" fill="#000000" transform="matrix(1.00, 0.00, -0.00, -1.00, 67.2, 267.0)">o</text><text xml:space="preserve" font-family="Monaco" font-size="26.0" fill="#000000" transform="matrix(1.00, 0.00, -0.00, -1.00, 82.8, 267.0)">d</text><text xml:space="preserve" font-family="Monaco" font-size="26.0" fill="#000000" transform="matrix(1.00, 0.00, -0.00, -1.00, 98.4, 267.0)">u</text><text xml:space="preserve" font-family="Monaco" font-size="26.0" fill="#000000" transform="matrix(1.00, 0.00, -0.00, -1.00, 114.0, 267.0)">c</text><text xml:space="preserve" font-family="Monaco" font-size="26.0" fill="#000000" transform="matrix(1.00, 0.00, -0.00, -1.00, 129.6, 267.0)">t</text><text xml:space="preserve" font-family="Monaco" font-size="26.0" fill="#000000" transform="matrix(1.00, 0.00, -0.00, -1.00, 145.2, 267.0)">R</text><text xml:space="preserve" font-family="Monaco" font-size="26.0" fill="#000000" transform="matrix(1.00, 0.00, -0.00, -1.00, 160.8, 267.0)">e</text><text xml:space="preserve" font-family="Monaco" font-size="26.0" fill="#000000" transform="matrix(1.00, 0.00, -0.00, -1.00, 176.4, 267.0)">p</text><text xml:space="preserve" font-family="Monaco" font-size="26.0" fill="#000000" transform="matrix(1.00, 0.00, -0.00, -1.00, 192.1, 267.0)">o</text><text xml:space="preserve" font-family="Monaco" font-size="26.0" fill="#000000" transform="matrix(1.00, 0.00, -0.00, -1.00, 207.7, 267.0)">r</text><text xml:space="preserve" font-family="Monaco" font-size="26.0" fill="#000000" transform="matrix(1.00, 0.00, -0.00, -1.00, 223.3, 267.0)">t</text><text xml:space="preserve" font-family="Monaco" font-size="26.0" fill="#000000" transform="matrix(1.00, 0.00, -0.00, -1.00, 238.8, 267.0)">.</text><text xml:space="preserve" font-family="Monaco" font-size="26.0" fill="#000000" transform="matrix(1.00, 0.00, -0.00, -1.00, 254.4, 267.0)">p</text><text xml:space="preserve" font-family="Monaco" font-size="26.0" fill="#000000" transform="matrix(1.00, 0.00, -0.00, -1.00, 270.0, 267.0)">r</text><text xml:space="preserve" font-family="Monaco" font-size="26.0" fill="#000000" transform="matrix(1.00, 0.00, -0.00, -1.00, 285.6, 267.0)">i</text><text xml:space="preserve" font-family="Monaco" font-size="26.0" fill="#000000" transform="matrix(1.00, 0.00, -0.00, -1.00, 301.3, 267.0)">n</text><text xml:space="preserve" font-family="Monaco" font-size="26.0" fill="#000000" transform="matrix(1.00, 0.00, -0.00, -1.00, 316.9, 267.0)">t</text><text xml:space="preserve" font-family="Monaco" font-size="26.0" fill="#000000" transform="matrix(1.00, 0.00, -0.00, -1.00, 332.5, 267.0)">(</text><text xml:space="preserve" font-family="Monaco" font-size="26.0" fill="#000000" transform="matrix(1.00, 0.00, -0.00, -1.00, 348.1, 267.0)">H</text><text xml:space="preserve" font-family="Monaco" font-size="26.0" fill="#000000" transform="matrix(1.00, 0.00, -0.00, -1.00, 363.7, 267.0)">T</text><text xml:space="preserve" font-family="Monaco" font-size="26.0" fill="#000000" transform="matrix(1.00, 0.00, -0.00, -1.00, 379.3, 267.0)">M</text><text xml:space="preserve" font-family="Monaco" font-size="26.0" fill="#000000" transform="matrix(1.00, 0.00, -0.00, -1.00, 394.9, 267.0)">L</text><text xml:space="preserve" font-family="Monaco" font-size="26.0" fill="#000000" transform="matrix(1.00, 0.00, -0.00, -1.00, 410.5, 267.0)">F</text><text xml:space="preserve" font-family="Monaco" font-size="26.0" fill="#000000" transform="matrix(1.00, 0.00, -0.00, -1.00, 426.1, 267.0)">o</text><text xml:space="preserve" font-family="Monaco" font-size="26.0" fill="#000000" transform="matrix(1.00, 0.00, -0.00, -1.00, 441.7, 267.0)">r</text><text xml:space="preserve" font-family="Monaco" font-size="26.0" fill="#000000" transform="matrix(1.00, 0.00, -0.00, -1.00, 457.3, 267.0)">m</text><text xml:space="preserve" font-family="Monaco" font-size="26.0" fill="#000000" transform="matrix(1.00, 0.00, -0.00, -1.00, 472.9, 267.0)">a</text><text xml:space="preserve" font-family="Monaco" font-size="26.0" fill="#000000" transform="matrix(1.00, 0.00, -0.00, -1.00, 488.5, 267.0)">t</text><text xml:space="preserve" font-family="Monaco" font-size="26.0" fill="#000000" transform="matrix(1.00, 0.00, -0.00, -1.00, 504.1, 267.0)">t</text><text xml:space="preserve" font-family="Monaco" font-size="26.0" fill="#000000" transform="matrix(1.00, 0.00, -0.00, -1.00, 519.7, 267.0)">e</text><text xml:space="preserve" font-family="Monaco" font-size="26.0" fill="#000000" transform="matrix(1.00, 0.00, -0.00, -1.00, 535.3, 267.0)">r</text><text xml:space="preserve" font-family="Monaco" font-size="26.0" fill="#000000" transform="matrix(1.00, 0.00, -0.00, -1.00, 550.9, 267.0)">.</text><text xml:space="preserve" font-family="Monaco" font-size="26.0" fill="#000000" transform="matrix(1.00, 0.00, -0.00, -1.00, 566.5, 267.0)">n</text><text xml:space="preserve" font-family="Monaco" font-size="26.0" fill="#000000" transform="matrix(1.00, 0.00, -0.00, -1.00, 582.1, 267.0)">e</text><text xml:space="preserve" font-family="Monaco" font-size="26.0" fill="#000000" transform="matrix(1.00, 0.00, -0.00, -1.00, 597.8, 267.0)">w</text><text xml:space="preserve" font-family="Monaco" font-size="26.0" fill="#000000" transform="matrix(1.00, 0.00, -0.00, -1.00, 613.4, 267.0)">)</text><text xml:space="preserve" font-family="DINCondensed-Bold" font-weight="bold" font-size="48.0" fill="#34A4DA" transform="matrix(1.00, 0.00, -0.00, -1.00, 36.0, 705.0)">D</text><text xml:space="preserve" font-family="DINCondensed-Bold" font-weight="bold" font-size="48.0" fill="#34A4DA" transform="matrix(1.00, 0.00, -0.00, -1.00, 56.4, 705.0)">E</text><text xml:space="preserve" font-family="DINCondensed-Bold" font-weight="bold" font-size="48.0" fill="#34A4DA" transform="matrix(1.00, 0.00, -0.00, -1.00, 74.2, 705.0)">P</text><text xml:space="preserve" font-family="DINCondensed-Bold" font-weight="bold" font-size="48.0" fill="#34A4DA" transform="matrix(1.00, 0.00, -0.00, -1.00, 93.7, 705.0)">E</text><text xml:space="preserve" font-family="DINCondensed-Bold" font-weight="bold" font-size="48.0" fill="#34A4DA" transform="matrix(1.00, 0.00, -0.00, -1.00, 111.5, 705.0)">N</text><text xml:space="preserve" font-family="DINCondensed-Bold" font-weight="bold" font-size="48.0" fill="#34A4DA" transform="matrix(1.00, 0.00, -0.00, -1.00, 132.8, 705.0)">D</text><text xml:space="preserve" font-family="DINCondensed-Bold" font-weight="bold" font-size="48.0" fill="#34A4DA" transform="matrix(1.00, 0.00, -0.00, -1.00, 153.3, 705.0)">E</text><text xml:space="preserve" font-family="DINCondensed-Bold" font-weight="bold" font-size="48.0" fill="#34A4DA" transform="matrix(1.00, 0.00, -0.00, -1.00, 171.0, 705.0)">N</text><text xml:space="preserve" font-family="DINCondensed-Bold" font-weight="bold" font-size="48.0" fill="#34A4DA" transform="matrix(1.00, 0.00, -0.00, -1.00, 192.3, 705.0)">C</text><text xml:space="preserve" font-family="DINCondensed-Bold" font-weight="bold" font-size="48.0" fill="#34A4DA" transform="matrix(1.00, 0.00, -0.00, -1.00, 211.9, 705.0)">Y</text><text xml:space="preserve" font-family="DINCondensed-Bold" font-weight="bold" font-size="48.0" fill="#34A4DA" transform="matrix(1.00, 0.00, -0.00, -1.00, 230.5, 705.0)"> </text><text xml:space="preserve" font-family="DINCondensed-Bold" font-weight="bold" font-size="48.0" fill="#34A4DA" transform="matrix(1.00, 0.00, -0.00, -1.00, 239.4, 705.0)">I</text><text xml:space="preserve" font-family="DINCondensed-Bold" font-weight="bold" font-size="48.0" fill="#34A4DA" transform="matrix(1.00, 0.00, -0.00, -1.00, 249.2, 705.0)">N</text><text xml:space="preserve" font-family="DINCondensed-Bold" font-weight="bold" font-size="48.0" fill="#34A4DA" transform="matrix(1.00, 0.00, -0.00, -1.00, 270.5, 705.0)">V</text><text xml:space="preserve" font-family="DINCondensed-Bold" font-weight="bold" font-size="48.0" fill="#34A4DA" transform="matrix(1.00, 0.00, -0.00, -1.00, 290.1, 705.0)">E</text><text xml:space="preserve" font-family="DINCondensed-Bold" font-weight="bold" font-size="48.0" fill="#34A4DA" transform="matrix(1.00, 0.00, -0.00, -1.00, 307.8, 705.0)">R</text><text xml:space="preserve" font-family="DINCondensed-Bold" font-weight="bold" font-size="48.0" fill="#34A4DA" transform="matrix(1.00, 0.00, -0.00, -1.00, 328.3, 705.0)">S</text><text xml:space="preserve" font-family="DINCondensed-Bold" font-weight="bold" font-size="48.0" fill="#34A4DA" transform="matrix(1.00, 0.00, -0.00, -1.00, 347.8, 705.0)">I</text><text xml:space="preserve" font-family="DINCondensed-Bold" font-weight="bold" font-size="48.0" fill="#34A4DA" transform="matrix(1.00, 0.00, -0.00, -1.00, 357.6, 705.0)">O</text><text xml:space="preserve" font-family="DINCondensed-Bold" font-weight="bold" font-size="48.0" fill="#34A4DA" transform="matrix(1.00, 0.00, -0.00, -1.00, 378.0, 705.0)">N</text><text xml:space="preserve" font-family="DINCondensed-Bold" font-weight="bold" font-size="48.0" fill="#34A4DA" transform="matrix(1.00, 0.00, -0.00, -1.00, 399.3, 705.0)"> </text><text xml:space="preserve" font-family="DINCondensed-Bold" font-weight="bold" font-size="48.0" fill="#34A4DA" transform="matrix(1.00, 0.00, -0.00, -1.00, 408.2, 705.0)">P</text><text xml:space="preserve" font-family="DINCondensed-Bold" font-weight="bold" font-size="48.0" fill="#34A4DA" transform="matrix(1.00, 0.00, -0.00, -1.00, 427.8, 705.0)">R</text><text xml:space="preserve" font-family="DINCondensed-Bold" font-weight="bold" font-size="48.0" fill="#34A4DA" transform="matrix(1.00, 0.00, -0.00, -1.00, 448.2, 705.0)">I</text><text xml:space="preserve" font-family="DINCondensed-Bold" font-weight="bold" font-size="48.0" fill="#34A4DA" transform="matrix(1.00, 0.00, -0.00, -1.00, 458.0, 705.0)">N</text><text xml:space="preserve" font-family="DINCondensed-Bold" font-weight="bold" font-size="48.0" fill="#34A4DA" transform="matrix(1.00, 0.00, -0.00, -1.00, 479.3, 705.0)">C</text><text xml:space="preserve" font-family="DINCondensed-Bold" font-weight="bold" font-size="48.0" fill="#34A4DA" transform="matrix(1.00, 0.00, -0.00, -1.00, 498.9, 705.0)">I</text><text xml:space="preserve" font-family="DINCondensed-Bold" font-weight="bold" font-size="48.0" fill="#34A4DA" transform="matrix(1.00, 0.00, -0.00, -1.00, 508.7, 705.0)">P</text><text xml:space="preserve" font-family="DINCondensed-Bold" font-weight="bold" font-size="48.0" fill="#34A4DA" transform="matrix(1.00, 0.00, -0.00, -1.00, 528.2, 705.0)">L</text><text xml:space="preserve" font-family="DINCondensed-Bold" font-weight="bold" font-size="48.0" fill="#34A4DA" transform="matrix(1.00, 0.00, -0.00, -1.00, 546.0, 705.0)">E</text></g></svg>