<?xml version="1.0" encoding="UTF-8" standalone="no"?><svg xmlns="http://www.w3.org/2000/svg" xmlns:xlink="http://www.w3.org/1999/xlink" clip-rule="evenodd" stroke-miterlimit="4.00" viewBox="0 0 1024 768"><desc>SVG generated by Keynote</desc><defs></defs><g transform="matrix(1.00, 0.00, -0.00, -1.00, 0.0, 768.0)"><path d="M 0.0 768.0 L 1024.0 768.0 L 1024.0 0.0 L 0.0 0.0 Z M 0.0 768.0 " fill="#FFFFFF"></path><path d="M 36.0 346.0 L 831.1 346.0 L 831.1 313.0 L 36.0 313.0 Z M 36.0 346.0 " fill="#FFE988"></path><text xml:space="preserve" font-family="Monaco" font-size="25.0" fill="#285E99" transform="matrix(1.00, 0.00, -0.00, -1.00, 36.0, 618.0)">c</text><text xml:space="preserve" font-family="Monaco" font-size="25.0" fill="#285E99" transform="matrix(1.00, 0.00, -0.00, -1.00, 51.0, 618.0)">l</text><text xml:space="preserve" font-family="Monaco" font-size="25.0" fill="#285E99" transform="matrix(1.00, 0.00, -0.00, -1.00, 66.0, 618.0)">a</text><text xml:space="preserve" font-family="Monaco" font-size="25.0" fill="#285E99" transform="matrix(1.00, 0.00, -0.00, -1.00, 81.0, 618.0)">s</text><text xml:space="preserve" font-family="Monaco" font-size="25.0" fill="#285E99" transform="matrix(1.00, 0.00, -0.00, -1.00, 96.0, 618.0)">s</text><text xml:space="preserve" font-family="Monaco" font-size="25.0" fill="#000000" transform="matrix(1.00, 0.00, -0.00, -1.00, 111.0, 618.0)"> </text><text xml:space="preserve" font-family="Monaco" font-size="25.0" fill="#000000" transform="matrix(1.00, 0.00, -0.00, -1.00, 126.0, 618.0)">P</text><text xml:space="preserve" font-family="Monaco" font-size="25.0" fill="#000000" transform="matrix(1.00, 0.00, -0.00, -1.00, 141.0, 618.0)">r</text><text xml:space="preserve" font-family="Monaco" font-size="25.0" fill="#000000" transform="matrix(1.00, 0.00, -0.00, -1.00, 156.0, 618.0)">o</text><text xml:space="preserve" font-family="Monaco" font-size="25.0" fill="#000000" transform="matrix(1.00, 0.00, -0.00, -1.00, 171.0, 618.0)">d</text><text xml:space="preserve" font-family="Monaco" font-size="25.0" fill="#000000" transform="matrix(1.00, 0.00, -0.00, -1.00, 186.0, 618.0)">u</text><text xml:space="preserve" font-family="Monaco" font-size="25.0" fill="#000000" transform="matrix(1.00, 0.00, -0.00, -1.00, 201.0, 618.0)">c</text><text xml:space="preserve" font-family="Monaco" font-size="25.0" fill="#000000" transform="matrix(1.00, 0.00, -0.00, -1.00, 216.0, 618.0)">t</text><g><clipPath id="clip-102"><path d="M 125.0 613.6 L 231.0 613.6 L 231.0 617.4 L 125.0 617.4 Z M 125.0 613.6 "></path></clipPath><g clip-path="url(#clip-102)"><path d="M 94.0 31.5 L 199.0 31.5 " fill="none" stroke="#000000" stroke-width="1.89" stroke-miterlimit="0.00" transform="matrix(1.00, 0.00, 0.00, -1.00, 32.0, 647.0)"></path></g></g><text xml:space="preserve" font-family="Monaco" font-size="25.0" fill="#000000" transform="matrix(1.00, 0.00, -0.00, -1.00, 36.0, 585.0)"> </text><text xml:space="preserve" font-family="Monaco" font-size="25.0" fill="#000000" transform="matrix(1.00, 0.00, -0.00, -1.00, 51.0, 585.0)"> </text><text xml:space="preserve" font-family="Monaco" font-size="25.0" fill="#285E99" transform="matrix(1.00, 0.00, -0.00, -1.00, 66.0, 585.0)">a</text><text xml:space="preserve" font-family="Monaco" font-size="25.0" fill="#285E99" transform="matrix(1.00, 0.00, -0.00, -1.00, 81.0, 585.0)">t</text><text xml:space="preserve" font-family="Monaco" font-size="25.0" fill="#285E99" transform="matrix(1.00, 0.00, -0.00, -1.00, 96.0, 585.0)">t</text><text xml:space="preserve" font-family="Monaco" font-size="25.0" fill="#285E99" transform="matrix(1.00, 0.00, -0.00, -1.00, 111.0, 585.0)">r</text><text xml:space="preserve" font-family="Monaco" font-size="25.0" fill="#285E99" transform="matrix(1.00, 0.00, -0.00, -1.00, 126.0, 585.0)">_</text><text xml:space="preserve" font-family="Monaco" font-size="25.0" fill="#285E99" transform="matrix(1.00, 0.00, -0.00, -1.00, 141.0, 585.0)">a</text><text xml:space="preserve" font-family="Monaco" font-size="25.0" fill="#285E99" transform="matrix(1.00, 0.00, -0.00, -1.00, 156.0, 585.0)">c</text><text xml:space="preserve" font-family="Monaco" font-size="25.0" fill="#285E99" transform="matrix(1.00, 0.00, -0.00, -1.00, 171.0, 585.0)">c</text><text xml:space="preserve" font-family="Monaco" font-size="25.0" fill="#285E99" transform="matrix(1.00, 0.00, -0.00, -1.00, 186.0, 585.0)">e</text><text xml:space="preserve" font-family="Monaco" font-size="25.0" fill="#285E99" transform="matrix(1.00, 0.00, -0.00, -1.00, 201.0, 585.0)">s</text><text xml:space="preserve" font-family="Monaco" font-size="25.0" fill="#285E99" transform="matrix(1.00, 0.00, -0.00, -1.00, 216.1, 585.0)">s</text><text xml:space="preserve" font-family="Monaco" font-size="25.0" fill="#285E99" transform="matrix(1.00, 0.00, -0.00, -1.00, 231.1, 585.0)">o</text><text xml:space="preserve" font-family="Monaco" font-size="25.0" fill="#285E99" transform="matrix(1.00, 0.00, -0.00, -1.00, 246.1, 585.0)">r</text><text xml:space="preserve" font-family="Monaco" font-size="25.0" fill="#000000" transform="matrix(1.00, 0.00, -0.00, -1.00, 261.0, 585.0)"> </text><text xml:space="preserve" font-family="Monaco" font-size="25.0" fill="#5DA602" transform="matrix(1.00, 0.00, -0.00, -1.00, 276.0, 585.0)">:</text><text xml:space="preserve" font-family="Monaco" font-size="25.0" fill="#5DA602" transform="matrix(1.00, 0.00, -0.00, -1.00, 291.0, 585.0)">n</text><text xml:space="preserve" font-family="Monaco" font-size="25.0" fill="#5DA602" transform="matrix(1.00, 0.00, -0.00, -1.00, 306.0, 585.0)">a</text><text xml:space="preserve" font-family="Monaco" font-size="25.0" fill="#5DA602" transform="matrix(1.00, 0.00, -0.00, -1.00, 321.1, 585.0)">m</text><text xml:space="preserve" font-family="Monaco" font-size="25.0" fill="#5DA602" transform="matrix(1.00, 0.00, -0.00, -1.00, 336.1, 585.0)">e</text><text xml:space="preserve" font-family="Monaco" font-size="25.0" fill="#000000" transform="matrix(1.00, 0.00, -0.00, -1.00, 351.1, 585.0)">,</text><text xml:space="preserve" font-family="Monaco" font-size="25.0" fill="#000000" transform="matrix(1.00, 0.00, -0.00, -1.00, 366.1, 585.0)"> </text><text xml:space="preserve" font-family="Monaco" font-size="25.0" fill="#5DA602" transform="matrix(1.00, 0.00, -0.00, -1.00, 381.1, 585.0)">:</text><text xml:space="preserve" font-family="Monaco" font-size="25.0" fill="#5DA602" transform="matrix(1.00, 0.00, -0.00, -1.00, 396.1, 585.0)">p</text><text xml:space="preserve" font-family="Monaco" font-size="25.0" fill="#5DA602" transform="matrix(1.00, 0.00, -0.00, -1.00, 411.1, 585.0)">r</text><text xml:space="preserve" font-family="Monaco" font-size="25.0" fill="#5DA602" transform="matrix(1.00, 0.00, -0.00, -1.00, 426.1, 585.0)">i</text><text xml:space="preserve" font-family="Monaco" font-size="25.0" fill="#5DA602" transform="matrix(1.00, 0.00, -0.00, -1.00, 441.1, 585.0)">c</text><text xml:space="preserve" font-family="Monaco" font-size="25.0" fill="#5DA602" transform="matrix(1.00, 0.00, -0.00, -1.00, 456.1, 585.0)">e</text><text xml:space="preserve" font-family="Monaco" font-size="25.0" fill="#000000" transform="matrix(1.00, 0.00, -0.00, -1.00, 36.0, 552.0)"> </text><text xml:space="preserve" font-family="Monaco" font-size="25.0" fill="#000000" transform="matrix(1.00, 0.00, -0.00, -1.00, 51.0, 552.0)"> </text><text xml:space="preserve" font-family="Monaco" font-size="25.0" fill="#000000" transform="matrix(1.00, 0.00, -0.00, -1.00, 36.0, 519.0)"> </text><text xml:space="preserve" font-family="Monaco" font-size="25.0" fill="#000000" transform="matrix(1.00, 0.00, -0.00, -1.00, 51.0, 519.0)"> </text><text xml:space="preserve" font-family="Monaco" font-size="25.0" fill="#285E99" transform="matrix(1.00, 0.00, -0.00, -1.00, 66.0, 519.0)">d</text><text xml:space="preserve" font-family="Monaco" font-size="25.0" fill="#285E99" transform="matrix(1.00, 0.00, -0.00, -1.00, 81.0, 519.0)">e</text><text xml:space="preserve" font-family="Monaco" font-size="25.0" fill="#285E99" transform="matrix(1.00, 0.00, -0.00, -1.00, 96.0, 519.0)">f</text><text xml:space="preserve" font-family="Monaco" font-size="25.0" fill="#000000" transform="matrix(1.00, 0.00, -0.00, -1.00, 111.0, 519.0)"> </text><text xml:space="preserve" font-family="Monaco" font-size="25.0" fill="#000000" transform="matrix(1.00, 0.00, -0.00, -1.00, 126.0, 519.0)">i</text><text xml:space="preserve" font-family="Monaco" font-size="25.0" fill="#000000" transform="matrix(1.00, 0.00, -0.00, -1.00, 141.0, 519.0)">n</text><text xml:space="preserve" font-family="Monaco" font-size="25.0" fill="#000000" transform="matrix(1.00, 0.00, -0.00, -1.00, 156.0, 519.0)">i</text><text xml:space="preserve" font-family="Monaco" font-size="25.0" fill="#000000" transform="matrix(1.00, 0.00, -0.00, -1.00, 171.0, 519.0)">t</text><text xml:space="preserve" font-family="Monaco" font-size="25.0" fill="#000000" transform="matrix(1.00, 0.00, -0.00, -1.00, 186.0, 519.0)">i</text><text xml:space="preserve" font-family="Monaco" font-size="25.0" fill="#000000" transform="matrix(1.00, 0.00, -0.00, -1.00, 201.0, 519.0)">a</text><text xml:space="preserve" font-family="Monaco" font-size="25.0" fill="#000000" transform="matrix(1.00, 0.00, -0.00, -1.00, 216.0, 519.0)">l</text><text xml:space="preserve" font-family="Monaco" font-size="25.0" fill="#000000" transform="matrix(1.00, 0.00, -0.00, -1.00, 231.1, 519.0)">i</text><text xml:space="preserve" font-family="Monaco" font-size="25.0" fill="#000000" transform="matrix(1.00, 0.00, -0.00, -1.00, 246.1, 519.0)">z</text><text xml:space="preserve" font-family="Monaco" font-size="25.0" fill="#000000" transform="matrix(1.00, 0.00, -0.00, -1.00, 261.1, 519.0)">e</text><text xml:space="preserve" font-family="Monaco" font-size="25.0" fill="#000000" transform="matrix(1.00, 0.00, -0.00, -1.00, 276.1, 519.0)">(</text><text xml:space="preserve" font-family="Monaco" font-size="25.0" fill="#285E99" transform="matrix(1.00, 0.00, -0.00, -1.00, 291.0, 519.0)">i</text><text xml:space="preserve" font-family="Monaco" font-size="25.0" fill="#285E99" transform="matrix(1.00, 0.00, -0.00, -1.00, 306.0, 519.0)">d</text><text xml:space="preserve" font-family="Monaco" font-size="25.0" fill="#000000" transform="matrix(1.00, 0.00, -0.00, -1.00, 321.0, 519.0)">,</text><text xml:space="preserve" font-family="Monaco" font-size="25.0" fill="#000000" transform="matrix(1.00, 0.00, -0.00, -1.00, 336.1, 519.0)"> </text><text xml:space="preserve" font-family="Monaco" font-size="25.0" fill="#000000" transform="matrix(1.00, 0.00, -0.00, -1.00, 351.1, 519.0)">p</text><text xml:space="preserve" font-family="Monaco" font-size="25.0" fill="#000000" transform="matrix(1.00, 0.00, -0.00, -1.00, 366.1, 519.0)">r</text><text xml:space="preserve" font-family="Monaco" font-size="25.0" fill="#000000" transform="matrix(1.00, 0.00, -0.00, -1.00, 381.1, 519.0)">i</text><text xml:space="preserve" font-family="Monaco" font-size="25.0" fill="#000000" transform="matrix(1.00, 0.00, -0.00, -1.00, 396.1, 519.0)">c</text><text xml:space="preserve" font-family="Monaco" font-size="25.0" fill="#000000" transform="matrix(1.00, 0.00, -0.00, -1.00, 411.1, 519.0)">e</text><text xml:space="preserve" font-family="Monaco" font-size="25.0" fill="#000000" transform="matrix(1.00, 0.00, -0.00, -1.00, 426.1, 519.0)">)</text><text xml:space="preserve" font-family="Monaco" font-size="25.0" fill="#000000" transform="matrix(1.00, 0.00, -0.00, -1.00, 36.0, 486.0)"> </text><text xml:space="preserve" font-family="Monaco" font-size="25.0" fill="#000000" transform="matrix(1.00, 0.00, -0.00, -1.00, 51.0, 486.0)"> </text><text xml:space="preserve" font-family="Monaco" font-size="25.0" fill="#000000" transform="matrix(1.00, 0.00, -0.00, -1.00, 66.0, 486.0)"> </text><text xml:space="preserve" font-family="Monaco" font-size="25.0" fill="#000000" transform="matrix(1.00, 0.00, -0.00, -1.00, 81.0, 486.0)"> </text><text xml:space="preserve" font-family="Monaco" font-size="25.0" fill="#000000" transform="matrix(1.00, 0.00, -0.00, -1.00, 96.0, 486.0)">@</text><text xml:space="preserve" font-family="Monaco" font-size="25.0" fill="#000000" transform="matrix(1.00, 0.00, -0.00, -1.00, 111.0, 486.0)">i</text><text xml:space="preserve" font-family="Monaco" font-size="25.0" fill="#000000" transform="matrix(1.00, 0.00, -0.00, -1.00, 126.0, 486.0)">d</text><text xml:space="preserve" font-family="Monaco" font-size="25.0" fill="#000000" transform="matrix(1.00, 0.00, -0.00, -1.00, 141.0, 486.0)"> </text><text xml:space="preserve" font-family="Monaco" font-size="25.0" fill="#D97000" transform="matrix(1.00, 0.00, -0.00, -1.00, 156.0, 486.0)">=</text><text xml:space="preserve" font-family="Monaco" font-size="25.0" fill="#000000" transform="matrix(1.00, 0.00, -0.00, -1.00, 171.0, 486.0)"> </text><text xml:space="preserve" font-family="Monaco" font-size="25.0" fill="#285E99" transform="matrix(1.00, 0.00, -0.00, -1.00, 186.0, 486.0)">i</text><text xml:space="preserve" font-family="Monaco" font-size="25.0" fill="#285E99" transform="matrix(1.00, 0.00, -0.00, -1.00, 201.0, 486.0)">d</text><text xml:space="preserve" font-family="Monaco" font-size="25.0" fill="#000000" transform="matrix(1.00, 0.00, -0.00, -1.00, 36.0, 453.0)"> </text><text xml:space="preserve" font-family="Monaco" font-size="25.0" fill="#000000" transform="matrix(1.00, 0.00, -0.00, -1.00, 51.0, 453.0)"> </text><text xml:space="preserve" font-family="Monaco" font-size="25.0" fill="#000000" transform="matrix(1.00, 0.00, -0.00, -1.00, 66.0, 453.0)"> </text><text xml:space="preserve" font-family="Monaco" font-size="25.0" fill="#000000" transform="matrix(1.00, 0.00, -0.00, -1.00, 81.0, 453.0)"> </text><text xml:space="preserve" font-family="Monaco" font-size="25.0" fill="#000000" transform="matrix(1.00, 0.00, -0.00, -1.00, 96.0, 453.0)">@</text><text xml:space="preserve" font-family="Monaco" font-size="25.0" fill="#000000" transform="matrix(1.00, 0.00, -0.00, -1.00, 111.0, 453.0)">p</text><text xml:space="preserve" font-family="Monaco" font-size="25.0" fill="#000000" transform="matrix(1.00, 0.00, -0.00, -1.00, 126.0, 453.0)">r</text><text xml:space="preserve" font-family="Monaco" font-size="25.0" fill="#000000" transform="matrix(1.00, 0.00, -0.00, -1.00, 141.0, 453.0)">i</text><text xml:space="preserve" font-family="Monaco" font-size="25.0" fill="#000000" transform="matrix(1.00, 0.00, -0.00, -1.00, 156.0, 453.0)">c</text><text xml:space="preserve" font-family="Monaco" font-size="25.0" fill="#000000" transform="matrix(1.00, 0.00, -0.00, -1.00, 171.0, 453.0)">e</text><text xml:space="preserve" font-family="Monaco" font-size="25.0" fill="#000000" transform="matrix(1.00, 0.00, -0.00, -1.00, 186.0, 453.0)"> </text><text xml:space="preserve" font-family="Monaco" font-size="25.0" fill="#D97000" transform="matrix(1.00, 0.00, -0.00, -1.00, 201.0, 453.0)">=</text><text xml:space="preserve" font-family="Monaco" font-size="25.0" fill="#000000" transform="matrix(1.00, 0.00, -0.00, -1.00, 216.0, 453.0)"> </text><text xml:space="preserve" font-family="Monaco" font-size="25.0" fill="#000000" transform="matrix(1.00, 0.00, -0.00, -1.00, 231.0, 453.0)">p</text><text xml:space="preserve" font-family="Monaco" font-size="25.0" fill="#000000" transform="matrix(1.00, 0.00, -0.00, -1.00, 246.0, 453.0)">r</text><text xml:space="preserve" font-family="Monaco" font-size="25.0" fill="#000000" transform="matrix(1.00, 0.00, -0.00, -1.00, 261.0, 453.0)">i</text><text xml:space="preserve" font-family="Monaco" font-size="25.0" fill="#000000" transform="matrix(1.00, 0.00, -0.00, -1.00, 276.0, 453.0)">c</text><text xml:space="preserve" font-family="Monaco" font-size="25.0" fill="#000000" transform="matrix(1.00, 0.00, -0.00, -1.00, 291.1, 453.0)">e</text><text xml:space="preserve" font-family="Monaco" font-size="25.0" fill="#000000" transform="matrix(1.00, 0.00, -0.00, -1.00, 36.0, 420.0)"> </text><text xml:space="preserve" font-family="Monaco" font-size="25.0" fill="#000000" transform="matrix(1.00, 0.00, -0.00, -1.00, 51.0, 420.0)"> </text><text xml:space="preserve" font-family="Monaco" font-size="25.0" fill="#285E99" transform="matrix(1.00, 0.00, -0.00, -1.00, 66.0, 420.0)">e</text><text xml:space="preserve" font-family="Monaco" font-size="25.0" fill="#285E99" transform="matrix(1.00, 0.00, -0.00, -1.00, 81.0, 420.0)">n</text><text xml:space="preserve" font-family="Monaco" font-size="25.0" fill="#285E99" transform="matrix(1.00, 0.00, -0.00, -1.00, 96.0, 420.0)">d</text><text xml:space="preserve" font-family="Monaco" font-size="25.0" fill="#000000" transform="matrix(1.00, 0.00, -0.00, -1.00, 36.0, 387.0)"> </text><text xml:space="preserve" font-family="Monaco" font-size="25.0" fill="#000000" transform="matrix(1.00, 0.00, -0.00, -1.00, 51.0, 387.0)"> </text><text xml:space="preserve" font-family="Monaco" font-size="25.0" fill="#000000" transform="matrix(1.00, 0.00, -0.00, -1.00, 36.0, 354.0)"> </text><text xml:space="preserve" font-family="Monaco" font-size="25.0" fill="#000000" transform="matrix(1.00, 0.00, -0.00, -1.00, 51.0, 354.0)"> </text><text xml:space="preserve" font-family="Monaco" font-size="25.0" fill="#285E99" transform="matrix(1.00, 0.00, -0.00, -1.00, 66.0, 354.0)">d</text><text xml:space="preserve" font-family="Monaco" font-size="25.0" fill="#285E99" transform="matrix(1.00, 0.00, -0.00, -1.00, 81.0, 354.0)">e</text><text xml:space="preserve" font-family="Monaco" font-size="25.0" fill="#285E99" transform="matrix(1.00, 0.00, -0.00, -1.00, 96.0, 354.0)">f</text><text xml:space="preserve" font-family="Monaco" font-size="25.0" fill="#000000" transform="matrix(1.00, 0.00, -0.00, -1.00, 111.0, 354.0)"> </text><text xml:space="preserve" font-family="Monaco" font-size="25.0" fill="#000000" transform="matrix(1.00, 0.00, -0.00, -1.00, 126.0, 354.0)">u</text><text xml:space="preserve" font-family="Monaco" font-size="25.0" fill="#000000" transform="matrix(1.00, 0.00, -0.00, -1.00, 141.0, 354.0)">p</text><text xml:space="preserve" font-family="Monaco" font-size="25.0" fill="#000000" transform="matrix(1.00, 0.00, -0.00, -1.00, 156.0, 354.0)">d</text><text xml:space="preserve" font-family="Monaco" font-size="25.0" fill="#000000" transform="matrix(1.00, 0.00, -0.00, -1.00, 171.0, 354.0)">a</text><text xml:space="preserve" font-family="Monaco" font-size="25.0" fill="#000000" transform="matrix(1.00, 0.00, -0.00, -1.00, 186.0, 354.0)">t</text><text xml:space="preserve" font-family="Monaco" font-size="25.0" fill="#000000" transform="matrix(1.00, 0.00, -0.00, -1.00, 201.0, 354.0)">e</text><text xml:space="preserve" font-family="Monaco" font-size="25.0" fill="#000000" transform="matrix(1.00, 0.00, -0.00, -1.00, 216.0, 354.0)">_</text><text xml:space="preserve" font-family="Monaco" font-size="25.0" fill="#000000" transform="matrix(1.00, 0.00, -0.00, -1.00, 231.1, 354.0)">p</text><text xml:space="preserve" font-family="Monaco" font-size="25.0" fill="#000000" transform="matrix(1.00, 0.00, -0.00, -1.00, 246.1, 354.0)">r</text><text xml:space="preserve" font-family="Monaco" font-size="25.0" fill="#000000" transform="matrix(1.00, 0.00, -0.00, -1.00, 261.1, 354.0)">i</text><text xml:space="preserve" font-family="Monaco" font-size="25.0" fill="#000000" transform="matrix(1.00, 0.00, -0.00, -1.00, 276.1, 354.0)">c</text><text xml:space="preserve" font-family="Monaco" font-size="25.0" fill="#000000" transform="matrix(1.00, 0.00, -0.00, -1.00, 291.1, 354.0)">e</text><text xml:space="preserve" font-family="Monaco" font-size="25.0" fill="#000000" transform="matrix(1.00, 0.00, -0.00, -1.00, 36.0, 321.0)"> </text><text xml:space="preserve" font-family="Monaco" font-size="25.0" fill="#000000" transform="matrix(1.00, 0.00, -0.00, -1.00, 51.0, 321.0)"> </text><text xml:space="preserve" font-family="Monaco" font-size="25.0" fill="#000000" transform="matrix(1.00, 0.00, -0.00, -1.00, 66.0, 321.0)"> </text><text xml:space="preserve" font-family="Monaco" font-size="25.0" fill="#000000" transform="matrix(1.00, 0.00, -0.00, -1.00, 81.0, 321.0)"> </text><text xml:space="preserve" font-family="Monaco" font-size="25.0" fill="#000000" transform="matrix(1.00, 0.00, -0.00, -1.00, 96.0, 321.0)">@</text><text xml:space="preserve" font-family="Monaco" font-size="25.0" fill="#000000" transform="matrix(1.00, 0.00, -0.00, -1.00, 111.0, 321.0)">p</text><text xml:space="preserve" font-family="Monaco" font-size="25.0" fill="#000000" transform="matrix(1.00, 0.00, -0.00, -1.00, 126.0, 321.0)">r</text><text xml:space="preserve" font-family="Monaco" font-size="25.0" fill="#000000" transform="matrix(1.00, 0.00, -0.00, -1.00, 141.0, 321.0)">i</text><text xml:space="preserve" font-family="Monaco" font-size="25.0" fill="#000000" transform="matrix(1.00, 0.00, -0.00, -1.00, 156.0, 321.0)">c</text><text xml:space="preserve" font-family="Monaco" font-size="25.0" fill="#000000" transform="matrix(1.00, 0.00, -0.00, -1.00, 171.0, 321.0)">e</text><text xml:space="preserve" font-family="Monaco" font-size="25.0" fill="#000000" transform="matrix(1.00, 0.00, -0.00, -1.00, 186.0, 321.0)"> </text><text xml:space="preserve" font-family="Monaco" font-size="25.0" fill="#D97000" transform="matrix(1.00, 0.00, -0.00, -1.00, 201.0, 321.0)">=</text><text xml:space="preserve" font-family="Monaco" font-size="25.0" fill="#000000" transform="matrix(1.00, 0.00, -0.00, -1.00, 216.0, 321.0)"> </text><text xml:space="preserve" font-family="Monaco" font-size="25.0" fill="#000000" transform="matrix(1.00, 0.00, -0.00, -1.00, 231.0, 321.0)">P</text><text xml:space="preserve" font-family="Monaco" font-size="25.0" fill="#000000" transform="matrix(1.00, 0.00, -0.00, -1.00, 246.0, 321.0)">r</text><text xml:space="preserve" font-family="Monaco" font-size="25.0" fill="#000000" transform="matrix(1.00, 0.00, -0.00, -1.00, 261.0, 321.0)">o</text><text xml:space="preserve" font-family="Monaco" font-size="25.0" fill="#000000" transform="matrix(1.00, 0.00, -0.00, -1.00, 276.0, 321.0)">d</text><text xml:space="preserve" font-family="Monaco" font-size="25.0" fill="#000000" transform="matrix(1.00, 0.00, -0.00, -1.00, 291.1, 321.0)">u</text><text xml:space="preserve" font-family="Monaco" font-size="25.0" fill="#000000" transform="matrix(1.00, 0.00, -0.00, -1.00, 306.1, 321.0)">c</text><text xml:space="preserve" font-family="Monaco" font-size="25.0" fill="#000000" transform="matrix(1.00, 0.00, -0.00, -1.00, 321.1, 321.0)">t</text><text xml:space="preserve" font-family="Monaco" font-size="25.0" fill="#000000" transform="matrix(1.00, 0.00, -0.00, -1.00, 336.1, 321.0)">P</text><text xml:space="preserve" font-family="Monaco" font-size="25.0" fill="#000000" transform="matrix(1.00, 0.00, -0.00, -1.00, 351.1, 321.0)">r</text><text xml:space="preserve" font-family="Monaco" font-size="25.0" fill="#000000" transform="matrix(1.00, 0.00, -0.00, -1.00, 366.1, 321.0)">i</text><text xml:space="preserve" font-family="Monaco" font-size="25.0" fill="#000000" transform="matrix(1.00, 0.00, -0.00, -1.00, 381.1, 321.0)">c</text><text xml:space="preserve" font-family="Monaco" font-size="25.0" fill="#000000" transform="matrix(1.00, 0.00, -0.00, -1.00, 396.1, 321.0)">e</text><text xml:space="preserve" font-family="Monaco" font-size="25.0" fill="#000000" transform="matrix(1.00, 0.00, -0.00, -1.00, 411.1, 321.0)">S</text><text xml:space="preserve" font-family="Monaco" font-size="25.0" fill="#000000" transform="matrix(1.00, 0.00, -0.00, -1.00, 426.1, 321.0)">e</text><text xml:space="preserve" font-family="Monaco" font-size="25.0" fill="#000000" transform="matrix(1.00, 0.00, -0.00, -1.00, 441.1, 321.0)">r</text><text xml:space="preserve" font-family="Monaco" font-size="25.0" fill="#000000" transform="matrix(1.00, 0.00, -0.00, -1.00, 456.1, 321.0)">v</text><text xml:space="preserve" font-family="Monaco" font-size="25.0" fill="#000000" transform="matrix(1.00, 0.00, -0.00, -1.00, 471.1, 321.0)">i</text><text xml:space="preserve" font-family="Monaco" font-size="25.0" fill="#000000" transform="matrix(1.00, 0.00, -0.00, -1.00, 486.1, 321.0)">c</text><text xml:space="preserve" font-family="Monaco" font-size="25.0" fill="#000000" transform="matrix(1.00, 0.00, -0.00, -1.00, 501.1, 321.0)">e</text><text xml:space="preserve" font-family="Monaco" font-size="25.0" fill="#D97000" transform="matrix(1.00, 0.00, -0.00, -1.00, 516.1, 321.0)">.</text><text xml:space="preserve" font-family="Monaco" font-size="25.0" fill="#000000" transform="matrix(1.00, 0.00, -0.00, -1.00, 531.1, 321.0)">n</text><text xml:space="preserve" font-family="Monaco" font-size="25.0" fill="#000000" transform="matrix(1.00, 0.00, -0.00, -1.00, 546.1, 321.0)">e</text><text xml:space="preserve" font-family="Monaco" font-size="25.0" fill="#000000" transform="matrix(1.00, 0.00, -0.00, -1.00, 561.1, 321.0)">w</text><text xml:space="preserve" font-family="Monaco" font-size="25.0" fill="#000000" transform="matrix(1.00, 0.00, -0.00, -1.00, 576.1, 321.0)">(</text><text xml:space="preserve" font-family="Monaco" font-size="25.0" fill="#285E99" transform="matrix(1.00, 0.00, -0.00, -1.00, 591.1, 321.0)">s</text><text xml:space="preserve" font-family="Monaco" font-size="25.0" fill="#285E99" transform="matrix(1.00, 0.00, -0.00, -1.00, 606.1, 321.0)">e</text><text xml:space="preserve" font-family="Monaco" font-size="25.0" fill="#285E99" transform="matrix(1.00, 0.00, -0.00, -1.00, 621.1, 321.0)">l</text><text xml:space="preserve" font-family="Monaco" font-size="25.0" fill="#285E99" transform="matrix(1.00, 0.00, -0.00, -1.00, 636.1, 321.0)">f</text><text xml:space="preserve" font-family="Monaco" font-size="25.0" fill="#000000" transform="matrix(1.00, 0.00, -0.00, -1.00, 651.1, 321.0)">)</text><text xml:space="preserve" font-family="Monaco" font-size="25.0" fill="#D97000" transform="matrix(1.00, 0.00, -0.00, -1.00, 666.1, 321.0)">.</text><text xml:space="preserve" font-family="Monaco" font-size="25.0" fill="#000000" transform="matrix(1.00, 0.00, -0.00, -1.00, 681.1, 321.0)">g</text><text xml:space="preserve" font-family="Monaco" font-size="25.0" fill="#000000" transform="matrix(1.00, 0.00, -0.00, -1.00, 696.1, 321.0)">e</text><text xml:space="preserve" font-family="Monaco" font-size="25.0" fill="#000000" transform="matrix(1.00, 0.00, -0.00, -1.00, 711.1, 321.0)">t</text><text xml:space="preserve" font-family="Monaco" font-size="25.0" fill="#000000" transform="matrix(1.00, 0.00, -0.00, -1.00, 726.1, 321.0)">_</text><text xml:space="preserve" font-family="Monaco" font-size="25.0" fill="#000000" transform="matrix(1.00, 0.00, -0.00, -1.00, 741.1, 321.0)">p</text><text xml:space="preserve" font-family="Monaco" font-size="25.0" fill="#000000" transform="matrix(1.00, 0.00, -0.00, -1.00, 756.1, 321.0)">r</text><text xml:space="preserve" font-family="Monaco" font-size="25.0" fill="#000000" transform="matrix(1.00, 0.00, -0.00, -1.00, 771.1, 321.0)">i</text><text xml:space="preserve" font-family="Monaco" font-size="25.0" fill="#000000" transform="matrix(1.00, 0.00, -0.00, -1.00, 786.1, 321.0)">c</text><text xml:space="preserve" font-family="Monaco" font-size="25.0" fill="#000000" transform="matrix(1.00, 0.00, -0.00, -1.00, 801.1, 321.0)">e</text><text xml:space="preserve" font-family="Monaco" font-size="25.0" fill="#000000" transform="matrix(1.00, 0.00, -0.00, -1.00, 36.0, 288.0)"> </text><text xml:space="preserve" font-family="Monaco" font-size="25.0" fill="#000000" transform="matrix(1.00, 0.00, -0.00, -1.00, 51.0, 288.0)"> </text><text xml:space="preserve" font-family="Monaco" font-size="25.0" fill="#285E99" transform="matrix(1.00, 0.00, -0.00, -1.00, 66.0, 288.0)">e</text><text xml:space="preserve" font-family="Monaco" font-size="25.0" fill="#285E99" transform="matrix(1.00, 0.00, -0.00, -1.00, 81.0, 288.0)">n</text><text xml:space="preserve" font-family="Monaco" font-size="25.0" fill="#285E99" transform="matrix(1.00, 0.00, -0.00, -1.00, 96.0, 288.0)">d</text><text xml:space="preserve" font-family="Monaco" font-size="25.0" fill="#285E99" transform="matrix(1.00, 0.00, -0.00, -1.00, 36.0, 255.0)">e</text><text xml:space="preserve" font-family="Monaco" font-size="25.0" fill="#285E99" transform="matrix(1.00, 0.00, -0.00, -1.00, 51.0, 255.0)">n</text><text xml:space="preserve" font-family="Monaco" font-size="25.0" fill="#285E99" transform="matrix(1.00, 0.00, -0.00, -1.00, 66.0, 255.0)">d</text><text xml:space="preserve" font-family="DINCondensed-Bold" font-weight="bold" font-size="48.0" fill="#34A4DA" transform="matrix(1.00, 0.00, -0.00, -1.00, 36.0, 705.0)">S</text><text xml:space="preserve" font-family="DINCondensed-Bold" font-weight="bold" font-size="48.0" fill="#34A4DA" transform="matrix(1.00, 0.00, -0.00, -1.00, 55.5, 705.0)">I</text><text xml:space="preserve" font-family="DINCondensed-Bold" font-weight="bold" font-size="48.0" fill="#34A4DA" transform="matrix(1.00, 0.00, -0.00, -1.00, 65.3, 705.0)">N</text><text xml:space="preserve" font-family="DINCondensed-Bold" font-weight="bold" font-size="48.0" fill="#34A4DA" transform="matrix(1.00, 0.00, -0.00, -1.00, 86.6, 705.0)">G</text><text xml:space="preserve" font-family="DINCondensed-Bold" font-weight="bold" font-size="48.0" fill="#34A4DA" transform="matrix(1.00, 0.00, -0.00, -1.00, 107.0, 705.0)">L</text><text xml:space="preserve" font-family="DINCondensed-Bold" font-weight="bold" font-size="48.0" fill="#34A4DA" transform="matrix(1.00, 0.00, -0.00, -1.00, 124.8, 705.0)">E</text><text xml:space="preserve" font-family="DINCondensed-Bold" font-weight="bold" font-size="48.0" fill="#34A4DA" transform="matrix(1.00, 0.00, -0.00, -1.00, 142.6, 705.0)"> </text><text xml:space="preserve" font-family="DINCondensed-Bold" font-weight="bold" font-size="48.0" fill="#34A4DA" transform="matrix(1.00, 0.00, -0.00, -1.00, 151.5, 705.0)">R</text><text xml:space="preserve" font-family="DINCondensed-Bold" font-weight="bold" font-size="48.0" fill="#34A4DA" transform="matrix(1.00, 0.00, -0.00, -1.00, 171.9, 705.0)">E</text><text xml:space="preserve" font-family="DINCondensed-Bold" font-weight="bold" font-size="48.0" fill="#34A4DA" transform="matrix(1.00, 0.00, -0.00, -1.00, 189.7, 705.0)">S</text><text xml:space="preserve" font-family="DINCondensed-Bold" font-weight="bold" font-size="48.0" fill="#34A4DA" transform="matrix(1.00, 0.00, -0.00, -1.00, 209.2, 705.0)">P</text><text xml:space="preserve" font-family="DINCondensed-Bold" font-weight="bold" font-size="48.0" fill="#34A4DA" transform="matrix(1.00, 0.00, -0.00, -1.00, 228.7, 705.0)">O</text><text xml:space="preserve" font-family="DINCondensed-Bold" font-weight="bold" font-size="48.0" fill="#34A4DA" transform="matrix(1.00, 0.00, -0.00, -1.00, 249.2, 705.0)">N</text><text xml:space="preserve" font-family="DINCondensed-Bold" font-weight="bold" font-size="48.0" fill="#34A4DA" transform="matrix(1.00, 0.00, -0.00, -1.00, 270.5, 705.0)">S</text><text xml:space="preserve" font-family="DINCondensed-Bold" font-weight="bold" font-size="48.0" fill="#34A4DA" transform="matrix(1.00, 0.00, -0.00, -1.00, 290.0, 705.0)">I</text><text xml:space="preserve" font-family="DINCondensed-Bold" font-weight="bold" font-size="48.0" fill="#34A4DA" transform="matrix(1.00, 0.00, -0.00, -1.00, 299.8, 705.0)">B</text><text xml:space="preserve" font-family="DINCondensed-Bold" font-weight="bold" font-size="48.0" fill="#34A4DA" transform="matrix(1.00, 0.00, -0.00, -1.00, 320.2, 705.0)">I</text><text xml:space="preserve" font-family="DINCondensed-Bold" font-weight="bold" font-size="48.0" fill="#34A4DA" transform="matrix(1.00, 0.00, -0.00, -1.00, 330.0, 705.0)">L</text><text xml:space="preserve" font-family="DINCondensed-Bold" font-weight="bold" font-size="48.0" fill="#34A4DA" transform="matrix(1.00, 0.00, -0.00, -1.00, 347.8, 705.0)">I</text><text xml:space="preserve" font-family="DINCondensed-Bold" font-weight="bold" font-size="48.0" fill="#34A4DA" transform="matrix(1.00, 0.00, -0.00, -1.00, 357.6, 705.0)">T</text><text xml:space="preserve" font-family="DINCondensed-Bold" font-weight="bold" font-size="48.0" fill="#34A4DA" transform="matrix(1.00, 0.00, -0.00, -1.00, 373.5, 705.0)">Y</text><text xml:space="preserve" font-family="DINCondensed-Bold" font-weight="bold" font-size="48.0" fill="#34A4DA" transform="matrix(1.00, 0.00, -0.00, -1.00, 392.1, 705.0)"> </text><text xml:space="preserve" font-family="DINCondensed-Bold" font-weight="bold" font-size="48.0" fill="#34A4DA" transform="matrix(1.00, 0.00, -0.00, -1.00, 401.0, 705.0)">P</text><text xml:space="preserve" font-family="DINCondensed-Bold" font-weight="bold" font-size="48.0" fill="#34A4DA" transform="matrix(1.00, 0.00, -0.00, -1.00, 420.6, 705.0)">R</text><text xml:space="preserve" font-family="DINCondensed-Bold" font-weight="bold" font-size="48.0" fill="#34A4DA" transform="matrix(1.00, 0.00, -0.00, -1.00, 441.0, 705.0)">I</text><text xml:space="preserve" font-family="DINCondensed-Bold" font-weight="bold" font-size="48.0" fill="#34A4DA" transform="matrix(1.00, 0.00, -0.00, -1.00, 450.8, 705.0)">N</text><text xml:space="preserve" font-family="DINCondensed-Bold" font-weight="bold" font-size="48.0" fill="#34A4DA" transform="matrix(1.00, 0.00, -0.00, -1.00, 472.1, 705.0)">C</text><text xml:space="preserve" font-family="DINCondensed-Bold" font-weight="bold" font-size="48.0" fill="#34A4DA" transform="matrix(1.00, 0.00, -0.00, -1.00, 491.7, 705.0)">I</text><text xml:space="preserve" font-family="DINCondensed-Bold" font-weight="bold" font-size="48.0" fill="#34A4DA" transform="matrix(1.00, 0.00, -0.00, -1.00, 501.5, 705.0)">P</text><text xml:space="preserve" font-family="DINCondensed-Bold" font-weight="bold" font-size="48.0" fill="#34A4DA" transform="matrix(1.00, 0.00, -0.00, -1.00, 521.0, 705.0)">L</text><text xml:space="preserve" font-family="DINCondensed-Bold" font-weight="bold" font-size="48.0" fill="#34A4DA" transform="matrix(1.00, 0.00, -0.00, -1.00, 538.8, 705.0)">E</text></g></svg>