<?xml version="1.0" encoding="UTF-8" standalone="no"?><svg xmlns="http://www.w3.org/2000/svg" xmlns:xlink="http://www.w3.org/1999/xlink" clip-rule="evenodd" stroke-miterlimit="4.00" viewBox="0 0 1024 768"><desc>SVG generated by Keynote</desc><defs></defs><g transform="matrix(1.00, 0.00, -0.00, -1.00, 0.0, 768.0)"><path d="M 0.0 768.0 L 1024.0 768.0 L 1024.0 0.0 L 0.0 0.0 Z M 0.0 768.0 " fill="#FFFFFF"></path><text xml:space="preserve" font-family="DINCondensed-Bold" font-weight="bold" font-size="48.0" fill="#34A4DA" transform="matrix(1.00, 0.00, -0.00, -1.00, 36.0, 705.0)">I</text><text xml:space="preserve" font-family="DINCondensed-Bold" font-weight="bold" font-size="48.0" fill="#34A4DA" transform="matrix(1.00, 0.00, -0.00, -1.00, 45.8, 705.0)">N</text><text xml:space="preserve" font-family="DINCondensed-Bold" font-weight="bold" font-size="48.0" fill="#34A4DA" transform="matrix(1.00, 0.00, -0.00, -1.00, 67.1, 705.0)">T</text><text xml:space="preserve" font-family="DINCondensed-Bold" font-weight="bold" font-size="48.0" fill="#34A4DA" transform="matrix(1.00, 0.00, -0.00, -1.00, 83.0, 705.0)">E</text><text xml:space="preserve" font-family="DINCondensed-Bold" font-weight="bold" font-size="48.0" fill="#34A4DA" transform="matrix(1.00, 0.00, -0.00, -1.00, 100.8, 705.0)">R</text><text xml:space="preserve" font-family="DINCondensed-Bold" font-weight="bold" font-size="48.0" fill="#34A4DA" transform="matrix(1.00, 0.00, -0.00, -1.00, 121.2, 705.0)">F</text><text xml:space="preserve" font-family="DINCondensed-Bold" font-weight="bold" font-size="48.0" fill="#34A4DA" transform="matrix(1.00, 0.00, -0.00, -1.00, 136.6, 705.0)">A</text><text xml:space="preserve" font-family="DINCondensed-Bold" font-weight="bold" font-size="48.0" fill="#34A4DA" transform="matrix(1.00, 0.00, -0.00, -1.00, 156.1, 705.0)">C</text><text xml:space="preserve" font-family="DINCondensed-Bold" font-weight="bold" font-size="48.0" fill="#34A4DA" transform="matrix(1.00, 0.00, -0.00, -1.00, 175.7, 705.0)">E</text><text xml:space="preserve" font-family="DINCondensed-Bold" font-weight="bold" font-size="48.0" fill="#34A4DA" transform="matrix(1.00, 0.00, -0.00, -1.00, 193.4, 705.0)"> </text><text xml:space="preserve" font-family="DINCondensed-Bold" font-weight="bold" font-size="48.0" fill="#34A4DA" transform="matrix(1.00, 0.00, -0.00, -1.00, 202.4, 705.0)">S</text><text xml:space="preserve" font-family="DINCondensed-Bold" font-weight="bold" font-size="48.0" fill="#34A4DA" transform="matrix(1.00, 0.00, -0.00, -1.00, 221.9, 705.0)">E</text><text xml:space="preserve" font-family="DINCondensed-Bold" font-weight="bold" font-size="48.0" fill="#34A4DA" transform="matrix(1.00, 0.00, -0.00, -1.00, 239.6, 705.0)">G</text><text xml:space="preserve" font-family="DINCondensed-Bold" font-weight="bold" font-size="48.0" fill="#34A4DA" transform="matrix(1.00, 0.00, -0.00, -1.00, 260.1, 705.0)">R</text><text xml:space="preserve" font-family="DINCondensed-Bold" font-weight="bold" font-size="48.0" fill="#34A4DA" transform="matrix(1.00, 0.00, -0.00, -1.00, 280.5, 705.0)">E</text><text xml:space="preserve" font-family="DINCondensed-Bold" font-weight="bold" font-size="48.0" fill="#34A4DA" transform="matrix(1.00, 0.00, -0.00, -1.00, 298.3, 705.0)">G</text><text xml:space="preserve" font-family="DINCondensed-Bold" font-weight="bold" font-size="48.0" fill="#34A4DA" transform="matrix(1.00, 0.00, -0.00, -1.00, 318.7, 705.0)">A</text><text xml:space="preserve" font-family="DINCondensed-Bold" font-weight="bold" font-size="48.0" fill="#34A4DA" transform="matrix(1.00, 0.00, -0.00, -1.00, 335.6, 705.0)">T</text><text xml:space="preserve" font-family="DINCondensed-Bold" font-weight="bold" font-size="48.0" fill="#34A4DA" transform="matrix(1.00, 0.00, -0.00, -1.00, 351.6, 705.0)">I</text><text xml:space="preserve" font-family="DINCondensed-Bold" font-weight="bold" font-size="48.0" fill="#34A4DA" transform="matrix(1.00, 0.00, -0.00, -1.00, 361.3, 705.0)">O</text><text xml:space="preserve" font-family="DINCondensed-Bold" font-weight="bold" font-size="48.0" fill="#34A4DA" transform="matrix(1.00, 0.00, -0.00, -1.00, 381.8, 705.0)">N</text><text xml:space="preserve" font-family="DINCondensed-Bold" font-weight="bold" font-size="48.0" fill="#34A4DA" transform="matrix(1.00, 0.00, -0.00, -1.00, 403.1, 705.0)"> </text><text xml:space="preserve" font-family="DINCondensed-Bold" font-weight="bold" font-size="48.0" fill="#34A4DA" transform="matrix(1.00, 0.00, -0.00, -1.00, 412.0, 705.0)">P</text><text xml:space="preserve" font-family="DINCondensed-Bold" font-weight="bold" font-size="48.0" fill="#34A4DA" transform="matrix(1.00, 0.00, -0.00, -1.00, 431.6, 705.0)">R</text><text xml:space="preserve" font-family="DINCondensed-Bold" font-weight="bold" font-size="48.0" fill="#34A4DA" transform="matrix(1.00, 0.00, -0.00, -1.00, 452.0, 705.0)">I</text><text xml:space="preserve" font-family="DINCondensed-Bold" font-weight="bold" font-size="48.0" fill="#34A4DA" transform="matrix(1.00, 0.00, -0.00, -1.00, 461.8, 705.0)">N</text><text xml:space="preserve" font-family="DINCondensed-Bold" font-weight="bold" font-size="48.0" fill="#34A4DA" transform="matrix(1.00, 0.00, -0.00, -1.00, 483.1, 705.0)">C</text><text xml:space="preserve" font-family="DINCondensed-Bold" font-weight="bold" font-size="48.0" fill="#34A4DA" transform="matrix(1.00, 0.00, -0.00, -1.00, 502.7, 705.0)">I</text><text xml:space="preserve" font-family="DINCondensed-Bold" font-weight="bold" font-size="48.0" fill="#34A4DA" transform="matrix(1.00, 0.00, -0.00, -1.00, 512.4, 705.0)">P</text><text xml:space="preserve" font-family="DINCondensed-Bold" font-weight="bold" font-size="48.0" fill="#34A4DA" transform="matrix(1.00, 0.00, -0.00, -1.00, 532.0, 705.0)">L</text><text xml:space="preserve" font-family="DINCondensed-Bold" font-weight="bold" font-size="48.0" fill="#34A4DA" transform="matrix(1.00, 0.00, -0.00, -1.00, 549.7, 705.0)">E</text><text xml:space="preserve" font-family="AvenirNext-Medium" font-size="46.0" fill="#838686" transform="matrix(1.00, 0.00, -0.00, -1.00, 105.0, 396.0)">M</text><text xml:space="preserve" font-family="AvenirNext-Medium" font-size="46.0" fill="#838686" transform="matrix(1.00, 0.00, -0.00, -1.00, 146.5, 396.0)">a</text><text xml:space="preserve" font-family="AvenirNext-Medium" font-size="46.0" fill="#838686" transform="matrix(1.00, 0.00, -0.00, -1.00, 171.5, 396.0)">k</text><text xml:space="preserve" font-family="AvenirNext-Medium" font-size="46.0" fill="#838686" transform="matrix(1.00, 0.00, -0.00, -1.00, 194.9, 396.0)">e</text><text xml:space="preserve" font-family="AvenirNext-Medium" font-size="46.0" fill="#838686" transform="matrix(1.00, 0.00, -0.00, -1.00, 221.2, 396.0)"> </text><text xml:space="preserve" font-family="AvenirNext-Medium" font-size="46.0" fill="#838686" transform="matrix(1.00, 0.00, -0.00, -1.00, 232.7, 396.0)">i</text><text xml:space="preserve" font-family="AvenirNext-Medium" font-size="46.0" fill="#838686" transform="matrix(1.00, 0.00, -0.00, -1.00, 244.7, 396.0)">n</text><text xml:space="preserve" font-family="AvenirNext-Medium" font-size="46.0" fill="#838686" transform="matrix(1.00, 0.00, -0.00, -1.00, 271.4, 396.0)">t</text><text xml:space="preserve" font-family="AvenirNext-Medium" font-size="46.0" fill="#838686" transform="matrix(1.00, 0.00, -0.00, -1.00, 286.6, 396.0)">e</text><text xml:space="preserve" font-family="AvenirNext-Medium" font-size="46.0" fill="#838686" transform="matrix(1.00, 0.00, -0.00, -1.00, 312.9, 396.0)">r</text><text xml:space="preserve" font-family="AvenirNext-Medium" font-size="46.0" fill="#838686" transform="matrix(1.00, 0.00, -0.00, -1.00, 329.6, 396.0)">f</text><text xml:space="preserve" font-family="AvenirNext-Medium" font-size="46.0" fill="#838686" transform="matrix(1.00, 0.00, -0.00, -1.00, 343.8, 396.0)">a</text><text xml:space="preserve" font-family="AvenirNext-Medium" font-size="46.0" fill="#838686" transform="matrix(1.00, 0.00, -0.00, -1.00, 368.8, 396.0)">c</text><text xml:space="preserve" font-family="AvenirNext-Medium" font-size="46.0" fill="#838686" transform="matrix(1.00, 0.00, -0.00, -1.00, 391.5, 396.0)">e</text><text xml:space="preserve" font-family="AvenirNext-Medium" font-size="46.0" fill="#838686" transform="matrix(1.00, 0.00, -0.00, -1.00, 417.8, 396.0)">s</text><text xml:space="preserve" font-family="AvenirNext-Medium" font-size="46.0" fill="#838686" transform="matrix(1.00, 0.00, -0.00, -1.00, 438.3, 396.0)"> </text><text xml:space="preserve" font-family="AvenirNext-Medium" font-size="46.0" fill="#838686" transform="matrix(1.00, 0.00, -0.00, -1.00, 449.8, 396.0)">t</text><text xml:space="preserve" font-family="AvenirNext-Medium" font-size="46.0" fill="#838686" transform="matrix(1.00, 0.00, -0.00, -1.00, 464.9, 396.0)">h</text><text xml:space="preserve" font-family="AvenirNext-Medium" font-size="46.0" fill="#838686" transform="matrix(1.00, 0.00, -0.00, -1.00, 491.8, 396.0)">a</text><text xml:space="preserve" font-family="AvenirNext-Medium" font-size="46.0" fill="#838686" transform="matrix(1.00, 0.00, -0.00, -1.00, 516.2, 396.0)">t</text><text xml:space="preserve" font-family="AvenirNext-Medium" font-size="46.0" fill="#838686" transform="matrix(1.00, 0.00, -0.00, -1.00, 531.4, 396.0)"> </text><text xml:space="preserve" font-family="AvenirNext-Medium" font-size="46.0" fill="#838686" transform="matrix(1.00, 0.00, -0.00, -1.00, 542.9, 396.0)">a</text><text xml:space="preserve" font-family="AvenirNext-Medium" font-size="46.0" fill="#838686" transform="matrix(1.00, 0.00, -0.00, -1.00, 567.8, 396.0)">r</text><text xml:space="preserve" font-family="AvenirNext-Medium" font-size="46.0" fill="#838686" transform="matrix(1.00, 0.00, -0.00, -1.00, 583.6, 396.0)">e</text><text xml:space="preserve" font-family="AvenirNext-Medium" font-size="46.0" fill="#838686" transform="matrix(1.00, 0.00, -0.00, -1.00, 610.0, 396.0)"> </text><text xml:space="preserve" font-family="AvenirNext-Medium" font-size="46.0" fill="#838686" transform="matrix(1.00, 0.00, -0.00, -1.00, 621.5, 396.0)">c</text><text xml:space="preserve" font-family="AvenirNext-Medium" font-size="46.0" fill="#838686" transform="matrix(1.00, 0.00, -0.00, -1.00, 644.2, 396.0)">l</text><text xml:space="preserve" font-family="AvenirNext-Medium" font-size="46.0" fill="#838686" transform="matrix(1.00, 0.00, -0.00, -1.00, 656.2, 396.0)">i</text><text xml:space="preserve" font-family="AvenirNext-Medium" font-size="46.0" fill="#838686" transform="matrix(1.00, 0.00, -0.00, -1.00, 668.1, 396.0)">e</text><text xml:space="preserve" font-family="AvenirNext-Medium" font-size="46.0" fill="#838686" transform="matrix(1.00, 0.00, -0.00, -1.00, 694.4, 396.0)">n</text><text xml:space="preserve" font-family="AvenirNext-Medium" font-size="46.0" fill="#838686" transform="matrix(1.00, 0.00, -0.00, -1.00, 721.2, 396.0)">t</text><text xml:space="preserve" font-family="AvenirNext-Medium" font-size="46.0" fill="#838686" transform="matrix(1.00, 0.00, -0.00, -1.00, 736.4, 396.0)"> </text><text xml:space="preserve" font-family="AvenirNext-Medium" font-size="46.0" fill="#838686" transform="matrix(1.00, 0.00, -0.00, -1.00, 747.9, 396.0)">s</text><text xml:space="preserve" font-family="AvenirNext-Medium" font-size="46.0" fill="#838686" transform="matrix(1.00, 0.00, -0.00, -1.00, 768.3, 396.0)">p</text><text xml:space="preserve" font-family="AvenirNext-Medium" font-size="46.0" fill="#838686" transform="matrix(1.00, 0.00, -0.00, -1.00, 797.4, 396.0)">e</text><text xml:space="preserve" font-family="AvenirNext-Medium" font-size="46.0" fill="#838686" transform="matrix(1.00, 0.00, -0.00, -1.00, 823.8, 396.0)">c</text><text xml:space="preserve" font-family="AvenirNext-Medium" font-size="46.0" fill="#838686" transform="matrix(1.00, 0.00, -0.00, -1.00, 846.5, 396.0)">i</text><text xml:space="preserve" font-family="AvenirNext-Medium" font-size="46.0" fill="#838686" transform="matrix(1.00, 0.00, -0.00, -1.00, 858.4, 396.0)">ï¬</text><text xml:space="preserve" font-family="AvenirNext-Medium" font-size="46.0" fill="#838686" transform="matrix(1.00, 0.00, -0.00, -1.00, 884.8, 396.0)">c</text><text xml:space="preserve" font-family="AvenirNext-Medium" font-size="46.0" fill="#838686" transform="matrix(1.00, 0.00, -0.00, -1.00, 907.6, 396.0)">.</text></g></svg>