<?xml version="1.0" encoding="UTF-8" standalone="no"?><svg xmlns="http://www.w3.org/2000/svg" xmlns:xlink="http://www.w3.org/1999/xlink" clip-rule="evenodd" stroke-miterlimit="4.00" viewBox="0 0 561 47"><desc>SVG generated by Keynote</desc><defs></defs><g transform="matrix(1.00, 0.00, -0.00, -1.00, 0.0, 47.0)"><text xml:space="preserve" font-family="AvenirNext-Medium" font-size="44.0" fill="#34A4DA" transform="matrix(1.00, 0.00, -0.00, -1.00, -2.0, 12.0)">L</text><text xml:space="preserve" font-family="AvenirNext-Medium" font-size="44.0" fill="#838686" transform="matrix(1.00, 0.00, -0.00, -1.00, 20.5, 12.0)">i</text><text xml:space="preserve" font-family="AvenirNext-Medium" font-size="44.0" fill="#838686" transform="matrix(1.00, 0.00, -0.00, -1.00, 31.9, 12.0)">s</text><text xml:space="preserve" font-family="AvenirNext-Medium" font-size="44.0" fill="#838686" transform="matrix(1.00, 0.00, -0.00, -1.00, 51.4, 12.0)">k</text><text xml:space="preserve" font-family="AvenirNext-Medium" font-size="44.0" fill="#838686" transform="matrix(1.00, 0.00, -0.00, -1.00, 73.7, 12.0)">o</text><text xml:space="preserve" font-family="AvenirNext-Medium" font-size="44.0" fill="#838686" transform="matrix(1.00, 0.00, -0.00, -1.00, 100.6, 12.0)">v</text><text xml:space="preserve" font-family="AvenirNext-Medium" font-size="44.0" fill="#838686" transform="matrix(1.00, 0.00, -0.00, -1.00, 122.7, 12.0)"> </text><text xml:space="preserve" font-family="AvenirNext-Medium" font-size="44.0" fill="#838686" transform="matrix(1.00, 0.00, -0.00, -1.00, 133.7, 12.0)">S</text><text xml:space="preserve" font-family="AvenirNext-Medium" font-size="44.0" fill="#838686" transform="matrix(1.00, 0.00, -0.00, -1.00, 158.8, 12.0)">u</text><text xml:space="preserve" font-family="AvenirNext-Medium" font-size="44.0" fill="#838686" transform="matrix(1.00, 0.00, -0.00, -1.00, 184.4, 12.0)">b</text><text xml:space="preserve" font-family="AvenirNext-Medium" font-size="44.0" fill="#838686" transform="matrix(1.00, 0.00, -0.00, -1.00, 212.4, 12.0)">s</text><text xml:space="preserve" font-family="AvenirNext-Medium" font-size="44.0" fill="#838686" transform="matrix(1.00, 0.00, -0.00, -1.00, 231.9, 12.0)">t</text><text xml:space="preserve" font-family="AvenirNext-Medium" font-size="44.0" fill="#838686" transform="matrix(1.00, 0.00, -0.00, -1.00, 246.4, 12.0)">i</text><text xml:space="preserve" font-family="AvenirNext-Medium" font-size="44.0" fill="#838686" transform="matrix(1.00, 0.00, -0.00, -1.00, 257.8, 12.0)">t</text><text xml:space="preserve" font-family="AvenirNext-Medium" font-size="44.0" fill="#838686" transform="matrix(1.00, 0.00, -0.00, -1.00, 272.3, 12.0)">u</text><text xml:space="preserve" font-family="AvenirNext-Medium" font-size="44.0" fill="#838686" transform="matrix(1.00, 0.00, -0.00, -1.00, 297.9, 12.0)">t</text><text xml:space="preserve" font-family="AvenirNext-Medium" font-size="44.0" fill="#838686" transform="matrix(1.00, 0.00, -0.00, -1.00, 312.3, 12.0)">i</text><text xml:space="preserve" font-family="AvenirNext-Medium" font-size="44.0" fill="#838686" transform="matrix(1.00, 0.00, -0.00, -1.00, 323.7, 12.0)">o</text><text xml:space="preserve" font-family="AvenirNext-Medium" font-size="44.0" fill="#838686" transform="matrix(1.00, 0.00, -0.00, -1.00, 350.6, 12.0)">n</text><text xml:space="preserve" font-family="AvenirNext-Medium" font-size="44.0" fill="#838686" transform="matrix(1.00, 0.00, -0.00, -1.00, 376.2, 12.0)"> </text><text xml:space="preserve" font-family="AvenirNext-Medium" font-size="44.0" fill="#838686" transform="matrix(1.00, 0.00, -0.00, -1.00, 387.2, 12.0)">P</text><text xml:space="preserve" font-family="AvenirNext-Medium" font-size="44.0" fill="#838686" transform="matrix(1.00, 0.00, -0.00, -1.00, 411.3, 12.0)">r</text><text xml:space="preserve" font-family="AvenirNext-Medium" font-size="44.0" fill="#838686" transform="matrix(1.00, 0.00, -0.00, -1.00, 427.3, 12.0)">i</text><text xml:space="preserve" font-family="AvenirNext-Medium" font-size="44.0" fill="#838686" transform="matrix(1.00, 0.00, -0.00, -1.00, 438.7, 12.0)">n</text><text xml:space="preserve" font-family="AvenirNext-Medium" font-size="44.0" fill="#838686" transform="matrix(1.00, 0.00, -0.00, -1.00, 464.3, 12.0)">c</text><text xml:space="preserve" font-family="AvenirNext-Medium" font-size="44.0" fill="#838686" transform="matrix(1.00, 0.00, -0.00, -1.00, 486.0, 12.0)">i</text><text xml:space="preserve" font-family="AvenirNext-Medium" font-size="44.0" fill="#838686" transform="matrix(1.00, 0.00, -0.00, -1.00, 497.4, 12.0)">p</text><text xml:space="preserve" font-family="AvenirNext-Medium" font-size="44.0" fill="#838686" transform="matrix(1.00, 0.00, -0.00, -1.00, 525.3, 12.0)">l</text><text xml:space="preserve" font-family="AvenirNext-Medium" font-size="44.0" fill="#838686" transform="matrix(1.00, 0.00, -0.00, -1.00, 536.7, 12.0)">e</text></g></svg>