<?xml version="1.0" encoding="UTF-8" standalone="no"?><svg xmlns="http://www.w3.org/2000/svg" xmlns:xlink="http://www.w3.org/1999/xlink" clip-rule="evenodd" stroke-miterlimit="4.00" viewBox="0 0 1024 768"><desc>SVG generated by Keynote</desc><defs></defs><g transform="matrix(1.00, 0.00, -0.00, -1.00, 0.0, 768.0)"><path d="M 0.0 768.0 L 1024.0 768.0 L 1024.0 0.0 L 0.0 0.0 Z M 0.0 768.0 " fill="#212121"></path><text xml:space="preserve" font-family="DINCondensed-Bold" font-weight="bold" font-size="48.0" fill="#34A4DA" transform="matrix(1.00, 0.00, -0.00, -1.00, 36.0, 608.0)">W</text><text xml:space="preserve" font-family="DINCondensed-Bold" font-weight="bold" font-size="48.0" fill="#34A4DA" transform="matrix(1.00, 0.00, -0.00, -1.00, 64.5, 608.0)">H</text><text xml:space="preserve" font-family="DINCondensed-Bold" font-weight="bold" font-size="48.0" fill="#34A4DA" transform="matrix(1.00, 0.00, -0.00, -1.00, 84.9, 608.0)">A</text><text xml:space="preserve" font-family="DINCondensed-Bold" font-weight="bold" font-size="48.0" fill="#34A4DA" transform="matrix(1.00, 0.00, -0.00, -1.00, 101.8, 608.0)">T</text><text xml:space="preserve" font-family="DINCondensed-Bold" font-weight="bold" font-size="48.0" fill="#34A4DA" transform="matrix(1.00, 0.00, -0.00, -1.00, 117.7, 608.0)"> </text><text xml:space="preserve" font-family="DINCondensed-Bold" font-weight="bold" font-size="48.0" fill="#34A4DA" transform="matrix(1.00, 0.00, -0.00, -1.00, 126.7, 608.0)">I</text><text xml:space="preserve" font-family="DINCondensed-Bold" font-weight="bold" font-size="48.0" fill="#34A4DA" transform="matrix(1.00, 0.00, -0.00, -1.00, 136.5, 608.0)">S</text><text xml:space="preserve" font-family="DINCondensed-Bold" font-weight="bold" font-size="48.0" fill="#34A4DA" transform="matrix(1.00, 0.00, -0.00, -1.00, 156.0, 608.0)"> </text><text xml:space="preserve" font-family="DINCondensed-Bold" font-weight="bold" font-size="48.0" fill="#34A4DA" transform="matrix(1.00, 0.00, -0.00, -1.00, 164.9, 608.0)">S</text><text xml:space="preserve" font-family="DINCondensed-Bold" font-weight="bold" font-size="48.0" fill="#34A4DA" transform="matrix(1.00, 0.00, -0.00, -1.00, 184.4, 608.0)">O</text><text xml:space="preserve" font-family="DINCondensed-Bold" font-weight="bold" font-size="48.0" fill="#34A4DA" transform="matrix(1.00, 0.00, -0.00, -1.00, 204.8, 608.0)">L</text><text xml:space="preserve" font-family="DINCondensed-Bold" font-weight="bold" font-size="48.0" fill="#34A4DA" transform="matrix(1.00, 0.00, -0.00, -1.00, 222.6, 608.0)">I</text><text xml:space="preserve" font-family="DINCondensed-Bold" font-weight="bold" font-size="48.0" fill="#34A4DA" transform="matrix(1.00, 0.00, -0.00, -1.00, 232.4, 608.0)">D</text><text xml:space="preserve" font-family="DINCondensed-Bold" font-weight="bold" font-size="48.0" fill="#34A4DA" transform="matrix(1.00, 0.00, -0.00, -1.00, 252.8, 608.0)">?</text><text xml:space="preserve" font-family="AvenirNext-Medium" font-size="55.0" fill="#34A4DA" transform="matrix(1.00, 0.00, -0.00, -1.00, 36.0, 493.0)">S</text><text xml:space="preserve" font-family="AvenirNext-Medium" font-size="55.0" fill="#838686" transform="matrix(1.00, 0.00, -0.00, -1.00, 67.3, 493.0)">i</text><text xml:space="preserve" font-family="AvenirNext-Medium" font-size="55.0" fill="#838686" transform="matrix(1.00, 0.00, -0.00, -1.00, 81.5, 493.0)">n</text><text xml:space="preserve" font-family="AvenirNext-Medium" font-size="55.0" fill="#838686" transform="matrix(1.00, 0.00, -0.00, -1.00, 113.5, 493.0)">g</text><text xml:space="preserve" font-family="AvenirNext-Medium" font-size="55.0" fill="#838686" transform="matrix(1.00, 0.00, -0.00, -1.00, 148.3, 493.0)">l</text><text xml:space="preserve" font-family="AvenirNext-Medium" font-size="55.0" fill="#838686" transform="matrix(1.00, 0.00, -0.00, -1.00, 162.6, 493.0)">e</text><text xml:space="preserve" font-family="AvenirNext-Medium" font-size="55.0" fill="#838686" transform="matrix(1.00, 0.00, -0.00, -1.00, 194.1, 493.0)"> </text><text xml:space="preserve" font-family="AvenirNext-Medium" font-size="55.0" fill="#838686" transform="matrix(1.00, 0.00, -0.00, -1.00, 207.9, 493.0)">R</text><text xml:space="preserve" font-family="AvenirNext-Medium" font-size="55.0" fill="#838686" transform="matrix(1.00, 0.00, -0.00, -1.00, 241.0, 493.0)">e</text><text xml:space="preserve" font-family="AvenirNext-Medium" font-size="55.0" fill="#838686" transform="matrix(1.00, 0.00, -0.00, -1.00, 272.5, 493.0)">s</text><text xml:space="preserve" font-family="AvenirNext-Medium" font-size="55.0" fill="#838686" transform="matrix(1.00, 0.00, -0.00, -1.00, 296.9, 493.0)">p</text><text xml:space="preserve" font-family="AvenirNext-Medium" font-size="55.0" fill="#838686" transform="matrix(1.00, 0.00, -0.00, -1.00, 331.8, 493.0)">o</text><text xml:space="preserve" font-family="AvenirNext-Medium" font-size="55.0" fill="#838686" transform="matrix(1.00, 0.00, -0.00, -1.00, 365.3, 493.0)">n</text><text xml:space="preserve" font-family="AvenirNext-Medium" font-size="55.0" fill="#838686" transform="matrix(1.00, 0.00, -0.00, -1.00, 397.4, 493.0)">s</text><text xml:space="preserve" font-family="AvenirNext-Medium" font-size="55.0" fill="#838686" transform="matrix(1.00, 0.00, -0.00, -1.00, 421.8, 493.0)">i</text><text xml:space="preserve" font-family="AvenirNext-Medium" font-size="55.0" fill="#838686" transform="matrix(1.00, 0.00, -0.00, -1.00, 436.0, 493.0)">b</text><text xml:space="preserve" font-family="AvenirNext-Medium" font-size="55.0" fill="#838686" transform="matrix(1.00, 0.00, -0.00, -1.00, 471.0, 493.0)">i</text><text xml:space="preserve" font-family="AvenirNext-Medium" font-size="55.0" fill="#838686" transform="matrix(1.00, 0.00, -0.00, -1.00, 485.2, 493.0)">l</text><text xml:space="preserve" font-family="AvenirNext-Medium" font-size="55.0" fill="#838686" transform="matrix(1.00, 0.00, -0.00, -1.00, 499.5, 493.0)">i</text><text xml:space="preserve" font-family="AvenirNext-Medium" font-size="55.0" fill="#838686" transform="matrix(1.00, 0.00, -0.00, -1.00, 513.8, 493.0)">t</text><text xml:space="preserve" font-family="AvenirNext-Medium" font-size="55.0" fill="#838686" transform="matrix(1.00, 0.00, -0.00, -1.00, 531.9, 493.0)">y</text><text xml:space="preserve" font-family="AvenirNext-Medium" font-size="55.0" fill="#838686" transform="matrix(1.00, 0.00, -0.00, -1.00, 559.6, 493.0)"> </text><text xml:space="preserve" font-family="AvenirNext-Medium" font-size="55.0" fill="#838686" transform="matrix(1.00, 0.00, -0.00, -1.00, 573.4, 493.0)">P</text><text xml:space="preserve" font-family="AvenirNext-Medium" font-size="55.0" fill="#838686" transform="matrix(1.00, 0.00, -0.00, -1.00, 603.5, 493.0)">r</text><text xml:space="preserve" font-family="AvenirNext-Medium" font-size="55.0" fill="#838686" transform="matrix(1.00, 0.00, -0.00, -1.00, 623.5, 493.0)">i</text><text xml:space="preserve" font-family="AvenirNext-Medium" font-size="55.0" fill="#838686" transform="matrix(1.00, 0.00, -0.00, -1.00, 637.7, 493.0)">n</text><text xml:space="preserve" font-family="AvenirNext-Medium" font-size="55.0" fill="#838686" transform="matrix(1.00, 0.00, -0.00, -1.00, 669.7, 493.0)">c</text><text xml:space="preserve" font-family="AvenirNext-Medium" font-size="55.0" fill="#838686" transform="matrix(1.00, 0.00, -0.00, -1.00, 696.9, 493.0)">i</text><text xml:space="preserve" font-family="AvenirNext-Medium" font-size="55.0" fill="#838686" transform="matrix(1.00, 0.00, -0.00, -1.00, 711.1, 493.0)">p</text><text xml:space="preserve" font-family="AvenirNext-Medium" font-size="55.0" fill="#838686" transform="matrix(1.00, 0.00, -0.00, -1.00, 746.0, 493.0)">l</text><text xml:space="preserve" font-family="AvenirNext-Medium" font-size="55.0" fill="#838686" transform="matrix(1.00, 0.00, -0.00, -1.00, 760.3, 493.0)">e</text><text xml:space="preserve" font-family="AvenirNext-Medium" font-size="50.0" fill="#34A4DA" transform="matrix(1.00, 0.00, -0.00, -1.00, 36.0, 395.0)">O</text><text xml:space="preserve" font-family="AvenirNext-Medium" font-size="50.0" fill="#838686" transform="matrix(1.00, 0.00, -0.00, -1.00, 78.5, 395.0)">p</text><text xml:space="preserve" font-family="AvenirNext-Medium" font-size="50.0" fill="#838686" transform="matrix(1.00, 0.00, -0.00, -1.00, 110.2, 395.0)">e</text><text xml:space="preserve" font-family="AvenirNext-Medium" font-size="50.0" fill="#838686" transform="matrix(1.00, 0.00, -0.00, -1.00, 138.8, 395.0)">n</text><text xml:space="preserve" font-family="AvenirNext-Medium" font-size="50.0" fill="#838686" transform="matrix(1.00, 0.00, -0.00, -1.00, 167.9, 395.0)">/</text><text xml:space="preserve" font-family="AvenirNext-Medium" font-size="50.0" fill="#838686" transform="matrix(1.00, 0.00, -0.00, -1.00, 186.9, 395.0)">c</text><text xml:space="preserve" font-family="AvenirNext-Medium" font-size="50.0" fill="#838686" transform="matrix(1.00, 0.00, -0.00, -1.00, 211.6, 395.0)">l</text><text xml:space="preserve" font-family="AvenirNext-Medium" font-size="50.0" fill="#838686" transform="matrix(1.00, 0.00, -0.00, -1.00, 224.6, 395.0)">o</text><text xml:space="preserve" font-family="AvenirNext-Medium" font-size="50.0" fill="#838686" transform="matrix(1.00, 0.00, -0.00, -1.00, 255.1, 395.0)">s</text><text xml:space="preserve" font-family="AvenirNext-Medium" font-size="50.0" fill="#838686" transform="matrix(1.00, 0.00, -0.00, -1.00, 277.3, 395.0)">e</text><text xml:space="preserve" font-family="AvenirNext-Medium" font-size="50.0" fill="#838686" transform="matrix(1.00, 0.00, -0.00, -1.00, 305.9, 395.0)">d</text><text xml:space="preserve" font-family="AvenirNext-Medium" font-size="50.0" fill="#838686" transform="matrix(1.00, 0.00, -0.00, -1.00, 337.7, 395.0)"> </text><text xml:space="preserve" font-family="AvenirNext-Medium" font-size="50.0" fill="#838686" transform="matrix(1.00, 0.00, -0.00, -1.00, 350.2, 395.0)">P</text><text xml:space="preserve" font-family="AvenirNext-Medium" font-size="50.0" fill="#838686" transform="matrix(1.00, 0.00, -0.00, -1.00, 377.6, 395.0)">r</text><text xml:space="preserve" font-family="AvenirNext-Medium" font-size="50.0" fill="#838686" transform="matrix(1.00, 0.00, -0.00, -1.00, 395.8, 395.0)">i</text><text xml:space="preserve" font-family="AvenirNext-Medium" font-size="50.0" fill="#838686" transform="matrix(1.00, 0.00, -0.00, -1.00, 408.7, 395.0)">n</text><text xml:space="preserve" font-family="AvenirNext-Medium" font-size="50.0" fill="#838686" transform="matrix(1.00, 0.00, -0.00, -1.00, 437.8, 395.0)">c</text><text xml:space="preserve" font-family="AvenirNext-Medium" font-size="50.0" fill="#838686" transform="matrix(1.00, 0.00, -0.00, -1.00, 462.5, 395.0)">i</text><text xml:space="preserve" font-family="AvenirNext-Medium" font-size="50.0" fill="#838686" transform="matrix(1.00, 0.00, -0.00, -1.00, 475.4, 395.0)">p</text><text xml:space="preserve" font-family="AvenirNext-Medium" font-size="50.0" fill="#838686" transform="matrix(1.00, 0.00, -0.00, -1.00, 507.1, 395.0)">l</text><text xml:space="preserve" font-family="AvenirNext-Medium" font-size="50.0" fill="#838686" transform="matrix(1.00, 0.00, -0.00, -1.00, 520.1, 395.0)">e</text><text xml:space="preserve" font-family="AvenirNext-Medium" font-size="44.0" fill="#34A4DA" transform="matrix(1.00, 0.00, -0.00, -1.00, 36.0, 305.0)">L</text><text xml:space="preserve" font-family="AvenirNext-Medium" font-size="44.0" fill="#838686" transform="matrix(1.00, 0.00, -0.00, -1.00, 58.5, 305.0)">i</text><text xml:space="preserve" font-family="AvenirNext-Medium" font-size="44.0" fill="#838686" transform="matrix(1.00, 0.00, -0.00, -1.00, 69.9, 305.0)">s</text><text xml:space="preserve" font-family="AvenirNext-Medium" font-size="44.0" fill="#838686" transform="matrix(1.00, 0.00, -0.00, -1.00, 89.4, 305.0)">k</text><text xml:space="preserve" font-family="AvenirNext-Medium" font-size="44.0" fill="#838686" transform="matrix(1.00, 0.00, -0.00, -1.00, 111.7, 305.0)">o</text><text xml:space="preserve" font-family="AvenirNext-Medium" font-size="44.0" fill="#838686" transform="matrix(1.00, 0.00, -0.00, -1.00, 138.6, 305.0)">v</text><text xml:space="preserve" font-family="AvenirNext-Medium" font-size="44.0" fill="#838686" transform="matrix(1.00, 0.00, -0.00, -1.00, 160.7, 305.0)"> </text><text xml:space="preserve" font-family="AvenirNext-Medium" font-size="44.0" fill="#838686" transform="matrix(1.00, 0.00, -0.00, -1.00, 171.7, 305.0)">S</text><text xml:space="preserve" font-family="AvenirNext-Medium" font-size="44.0" fill="#838686" transform="matrix(1.00, 0.00, -0.00, -1.00, 196.8, 305.0)">u</text><text xml:space="preserve" font-family="AvenirNext-Medium" font-size="44.0" fill="#838686" transform="matrix(1.00, 0.00, -0.00, -1.00, 222.4, 305.0)">b</text><text xml:space="preserve" font-family="AvenirNext-Medium" font-size="44.0" fill="#838686" transform="matrix(1.00, 0.00, -0.00, -1.00, 250.4, 305.0)">s</text><text xml:space="preserve" font-family="AvenirNext-Medium" font-size="44.0" fill="#838686" transform="matrix(1.00, 0.00, -0.00, -1.00, 269.9, 305.0)">t</text><text xml:space="preserve" font-family="AvenirNext-Medium" font-size="44.0" fill="#838686" transform="matrix(1.00, 0.00, -0.00, -1.00, 284.4, 305.0)">i</text><text xml:space="preserve" font-family="AvenirNext-Medium" font-size="44.0" fill="#838686" transform="matrix(1.00, 0.00, -0.00, -1.00, 295.8, 305.0)">t</text><text xml:space="preserve" font-family="AvenirNext-Medium" font-size="44.0" fill="#838686" transform="matrix(1.00, 0.00, -0.00, -1.00, 310.3, 305.0)">u</text><text xml:space="preserve" font-family="AvenirNext-Medium" font-size="44.0" fill="#838686" transform="matrix(1.00, 0.00, -0.00, -1.00, 335.9, 305.0)">t</text><text xml:space="preserve" font-family="AvenirNext-Medium" font-size="44.0" fill="#838686" transform="matrix(1.00, 0.00, -0.00, -1.00, 350.3, 305.0)">i</text><text xml:space="preserve" font-family="AvenirNext-Medium" font-size="44.0" fill="#838686" transform="matrix(1.00, 0.00, -0.00, -1.00, 361.7, 305.0)">o</text><text xml:space="preserve" font-family="AvenirNext-Medium" font-size="44.0" fill="#838686" transform="matrix(1.00, 0.00, -0.00, -1.00, 388.6, 305.0)">n</text><text xml:space="preserve" font-family="AvenirNext-Medium" font-size="44.0" fill="#838686" transform="matrix(1.00, 0.00, -0.00, -1.00, 414.2, 305.0)"> </text><text xml:space="preserve" font-family="AvenirNext-Medium" font-size="44.0" fill="#838686" transform="matrix(1.00, 0.00, -0.00, -1.00, 425.2, 305.0)">P</text><text xml:space="preserve" font-family="AvenirNext-Medium" font-size="44.0" fill="#838686" transform="matrix(1.00, 0.00, -0.00, -1.00, 449.3, 305.0)">r</text><text xml:space="preserve" font-family="AvenirNext-Medium" font-size="44.0" fill="#838686" transform="matrix(1.00, 0.00, -0.00, -1.00, 465.3, 305.0)">i</text><text xml:space="preserve" font-family="AvenirNext-Medium" font-size="44.0" fill="#838686" transform="matrix(1.00, 0.00, -0.00, -1.00, 476.7, 305.0)">n</text><text xml:space="preserve" font-family="AvenirNext-Medium" font-size="44.0" fill="#838686" transform="matrix(1.00, 0.00, -0.00, -1.00, 502.3, 305.0)">c</text><text xml:space="preserve" font-family="AvenirNext-Medium" font-size="44.0" fill="#838686" transform="matrix(1.00, 0.00, -0.00, -1.00, 524.0, 305.0)">i</text><text xml:space="preserve" font-family="AvenirNext-Medium" font-size="44.0" fill="#838686" transform="matrix(1.00, 0.00, -0.00, -1.00, 535.4, 305.0)">p</text><text xml:space="preserve" font-family="AvenirNext-Medium" font-size="44.0" fill="#838686" transform="matrix(1.00, 0.00, -0.00, -1.00, 563.3, 305.0)">l</text><text xml:space="preserve" font-family="AvenirNext-Medium" font-size="44.0" fill="#838686" transform="matrix(1.00, 0.00, -0.00, -1.00, 574.7, 305.0)">e</text><text xml:space="preserve" font-family="AvenirNext-Medium" font-size="27.0" fill="#34A4DA" transform="matrix(1.00, 0.00, -0.00, -1.00, 36.0, 234.0)">I</text><text xml:space="preserve" font-family="AvenirNext-Medium" font-size="27.0" fill="#838686" transform="matrix(1.00, 0.00, -0.00, -1.00, 43.3, 234.0)">n</text><text xml:space="preserve" font-family="AvenirNext-Medium" font-size="27.0" fill="#838686" transform="matrix(1.00, 0.00, -0.00, -1.00, 59.0, 234.0)">t</text><text xml:space="preserve" font-family="AvenirNext-Medium" font-size="27.0" fill="#838686" transform="matrix(1.00, 0.00, -0.00, -1.00, 67.9, 234.0)">e</text><text xml:space="preserve" font-family="AvenirNext-Medium" font-size="27.0" fill="#838686" transform="matrix(1.00, 0.00, -0.00, -1.00, 83.4, 234.0)">r</text><text xml:space="preserve" font-family="AvenirNext-Medium" font-size="27.0" fill="#838686" transform="matrix(1.00, 0.00, -0.00, -1.00, 93.2, 234.0)">f</text><text xml:space="preserve" font-family="AvenirNext-Medium" font-size="27.0" fill="#838686" transform="matrix(1.00, 0.00, -0.00, -1.00, 101.5, 234.0)">a</text><text xml:space="preserve" font-family="AvenirNext-Medium" font-size="27.0" fill="#838686" transform="matrix(1.00, 0.00, -0.00, -1.00, 116.2, 234.0)">c</text><text xml:space="preserve" font-family="AvenirNext-Medium" font-size="27.0" fill="#838686" transform="matrix(1.00, 0.00, -0.00, -1.00, 129.5, 234.0)">e</text><text xml:space="preserve" font-family="AvenirNext-Medium" font-size="27.0" fill="#838686" transform="matrix(1.00, 0.00, -0.00, -1.00, 145.0, 234.0)"> </text><text xml:space="preserve" font-family="AvenirNext-Medium" font-size="27.0" fill="#838686" transform="matrix(1.00, 0.00, -0.00, -1.00, 151.7, 234.0)">S</text><text xml:space="preserve" font-family="AvenirNext-Medium" font-size="27.0" fill="#838686" transform="matrix(1.00, 0.00, -0.00, -1.00, 167.1, 234.0)">e</text><text xml:space="preserve" font-family="AvenirNext-Medium" font-size="27.0" fill="#838686" transform="matrix(1.00, 0.00, -0.00, -1.00, 182.6, 234.0)">g</text><text xml:space="preserve" font-family="AvenirNext-Medium" font-size="27.0" fill="#838686" transform="matrix(1.00, 0.00, -0.00, -1.00, 199.6, 234.0)">r</text><text xml:space="preserve" font-family="AvenirNext-Medium" font-size="27.0" fill="#838686" transform="matrix(1.00, 0.00, -0.00, -1.00, 208.9, 234.0)">e</text><text xml:space="preserve" font-family="AvenirNext-Medium" font-size="27.0" fill="#838686" transform="matrix(1.00, 0.00, -0.00, -1.00, 224.4, 234.0)">g</text><text xml:space="preserve" font-family="AvenirNext-Medium" font-size="27.0" fill="#838686" transform="matrix(1.00, 0.00, -0.00, -1.00, 241.4, 234.0)">a</text><text xml:space="preserve" font-family="AvenirNext-Medium" font-size="27.0" fill="#838686" transform="matrix(1.00, 0.00, -0.00, -1.00, 255.8, 234.0)">t</text><text xml:space="preserve" font-family="AvenirNext-Medium" font-size="27.0" fill="#838686" transform="matrix(1.00, 0.00, -0.00, -1.00, 264.7, 234.0)">i</text><text xml:space="preserve" font-family="AvenirNext-Medium" font-size="27.0" fill="#838686" transform="matrix(1.00, 0.00, -0.00, -1.00, 271.7, 234.0)">o</text><text xml:space="preserve" font-family="AvenirNext-Medium" font-size="27.0" fill="#838686" transform="matrix(1.00, 0.00, -0.00, -1.00, 288.2, 234.0)">n</text><text xml:space="preserve" font-family="AvenirNext-Medium" font-size="27.0" fill="#838686" transform="matrix(1.00, 0.00, -0.00, -1.00, 303.9, 234.0)"> </text><text xml:space="preserve" font-family="AvenirNext-Medium" font-size="27.0" fill="#838686" transform="matrix(1.00, 0.00, -0.00, -1.00, 310.6, 234.0)">P</text><text xml:space="preserve" font-family="AvenirNext-Medium" font-size="27.0" fill="#838686" transform="matrix(1.00, 0.00, -0.00, -1.00, 325.4, 234.0)">r</text><text xml:space="preserve" font-family="AvenirNext-Medium" font-size="27.0" fill="#838686" transform="matrix(1.00, 0.00, -0.00, -1.00, 335.2, 234.0)">i</text><text xml:space="preserve" font-family="AvenirNext-Medium" font-size="27.0" fill="#838686" transform="matrix(1.00, 0.00, -0.00, -1.00, 342.2, 234.0)">n</text><text xml:space="preserve" font-family="AvenirNext-Medium" font-size="27.0" fill="#838686" transform="matrix(1.00, 0.00, -0.00, -1.00, 357.9, 234.0)">c</text><text xml:space="preserve" font-family="AvenirNext-Medium" font-size="27.0" fill="#838686" transform="matrix(1.00, 0.00, -0.00, -1.00, 371.3, 234.0)">i</text><text xml:space="preserve" font-family="AvenirNext-Medium" font-size="27.0" fill="#838686" transform="matrix(1.00, 0.00, -0.00, -1.00, 378.3, 234.0)">p</text><text xml:space="preserve" font-family="AvenirNext-Medium" font-size="27.0" fill="#838686" transform="matrix(1.00, 0.00, -0.00, -1.00, 395.4, 234.0)">l</text><text xml:space="preserve" font-family="AvenirNext-Medium" font-size="27.0" fill="#838686" transform="matrix(1.00, 0.00, -0.00, -1.00, 402.4, 234.0)">e</text><text xml:space="preserve" font-family="AvenirNext-Medium" font-size="36.0" fill="#34A4DA" transform="matrix(1.00, 0.00, -0.00, -1.00, 36.0, 160.0)">D</text><text xml:space="preserve" font-family="AvenirNext-Medium" font-size="36.0" fill="#838686" transform="matrix(1.00, 0.00, -0.00, -1.00, 63.4, 160.0)">e</text><text xml:space="preserve" font-family="AvenirNext-Medium" font-size="36.0" fill="#838686" transform="matrix(1.00, 0.00, -0.00, -1.00, 84.0, 160.0)">p</text><text xml:space="preserve" font-family="AvenirNext-Medium" font-size="36.0" fill="#838686" transform="matrix(1.00, 0.00, -0.00, -1.00, 106.8, 160.0)">e</text><text xml:space="preserve" font-family="AvenirNext-Medium" font-size="36.0" fill="#838686" transform="matrix(1.00, 0.00, -0.00, -1.00, 127.5, 160.0)">n</text><text xml:space="preserve" font-family="AvenirNext-Medium" font-size="36.0" fill="#838686" transform="matrix(1.00, 0.00, -0.00, -1.00, 148.4, 160.0)">d</text><text xml:space="preserve" font-family="AvenirNext-Medium" font-size="36.0" fill="#838686" transform="matrix(1.00, 0.00, -0.00, -1.00, 171.3, 160.0)">e</text><text xml:space="preserve" font-family="AvenirNext-Medium" font-size="36.0" fill="#838686" transform="matrix(1.00, 0.00, -0.00, -1.00, 191.9, 160.0)">n</text><text xml:space="preserve" font-family="AvenirNext-Medium" font-size="36.0" fill="#838686" transform="matrix(1.00, 0.00, -0.00, -1.00, 212.9, 160.0)">c</text><text xml:space="preserve" font-family="AvenirNext-Medium" font-size="36.0" fill="#838686" transform="matrix(1.00, 0.00, -0.00, -1.00, 230.7, 160.0)">y</text><text xml:space="preserve" font-family="AvenirNext-Medium" font-size="36.0" fill="#838686" transform="matrix(1.00, 0.00, -0.00, -1.00, 248.8, 160.0)"> </text><text xml:space="preserve" font-family="AvenirNext-Medium" font-size="36.0" fill="#838686" transform="matrix(1.00, 0.00, -0.00, -1.00, 257.8, 160.0)">I</text><text xml:space="preserve" font-family="AvenirNext-Medium" font-size="36.0" fill="#838686" transform="matrix(1.00, 0.00, -0.00, -1.00, 267.6, 160.0)">n</text><text xml:space="preserve" font-family="AvenirNext-Medium" font-size="36.0" fill="#838686" transform="matrix(1.00, 0.00, -0.00, -1.00, 288.5, 160.0)">v</text><text xml:space="preserve" font-family="AvenirNext-Medium" font-size="36.0" fill="#838686" transform="matrix(1.00, 0.00, -0.00, -1.00, 306.6, 160.0)">e</text><text xml:space="preserve" font-family="AvenirNext-Medium" font-size="36.0" fill="#838686" transform="matrix(1.00, 0.00, -0.00, -1.00, 327.3, 160.0)">r</text><text xml:space="preserve" font-family="AvenirNext-Medium" font-size="36.0" fill="#838686" transform="matrix(1.00, 0.00, -0.00, -1.00, 340.3, 160.0)">s</text><text xml:space="preserve" font-family="AvenirNext-Medium" font-size="36.0" fill="#838686" transform="matrix(1.00, 0.00, -0.00, -1.00, 356.3, 160.0)">i</text><text xml:space="preserve" font-family="AvenirNext-Medium" font-size="36.0" fill="#838686" transform="matrix(1.00, 0.00, -0.00, -1.00, 365.6, 160.0)">o</text><text xml:space="preserve" font-family="AvenirNext-Medium" font-size="36.0" fill="#838686" transform="matrix(1.00, 0.00, -0.00, -1.00, 387.6, 160.0)">n</text><text xml:space="preserve" font-family="AvenirNext-Medium" font-size="36.0" fill="#838686" transform="matrix(1.00, 0.00, -0.00, -1.00, 408.5, 160.0)"> </text><text xml:space="preserve" font-family="AvenirNext-Medium" font-size="36.0" fill="#838686" transform="matrix(1.00, 0.00, -0.00, -1.00, 417.5, 160.0)">P</text><text xml:space="preserve" font-family="AvenirNext-Medium" font-size="36.0" fill="#838686" transform="matrix(1.00, 0.00, -0.00, -1.00, 437.3, 160.0)">r</text><text xml:space="preserve" font-family="AvenirNext-Medium" font-size="36.0" fill="#838686" transform="matrix(1.00, 0.00, -0.00, -1.00, 450.3, 160.0)">i</text><text xml:space="preserve" font-family="AvenirNext-Medium" font-size="36.0" fill="#838686" transform="matrix(1.00, 0.00, -0.00, -1.00, 459.6, 160.0)">n</text><text xml:space="preserve" font-family="AvenirNext-Medium" font-size="36.0" fill="#838686" transform="matrix(1.00, 0.00, -0.00, -1.00, 480.6, 160.0)">c</text><text xml:space="preserve" font-family="AvenirNext-Medium" font-size="36.0" fill="#838686" transform="matrix(1.00, 0.00, -0.00, -1.00, 498.4, 160.0)">i</text><text xml:space="preserve" font-family="AvenirNext-Medium" font-size="36.0" fill="#838686" transform="matrix(1.00, 0.00, -0.00, -1.00, 507.7, 160.0)">p</text><text xml:space="preserve" font-family="AvenirNext-Medium" font-size="36.0" fill="#838686" transform="matrix(1.00, 0.00, -0.00, -1.00, 530.5, 160.0)">l</text><text xml:space="preserve" font-family="AvenirNext-Medium" font-size="36.0" fill="#838686" transform="matrix(1.00, 0.00, -0.00, -1.00, 539.9, 160.0)">e</text></g></svg>