<?xml version="1.0" encoding="UTF-8" standalone="no"?><svg xmlns="http://www.w3.org/2000/svg" xmlns:xlink="http://www.w3.org/1999/xlink" clip-rule="evenodd" stroke-miterlimit="4.00" viewBox="0 0 522 39"><desc>SVG generated by Keynote</desc><defs></defs><g transform="matrix(1.00, 0.00, -0.00, -1.00, 0.0, 39.0)"><text xml:space="preserve" font-family="AvenirNext-Medium" font-size="36.0" fill="#34A4DA" transform="matrix(1.00, 0.00, -0.00, -1.00, -2.0, 10.0)">D</text><text xml:space="preserve" font-family="AvenirNext-Medium" font-size="36.0" fill="#838686" transform="matrix(1.00, 0.00, -0.00, -1.00, 25.4, 10.0)">e</text><text xml:space="preserve" font-family="AvenirNext-Medium" font-size="36.0" fill="#838686" transform="matrix(1.00, 0.00, -0.00, -1.00, 46.0, 10.0)">p</text><text xml:space="preserve" font-family="AvenirNext-Medium" font-size="36.0" fill="#838686" transform="matrix(1.00, 0.00, -0.00, -1.00, 68.8, 10.0)">e</text><text xml:space="preserve" font-family="AvenirNext-Medium" font-size="36.0" fill="#838686" transform="matrix(1.00, 0.00, -0.00, -1.00, 89.5, 10.0)">n</text><text xml:space="preserve" font-family="AvenirNext-Medium" font-size="36.0" fill="#838686" transform="matrix(1.00, 0.00, -0.00, -1.00, 110.4, 10.0)">d</text><text xml:space="preserve" font-family="AvenirNext-Medium" font-size="36.0" fill="#838686" transform="matrix(1.00, 0.00, -0.00, -1.00, 133.3, 10.0)">e</text><text xml:space="preserve" font-family="AvenirNext-Medium" font-size="36.0" fill="#838686" transform="matrix(1.00, 0.00, -0.00, -1.00, 153.9, 10.0)">n</text><text xml:space="preserve" font-family="AvenirNext-Medium" font-size="36.0" fill="#838686" transform="matrix(1.00, 0.00, -0.00, -1.00, 174.9, 10.0)">c</text><text xml:space="preserve" font-family="AvenirNext-Medium" font-size="36.0" fill="#838686" transform="matrix(1.00, 0.00, -0.00, -1.00, 192.7, 10.0)">y</text><text xml:space="preserve" font-family="AvenirNext-Medium" font-size="36.0" fill="#838686" transform="matrix(1.00, 0.00, -0.00, -1.00, 210.8, 10.0)"> </text><text xml:space="preserve" font-family="AvenirNext-Medium" font-size="36.0" fill="#838686" transform="matrix(1.00, 0.00, -0.00, -1.00, 219.8, 10.0)">I</text><text xml:space="preserve" font-family="AvenirNext-Medium" font-size="36.0" fill="#838686" transform="matrix(1.00, 0.00, -0.00, -1.00, 229.6, 10.0)">n</text><text xml:space="preserve" font-family="AvenirNext-Medium" font-size="36.0" fill="#838686" transform="matrix(1.00, 0.00, -0.00, -1.00, 250.5, 10.0)">v</text><text xml:space="preserve" font-family="AvenirNext-Medium" font-size="36.0" fill="#838686" transform="matrix(1.00, 0.00, -0.00, -1.00, 268.6, 10.0)">e</text><text xml:space="preserve" font-family="AvenirNext-Medium" font-size="36.0" fill="#838686" transform="matrix(1.00, 0.00, -0.00, -1.00, 289.3, 10.0)">r</text><text xml:space="preserve" font-family="AvenirNext-Medium" font-size="36.0" fill="#838686" transform="matrix(1.00, 0.00, -0.00, -1.00, 302.3, 10.0)">s</text><text xml:space="preserve" font-family="AvenirNext-Medium" font-size="36.0" fill="#838686" transform="matrix(1.00, 0.00, -0.00, -1.00, 318.3, 10.0)">i</text><text xml:space="preserve" font-family="AvenirNext-Medium" font-size="36.0" fill="#838686" transform="matrix(1.00, 0.00, -0.00, -1.00, 327.6, 10.0)">o</text><text xml:space="preserve" font-family="AvenirNext-Medium" font-size="36.0" fill="#838686" transform="matrix(1.00, 0.00, -0.00, -1.00, 349.6, 10.0)">n</text><text xml:space="preserve" font-family="AvenirNext-Medium" font-size="36.0" fill="#838686" transform="matrix(1.00, 0.00, -0.00, -1.00, 370.5, 10.0)"> </text><text xml:space="preserve" font-family="AvenirNext-Medium" font-size="36.0" fill="#838686" transform="matrix(1.00, 0.00, -0.00, -1.00, 379.5, 10.0)">P</text><text xml:space="preserve" font-family="AvenirNext-Medium" font-size="36.0" fill="#838686" transform="matrix(1.00, 0.00, -0.00, -1.00, 399.3, 10.0)">r</text><text xml:space="preserve" font-family="AvenirNext-Medium" font-size="36.0" fill="#838686" transform="matrix(1.00, 0.00, -0.00, -1.00, 412.3, 10.0)">i</text><text xml:space="preserve" font-family="AvenirNext-Medium" font-size="36.0" fill="#838686" transform="matrix(1.00, 0.00, -0.00, -1.00, 421.6, 10.0)">n</text><text xml:space="preserve" font-family="AvenirNext-Medium" font-size="36.0" fill="#838686" transform="matrix(1.00, 0.00, -0.00, -1.00, 442.6, 10.0)">c</text><text xml:space="preserve" font-family="AvenirNext-Medium" font-size="36.0" fill="#838686" transform="matrix(1.00, 0.00, -0.00, -1.00, 460.4, 10.0)">i</text><text xml:space="preserve" font-family="AvenirNext-Medium" font-size="36.0" fill="#838686" transform="matrix(1.00, 0.00, -0.00, -1.00, 469.7, 10.0)">p</text><text xml:space="preserve" font-family="AvenirNext-Medium" font-size="36.0" fill="#838686" transform="matrix(1.00, 0.00, -0.00, -1.00, 492.5, 10.0)">l</text><text xml:space="preserve" font-family="AvenirNext-Medium" font-size="36.0" fill="#838686" transform="matrix(1.00, 0.00, -0.00, -1.00, 501.9, 10.0)">e</text></g></svg>