<?xml version="1.0" encoding="UTF-8" standalone="no"?><svg xmlns="http://www.w3.org/2000/svg" xmlns:xlink="http://www.w3.org/1999/xlink" clip-rule="evenodd" stroke-miterlimit="4.00" viewBox="0 0 511 53"><desc>SVG generated by Keynote</desc><defs></defs><g transform="matrix(1.00, 0.00, -0.00, -1.00, 0.0, 53.0)"><text xml:space="preserve" font-family="AvenirNext-Medium" font-size="50.0" fill="#34A4DA" transform="matrix(1.00, 0.00, -0.00, -1.00, -1.0, 13.0)">O</text><text xml:space="preserve" font-family="AvenirNext-Medium" font-size="50.0" fill="#838686" transform="matrix(1.00, 0.00, -0.00, -1.00, 41.5, 13.0)">p</text><text xml:space="preserve" font-family="AvenirNext-Medium" font-size="50.0" fill="#838686" transform="matrix(1.00, 0.00, -0.00, -1.00, 73.2, 13.0)">e</text><text xml:space="preserve" font-family="AvenirNext-Medium" font-size="50.0" fill="#838686" transform="matrix(1.00, 0.00, -0.00, -1.00, 101.8, 13.0)">n</text><text xml:space="preserve" font-family="AvenirNext-Medium" font-size="50.0" fill="#838686" transform="matrix(1.00, 0.00, -0.00, -1.00, 130.9, 13.0)">/</text><text xml:space="preserve" font-family="AvenirNext-Medium" font-size="50.0" fill="#838686" transform="matrix(1.00, 0.00, -0.00, -1.00, 149.9, 13.0)">c</text><text xml:space="preserve" font-family="AvenirNext-Medium" font-size="50.0" fill="#838686" transform="matrix(1.00, 0.00, -0.00, -1.00, 174.6, 13.0)">l</text><text xml:space="preserve" font-family="AvenirNext-Medium" font-size="50.0" fill="#838686" transform="matrix(1.00, 0.00, -0.00, -1.00, 187.6, 13.0)">o</text><text xml:space="preserve" font-family="AvenirNext-Medium" font-size="50.0" fill="#838686" transform="matrix(1.00, 0.00, -0.00, -1.00, 218.1, 13.0)">s</text><text xml:space="preserve" font-family="AvenirNext-Medium" font-size="50.0" fill="#838686" transform="matrix(1.00, 0.00, -0.00, -1.00, 240.3, 13.0)">e</text><text xml:space="preserve" font-family="AvenirNext-Medium" font-size="50.0" fill="#838686" transform="matrix(1.00, 0.00, -0.00, -1.00, 268.9, 13.0)">d</text><text xml:space="preserve" font-family="AvenirNext-Medium" font-size="50.0" fill="#838686" transform="matrix(1.00, 0.00, -0.00, -1.00, 300.7, 13.0)"> </text><text xml:space="preserve" font-family="AvenirNext-Medium" font-size="50.0" fill="#838686" transform="matrix(1.00, 0.00, -0.00, -1.00, 313.2, 13.0)">P</text><text xml:space="preserve" font-family="AvenirNext-Medium" font-size="50.0" fill="#838686" transform="matrix(1.00, 0.00, -0.00, -1.00, 340.6, 13.0)">r</text><text xml:space="preserve" font-family="AvenirNext-Medium" font-size="50.0" fill="#838686" transform="matrix(1.00, 0.00, -0.00, -1.00, 358.8, 13.0)">i</text><text xml:space="preserve" font-family="AvenirNext-Medium" font-size="50.0" fill="#838686" transform="matrix(1.00, 0.00, -0.00, -1.00, 371.7, 13.0)">n</text><text xml:space="preserve" font-family="AvenirNext-Medium" font-size="50.0" fill="#838686" transform="matrix(1.00, 0.00, -0.00, -1.00, 400.8, 13.0)">c</text><text xml:space="preserve" font-family="AvenirNext-Medium" font-size="50.0" fill="#838686" transform="matrix(1.00, 0.00, -0.00, -1.00, 425.5, 13.0)">i</text><text xml:space="preserve" font-family="AvenirNext-Medium" font-size="50.0" fill="#838686" transform="matrix(1.00, 0.00, -0.00, -1.00, 438.4, 13.0)">p</text><text xml:space="preserve" font-family="AvenirNext-Medium" font-size="50.0" fill="#838686" transform="matrix(1.00, 0.00, -0.00, -1.00, 470.1, 13.0)">l</text><text xml:space="preserve" font-family="AvenirNext-Medium" font-size="50.0" fill="#838686" transform="matrix(1.00, 0.00, -0.00, -1.00, 483.1, 13.0)">e</text></g></svg>