<?xml version="1.0" encoding="UTF-8" standalone="no"?><svg xmlns="http://www.w3.org/2000/svg" xmlns:xlink="http://www.w3.org/1999/xlink" clip-rule="evenodd" stroke-miterlimit="4.00" viewBox="0 0 1024 768"><desc>SVG generated by Keynote</desc><defs></defs><g transform="matrix(1.00, 0.00, -0.00, -1.00, 0.0, 768.0)"><path d="M 0.0 768.0 L 1024.0 768.0 L 1024.0 0.0 L 0.0 0.0 Z M 0.0 768.0 " fill="#FFFFFF"></path><text xml:space="preserve" font-family="Monaco" font-size="28.0" fill="#285E99" transform="matrix(1.00, 0.00, -0.00, -1.00, 36.0, 615.0)">c</text><text xml:space="preserve" font-family="Monaco" font-size="28.0" fill="#285E99" transform="matrix(1.00, 0.00, -0.00, -1.00, 52.8, 615.0)">l</text><text xml:space="preserve" font-family="Monaco" font-size="28.0" fill="#285E99" transform="matrix(1.00, 0.00, -0.00, -1.00, 69.6, 615.0)">a</text><text xml:space="preserve" font-family="Monaco" font-size="28.0" fill="#285E99" transform="matrix(1.00, 0.00, -0.00, -1.00, 86.4, 615.0)">s</text><text xml:space="preserve" font-family="Monaco" font-size="28.0" fill="#285E99" transform="matrix(1.00, 0.00, -0.00, -1.00, 103.2, 615.0)">s</text><text xml:space="preserve" font-family="Monaco" font-size="28.0" fill="#000000" transform="matrix(1.00, 0.00, -0.00, -1.00, 120.0, 615.0)"> </text><text xml:space="preserve" font-family="Monaco" font-size="28.0" fill="#000000" transform="matrix(1.00, 0.00, -0.00, -1.00, 136.8, 615.0)">X</text><text xml:space="preserve" font-family="Monaco" font-size="28.0" fill="#000000" transform="matrix(1.00, 0.00, -0.00, -1.00, 153.6, 615.0)">M</text><text xml:space="preserve" font-family="Monaco" font-size="28.0" fill="#000000" transform="matrix(1.00, 0.00, -0.00, -1.00, 170.4, 615.0)">L</text><text xml:space="preserve" font-family="Monaco" font-size="28.0" fill="#000000" transform="matrix(1.00, 0.00, -0.00, -1.00, 187.2, 615.0)">P</text><text xml:space="preserve" font-family="Monaco" font-size="28.0" fill="#000000" transform="matrix(1.00, 0.00, -0.00, -1.00, 204.0, 615.0)">a</text><text xml:space="preserve" font-family="Monaco" font-size="28.0" fill="#000000" transform="matrix(1.00, 0.00, -0.00, -1.00, 220.8, 615.0)">r</text><text xml:space="preserve" font-family="Monaco" font-size="28.0" fill="#000000" transform="matrix(1.00, 0.00, -0.00, -1.00, 237.6, 615.0)">s</text><text xml:space="preserve" font-family="Monaco" font-size="28.0" fill="#000000" transform="matrix(1.00, 0.00, -0.00, -1.00, 254.5, 615.0)">e</text><text xml:space="preserve" font-family="Monaco" font-size="28.0" fill="#000000" transform="matrix(1.00, 0.00, -0.00, -1.00, 271.3, 615.0)">r</text><g><clipPath id="clip-33"><path d="M 135.8 612.2 L 288.0 612.2 L 288.0 616.3 L 135.8 616.3 Z M 135.8 612.2 "></path></clipPath><g clip-path="url(#clip-33)"><path d="M 104.8 32.7 L 256.0 32.7 " fill="none" stroke="#000000" stroke-width="2.12" stroke-miterlimit="0.00" transform="matrix(1.00, 0.00, 0.00, -1.00, 32.0, 647.0)"></path></g></g><text xml:space="preserve" font-family="Monaco" font-size="28.0" fill="#000000" transform="matrix(1.00, 0.00, -0.00, -1.00, 36.0, 578.0)"> </text><text xml:space="preserve" font-family="Monaco" font-size="28.0" fill="#000000" transform="matrix(1.00, 0.00, -0.00, -1.00, 52.8, 578.0)"> </text><text xml:space="preserve" font-family="Monaco" font-size="28.0" fill="#285E99" transform="matrix(1.00, 0.00, -0.00, -1.00, 69.6, 578.0)">d</text><text xml:space="preserve" font-family="Monaco" font-size="28.0" fill="#285E99" transform="matrix(1.00, 0.00, -0.00, -1.00, 86.4, 578.0)">e</text><text xml:space="preserve" font-family="Monaco" font-size="28.0" fill="#285E99" transform="matrix(1.00, 0.00, -0.00, -1.00, 103.2, 578.0)">f</text><text xml:space="preserve" font-family="Monaco" font-size="28.0" fill="#000000" transform="matrix(1.00, 0.00, -0.00, -1.00, 120.0, 578.0)"> </text><text xml:space="preserve" font-family="Monaco" font-size="28.0" fill="#000000" transform="matrix(1.00, 0.00, -0.00, -1.00, 136.8, 578.0)">p</text><text xml:space="preserve" font-family="Monaco" font-size="28.0" fill="#000000" transform="matrix(1.00, 0.00, -0.00, -1.00, 153.6, 578.0)">a</text><text xml:space="preserve" font-family="Monaco" font-size="28.0" fill="#000000" transform="matrix(1.00, 0.00, -0.00, -1.00, 170.4, 578.0)">r</text><text xml:space="preserve" font-family="Monaco" font-size="28.0" fill="#000000" transform="matrix(1.00, 0.00, -0.00, -1.00, 187.2, 578.0)">s</text><text xml:space="preserve" font-family="Monaco" font-size="28.0" fill="#000000" transform="matrix(1.00, 0.00, -0.00, -1.00, 204.0, 578.0)">e</text><text xml:space="preserve" font-family="Monaco" font-size="28.0" fill="#000000" transform="matrix(1.00, 0.00, -0.00, -1.00, 36.0, 541.0)"> </text><text xml:space="preserve" font-family="Monaco" font-size="28.0" fill="#000000" transform="matrix(1.00, 0.00, -0.00, -1.00, 52.8, 541.0)"> </text><text xml:space="preserve" font-family="Monaco" font-size="28.0" fill="#000000" transform="matrix(1.00, 0.00, -0.00, -1.00, 69.6, 541.0)"> </text><text xml:space="preserve" font-family="Monaco" font-size="28.0" fill="#000000" transform="matrix(1.00, 0.00, -0.00, -1.00, 86.4, 541.0)"> </text><text xml:space="preserve" font-family="Monaco" font-size="28.0" fill="#A16B00" transform="matrix(1.00, 0.00, -0.00, -1.00, 103.2, 541.0)">#</text><text xml:space="preserve" font-family="Monaco" font-size="28.0" fill="#A16B00" transform="matrix(1.00, 0.00, -0.00, -1.00, 120.0, 541.0)"> </text><text xml:space="preserve" font-family="Monaco" font-size="28.0" fill="#A16B00" transform="matrix(1.00, 0.00, -0.00, -1.00, 136.8, 541.0)">P</text><text xml:space="preserve" font-family="Monaco" font-size="28.0" fill="#A16B00" transform="matrix(1.00, 0.00, -0.00, -1.00, 153.6, 541.0)">a</text><text xml:space="preserve" font-family="Monaco" font-size="28.0" fill="#A16B00" transform="matrix(1.00, 0.00, -0.00, -1.00, 170.4, 541.0)">r</text><text xml:space="preserve" font-family="Monaco" font-size="28.0" fill="#A16B00" transform="matrix(1.00, 0.00, -0.00, -1.00, 187.2, 541.0)">s</text><text xml:space="preserve" font-family="Monaco" font-size="28.0" fill="#A16B00" transform="matrix(1.00, 0.00, -0.00, -1.00, 204.0, 541.0)">e</text><text xml:space="preserve" font-family="Monaco" font-size="28.0" fill="#A16B00" transform="matrix(1.00, 0.00, -0.00, -1.00, 220.8, 541.0)"> </text><text xml:space="preserve" font-family="Monaco" font-size="28.0" fill="#A16B00" transform="matrix(1.00, 0.00, -0.00, -1.00, 237.7, 541.0)">X</text><text xml:space="preserve" font-family="Monaco" font-size="28.0" fill="#A16B00" transform="matrix(1.00, 0.00, -0.00, -1.00, 254.5, 541.0)">M</text><text xml:space="preserve" font-family="Monaco" font-size="28.0" fill="#A16B00" transform="matrix(1.00, 0.00, -0.00, -1.00, 271.3, 541.0)">L</text><text xml:space="preserve" font-family="Monaco" font-size="28.0" fill="#000000" transform="matrix(1.00, 0.00, -0.00, -1.00, 36.0, 504.0)"> </text><text xml:space="preserve" font-family="Monaco" font-size="28.0" fill="#000000" transform="matrix(1.00, 0.00, -0.00, -1.00, 52.8, 504.0)"> </text><text xml:space="preserve" font-family="Monaco" font-size="28.0" fill="#285E99" transform="matrix(1.00, 0.00, -0.00, -1.00, 69.6, 504.0)">e</text><text xml:space="preserve" font-family="Monaco" font-size="28.0" fill="#285E99" transform="matrix(1.00, 0.00, -0.00, -1.00, 86.4, 504.0)">n</text><text xml:space="preserve" font-family="Monaco" font-size="28.0" fill="#285E99" transform="matrix(1.00, 0.00, -0.00, -1.00, 103.2, 504.0)">d</text><text xml:space="preserve" font-family="Monaco" font-size="28.0" fill="#285E99" transform="matrix(1.00, 0.00, -0.00, -1.00, 36.0, 467.0)">e</text><text xml:space="preserve" font-family="Monaco" font-size="28.0" fill="#285E99" transform="matrix(1.00, 0.00, -0.00, -1.00, 52.8, 467.0)">n</text><text xml:space="preserve" font-family="Monaco" font-size="28.0" fill="#285E99" transform="matrix(1.00, 0.00, -0.00, -1.00, 69.6, 467.0)">d</text><text xml:space="preserve" font-family="Monaco" font-size="28.0" fill="#285E99" transform="matrix(1.00, 0.00, -0.00, -1.00, 36.0, 393.0)">c</text><text xml:space="preserve" font-family="Monaco" font-size="28.0" fill="#285E99" transform="matrix(1.00, 0.00, -0.00, -1.00, 52.8, 393.0)">l</text><text xml:space="preserve" font-family="Monaco" font-size="28.0" fill="#285E99" transform="matrix(1.00, 0.00, -0.00, -1.00, 69.6, 393.0)">a</text><text xml:space="preserve" font-family="Monaco" font-size="28.0" fill="#285E99" transform="matrix(1.00, 0.00, -0.00, -1.00, 86.4, 393.0)">s</text><text xml:space="preserve" font-family="Monaco" font-size="28.0" fill="#285E99" transform="matrix(1.00, 0.00, -0.00, -1.00, 103.2, 393.0)">s</text><text xml:space="preserve" font-family="Monaco" font-size="28.0" fill="#000000" transform="matrix(1.00, 0.00, -0.00, -1.00, 120.0, 393.0)"> </text><text xml:space="preserve" font-family="Monaco" font-size="28.0" fill="#000000" transform="matrix(1.00, 0.00, -0.00, -1.00, 136.8, 393.0)">C</text><text xml:space="preserve" font-family="Monaco" font-size="28.0" fill="#000000" transform="matrix(1.00, 0.00, -0.00, -1.00, 153.6, 393.0)">S</text><text xml:space="preserve" font-family="Monaco" font-size="28.0" fill="#000000" transform="matrix(1.00, 0.00, -0.00, -1.00, 170.4, 393.0)">V</text><text xml:space="preserve" font-family="Monaco" font-size="28.0" fill="#000000" transform="matrix(1.00, 0.00, -0.00, -1.00, 187.2, 393.0)">P</text><text xml:space="preserve" font-family="Monaco" font-size="28.0" fill="#000000" transform="matrix(1.00, 0.00, -0.00, -1.00, 204.0, 393.0)">a</text><text xml:space="preserve" font-family="Monaco" font-size="28.0" fill="#000000" transform="matrix(1.00, 0.00, -0.00, -1.00, 220.8, 393.0)">r</text><text xml:space="preserve" font-family="Monaco" font-size="28.0" fill="#000000" transform="matrix(1.00, 0.00, -0.00, -1.00, 237.6, 393.0)">s</text><text xml:space="preserve" font-family="Monaco" font-size="28.0" fill="#000000" transform="matrix(1.00, 0.00, -0.00, -1.00, 254.5, 393.0)">e</text><text xml:space="preserve" font-family="Monaco" font-size="28.0" fill="#000000" transform="matrix(1.00, 0.00, -0.00, -1.00, 271.3, 393.0)">r</text><g><clipPath id="clip-34"><path d="M 135.8 390.2 L 288.0 390.2 L 288.0 394.3 L 135.8 394.3 Z M 135.8 390.2 "></path></clipPath><g clip-path="url(#clip-34)"><path d="M 104.8 254.7 L 256.0 254.7 " fill="none" stroke="#000000" stroke-width="2.12" stroke-miterlimit="0.00" transform="matrix(1.00, 0.00, 0.00, -1.00, 32.0, 647.0)"></path></g></g><text xml:space="preserve" font-family="Monaco" font-size="28.0" fill="#000000" transform="matrix(1.00, 0.00, -0.00, -1.00, 36.0, 356.0)"> </text><text xml:space="preserve" font-family="Monaco" font-size="28.0" fill="#000000" transform="matrix(1.00, 0.00, -0.00, -1.00, 52.8, 356.0)"> </text><text xml:space="preserve" font-family="Monaco" font-size="28.0" fill="#285E99" transform="matrix(1.00, 0.00, -0.00, -1.00, 69.6, 356.0)">d</text><text xml:space="preserve" font-family="Monaco" font-size="28.0" fill="#285E99" transform="matrix(1.00, 0.00, -0.00, -1.00, 86.4, 356.0)">e</text><text xml:space="preserve" font-family="Monaco" font-size="28.0" fill="#285E99" transform="matrix(1.00, 0.00, -0.00, -1.00, 103.2, 356.0)">f</text><text xml:space="preserve" font-family="Monaco" font-size="28.0" fill="#000000" transform="matrix(1.00, 0.00, -0.00, -1.00, 120.0, 356.0)"> </text><text xml:space="preserve" font-family="Monaco" font-size="28.0" fill="#000000" transform="matrix(1.00, 0.00, -0.00, -1.00, 136.8, 356.0)">p</text><text xml:space="preserve" font-family="Monaco" font-size="28.0" fill="#000000" transform="matrix(1.00, 0.00, -0.00, -1.00, 153.6, 356.0)">a</text><text xml:space="preserve" font-family="Monaco" font-size="28.0" fill="#000000" transform="matrix(1.00, 0.00, -0.00, -1.00, 170.4, 356.0)">r</text><text xml:space="preserve" font-family="Monaco" font-size="28.0" fill="#000000" transform="matrix(1.00, 0.00, -0.00, -1.00, 187.2, 356.0)">s</text><text xml:space="preserve" font-family="Monaco" font-size="28.0" fill="#000000" transform="matrix(1.00, 0.00, -0.00, -1.00, 204.0, 356.0)">e</text><text xml:space="preserve" font-family="Monaco" font-size="28.0" fill="#000000" transform="matrix(1.00, 0.00, -0.00, -1.00, 36.0, 319.0)"> </text><text xml:space="preserve" font-family="Monaco" font-size="28.0" fill="#000000" transform="matrix(1.00, 0.00, -0.00, -1.00, 52.8, 319.0)"> </text><text xml:space="preserve" font-family="Monaco" font-size="28.0" fill="#000000" transform="matrix(1.00, 0.00, -0.00, -1.00, 69.6, 319.0)"> </text><text xml:space="preserve" font-family="Monaco" font-size="28.0" fill="#000000" transform="matrix(1.00, 0.00, -0.00, -1.00, 86.4, 319.0)"> </text><text xml:space="preserve" font-family="Monaco" font-size="28.0" fill="#A16B00" transform="matrix(1.00, 0.00, -0.00, -1.00, 103.2, 319.0)">#</text><text xml:space="preserve" font-family="Monaco" font-size="28.0" fill="#A16B00" transform="matrix(1.00, 0.00, -0.00, -1.00, 120.0, 319.0)"> </text><text xml:space="preserve" font-family="Monaco" font-size="28.0" fill="#A16B00" transform="matrix(1.00, 0.00, -0.00, -1.00, 136.8, 319.0)">P</text><text xml:space="preserve" font-family="Monaco" font-size="28.0" fill="#A16B00" transform="matrix(1.00, 0.00, -0.00, -1.00, 153.6, 319.0)">a</text><text xml:space="preserve" font-family="Monaco" font-size="28.0" fill="#A16B00" transform="matrix(1.00, 0.00, -0.00, -1.00, 170.4, 319.0)">r</text><text xml:space="preserve" font-family="Monaco" font-size="28.0" fill="#A16B00" transform="matrix(1.00, 0.00, -0.00, -1.00, 187.2, 319.0)">s</text><text xml:space="preserve" font-family="Monaco" font-size="28.0" fill="#A16B00" transform="matrix(1.00, 0.00, -0.00, -1.00, 204.0, 319.0)">e</text><text xml:space="preserve" font-family="Monaco" font-size="28.0" fill="#A16B00" transform="matrix(1.00, 0.00, -0.00, -1.00, 220.8, 319.0)"> </text><text xml:space="preserve" font-family="Monaco" font-size="28.0" fill="#A16B00" transform="matrix(1.00, 0.00, -0.00, -1.00, 237.7, 319.0)">C</text><text xml:space="preserve" font-family="Monaco" font-size="28.0" fill="#A16B00" transform="matrix(1.00, 0.00, -0.00, -1.00, 254.5, 319.0)">S</text><text xml:space="preserve" font-family="Monaco" font-size="28.0" fill="#A16B00" transform="matrix(1.00, 0.00, -0.00, -1.00, 271.3, 319.0)">V</text><text xml:space="preserve" font-family="Monaco" font-size="28.0" fill="#000000" transform="matrix(1.00, 0.00, -0.00, -1.00, 36.0, 282.0)"> </text><text xml:space="preserve" font-family="Monaco" font-size="28.0" fill="#000000" transform="matrix(1.00, 0.00, -0.00, -1.00, 52.8, 282.0)"> </text><text xml:space="preserve" font-family="Monaco" font-size="28.0" fill="#285E99" transform="matrix(1.00, 0.00, -0.00, -1.00, 69.6, 282.0)">e</text><text xml:space="preserve" font-family="Monaco" font-size="28.0" fill="#285E99" transform="matrix(1.00, 0.00, -0.00, -1.00, 86.4, 282.0)">n</text><text xml:space="preserve" font-family="Monaco" font-size="28.0" fill="#285E99" transform="matrix(1.00, 0.00, -0.00, -1.00, 103.2, 282.0)">d</text><text xml:space="preserve" font-family="Monaco" font-size="28.0" fill="#285E99" transform="matrix(1.00, 0.00, -0.00, -1.00, 36.0, 245.0)">e</text><text xml:space="preserve" font-family="Monaco" font-size="28.0" fill="#285E99" transform="matrix(1.00, 0.00, -0.00, -1.00, 52.8, 245.0)">n</text><text xml:space="preserve" font-family="Monaco" font-size="28.0" fill="#285E99" transform="matrix(1.00, 0.00, -0.00, -1.00, 69.6, 245.0)">d</text><text xml:space="preserve" font-family="DINCondensed-Bold" font-weight="bold" font-size="48.0" fill="#34A4DA" transform="matrix(1.00, 0.00, -0.00, -1.00, 36.0, 705.0)">O</text><text xml:space="preserve" font-family="DINCondensed-Bold" font-weight="bold" font-size="48.0" fill="#34A4DA" transform="matrix(1.00, 0.00, -0.00, -1.00, 56.4, 705.0)">P</text><text xml:space="preserve" font-family="DINCondensed-Bold" font-weight="bold" font-size="48.0" fill="#34A4DA" transform="matrix(1.00, 0.00, -0.00, -1.00, 76.0, 705.0)">E</text><text xml:space="preserve" font-family="DINCondensed-Bold" font-weight="bold" font-size="48.0" fill="#34A4DA" transform="matrix(1.00, 0.00, -0.00, -1.00, 93.7, 705.0)">N</text><text xml:space="preserve" font-family="DINCondensed-Bold" font-weight="bold" font-size="48.0" fill="#34A4DA" transform="matrix(1.00, 0.00, -0.00, -1.00, 115.1, 705.0)">/</text><text xml:space="preserve" font-family="DINCondensed-Bold" font-weight="bold" font-size="48.0" fill="#34A4DA" transform="matrix(1.00, 0.00, -0.00, -1.00, 125.7, 705.0)">C</text><text xml:space="preserve" font-family="DINCondensed-Bold" font-weight="bold" font-size="48.0" fill="#34A4DA" transform="matrix(1.00, 0.00, -0.00, -1.00, 145.2, 705.0)">L</text><text xml:space="preserve" font-family="DINCondensed-Bold" font-weight="bold" font-size="48.0" fill="#34A4DA" transform="matrix(1.00, 0.00, -0.00, -1.00, 163.0, 705.0)">O</text><text xml:space="preserve" font-family="DINCondensed-Bold" font-weight="bold" font-size="48.0" fill="#34A4DA" transform="matrix(1.00, 0.00, -0.00, -1.00, 183.5, 705.0)">S</text><text xml:space="preserve" font-family="DINCondensed-Bold" font-weight="bold" font-size="48.0" fill="#34A4DA" transform="matrix(1.00, 0.00, -0.00, -1.00, 202.9, 705.0)">E</text><text xml:space="preserve" font-family="DINCondensed-Bold" font-weight="bold" font-size="48.0" fill="#34A4DA" transform="matrix(1.00, 0.00, -0.00, -1.00, 220.7, 705.0)">D</text><text xml:space="preserve" font-family="DINCondensed-Bold" font-weight="bold" font-size="48.0" fill="#34A4DA" transform="matrix(1.00, 0.00, -0.00, -1.00, 241.2, 705.0)"> </text><text xml:space="preserve" font-family="DINCondensed-Bold" font-weight="bold" font-size="48.0" fill="#34A4DA" transform="matrix(1.00, 0.00, -0.00, -1.00, 250.1, 705.0)">P</text><text xml:space="preserve" font-family="DINCondensed-Bold" font-weight="bold" font-size="48.0" fill="#34A4DA" transform="matrix(1.00, 0.00, -0.00, -1.00, 269.6, 705.0)">R</text><text xml:space="preserve" font-family="DINCondensed-Bold" font-weight="bold" font-size="48.0" fill="#34A4DA" transform="matrix(1.00, 0.00, -0.00, -1.00, 290.1, 705.0)">I</text><text xml:space="preserve" font-family="DINCondensed-Bold" font-weight="bold" font-size="48.0" fill="#34A4DA" transform="matrix(1.00, 0.00, -0.00, -1.00, 299.9, 705.0)">N</text><text xml:space="preserve" font-family="DINCondensed-Bold" font-weight="bold" font-size="48.0" fill="#34A4DA" transform="matrix(1.00, 0.00, -0.00, -1.00, 321.2, 705.0)">C</text><text xml:space="preserve" font-family="DINCondensed-Bold" font-weight="bold" font-size="48.0" fill="#34A4DA" transform="matrix(1.00, 0.00, -0.00, -1.00, 340.7, 705.0)">I</text><text xml:space="preserve" font-family="DINCondensed-Bold" font-weight="bold" font-size="48.0" fill="#34A4DA" transform="matrix(1.00, 0.00, -0.00, -1.00, 350.5, 705.0)">P</text><text xml:space="preserve" font-family="DINCondensed-Bold" font-weight="bold" font-size="48.0" fill="#34A4DA" transform="matrix(1.00, 0.00, -0.00, -1.00, 370.0, 705.0)">L</text><text xml:space="preserve" font-family="DINCondensed-Bold" font-weight="bold" font-size="48.0" fill="#34A4DA" transform="matrix(1.00, 0.00, -0.00, -1.00, 387.8, 705.0)">E</text></g></svg>