<?xml version="1.0" encoding="UTF-8" standalone="no"?><svg xmlns="http://www.w3.org/2000/svg" xmlns:xlink="http://www.w3.org/1999/xlink" clip-rule="evenodd" stroke-miterlimit="4.00" viewBox="0 0 902 112"><desc>SVG generated by Keynote</desc><defs></defs><g transform="matrix(1.00, 0.00, -0.00, -1.00, 0.0, 112.0)"><text xml:space="preserve" font-family="AvenirNext-Medium" font-size="46.0" fill="#838686" transform="matrix(1.00, 0.00, -0.00, -1.00, 1.0, 76.0)">A</text><text xml:space="preserve" font-family="AvenirNext-Medium" font-size="46.0" fill="#838686" transform="matrix(1.00, 0.00, -0.00, -1.00, 32.9, 76.0)"> </text><text xml:space="preserve" font-family="AvenirNext-Medium" font-size="46.0" fill="#838686" transform="matrix(1.00, 0.00, -0.00, -1.00, 44.4, 76.0)">c</text><text xml:space="preserve" font-family="AvenirNext-Medium" font-size="46.0" fill="#838686" transform="matrix(1.00, 0.00, -0.00, -1.00, 67.1, 76.0)">l</text><text xml:space="preserve" font-family="AvenirNext-Medium" font-size="46.0" fill="#838686" transform="matrix(1.00, 0.00, -0.00, -1.00, 79.1, 76.0)">a</text><text xml:space="preserve" font-family="AvenirNext-Medium" font-size="46.0" fill="#838686" transform="matrix(1.00, 0.00, -0.00, -1.00, 104.0, 76.0)">s</text><text xml:space="preserve" font-family="AvenirNext-Medium" font-size="46.0" fill="#838686" transform="matrix(1.00, 0.00, -0.00, -1.00, 124.4, 76.0)">s</text><text xml:space="preserve" font-family="AvenirNext-Medium" font-size="46.0" fill="#838686" transform="matrix(1.00, 0.00, -0.00, -1.00, 144.8, 76.0)"> </text><text xml:space="preserve" font-family="AvenirNext-Medium" font-size="46.0" fill="#838686" transform="matrix(1.00, 0.00, -0.00, -1.00, 156.3, 76.0)">s</text><text xml:space="preserve" font-family="AvenirNext-Medium" font-size="46.0" fill="#838686" transform="matrix(1.00, 0.00, -0.00, -1.00, 176.8, 76.0)">h</text><text xml:space="preserve" font-family="AvenirNext-Medium" font-size="46.0" fill="#838686" transform="matrix(1.00, 0.00, -0.00, -1.00, 203.6, 76.0)">o</text><text xml:space="preserve" font-family="AvenirNext-Medium" font-size="46.0" fill="#838686" transform="matrix(1.00, 0.00, -0.00, -1.00, 231.7, 76.0)">u</text><text xml:space="preserve" font-family="AvenirNext-Medium" font-size="46.0" fill="#838686" transform="matrix(1.00, 0.00, -0.00, -1.00, 258.5, 76.0)">l</text><text xml:space="preserve" font-family="AvenirNext-Medium" font-size="46.0" fill="#838686" transform="matrix(1.00, 0.00, -0.00, -1.00, 270.4, 76.0)">d</text><text xml:space="preserve" font-family="AvenirNext-Medium" font-size="46.0" fill="#838686" transform="matrix(1.00, 0.00, -0.00, -1.00, 299.6, 76.0)"> </text><text xml:space="preserve" font-family="AvenirNext-Medium" font-size="46.0" fill="#838686" transform="matrix(1.00, 0.00, -0.00, -1.00, 311.1, 76.0)">h</text><text xml:space="preserve" font-family="AvenirNext-Medium" font-size="46.0" fill="#838686" transform="matrix(1.00, 0.00, -0.00, -1.00, 338.0, 76.0)">a</text><text xml:space="preserve" font-family="AvenirNext-Medium" font-size="46.0" fill="#838686" transform="matrix(1.00, 0.00, -0.00, -1.00, 362.9, 76.0)">v</text><text xml:space="preserve" font-family="AvenirNext-Medium" font-size="46.0" fill="#838686" transform="matrix(1.00, 0.00, -0.00, -1.00, 386.1, 76.0)">e</text><text xml:space="preserve" font-family="AvenirNext-Medium" font-size="46.0" fill="#838686" transform="matrix(1.00, 0.00, -0.00, -1.00, 412.5, 76.0)"> </text><text xml:space="preserve" font-family="AvenirNext-Medium" font-size="46.0" fill="#838686" transform="matrix(1.00, 0.00, -0.00, -1.00, 424.0, 76.0)">o</text><text xml:space="preserve" font-family="AvenirNext-Medium" font-size="46.0" fill="#838686" transform="matrix(1.00, 0.00, -0.00, -1.00, 452.0, 76.0)">n</text><text xml:space="preserve" font-family="AvenirNext-Medium" font-size="46.0" fill="#838686" transform="matrix(1.00, 0.00, -0.00, -1.00, 478.8, 76.0)">l</text><text xml:space="preserve" font-family="AvenirNext-Medium" font-size="46.0" fill="#838686" transform="matrix(1.00, 0.00, -0.00, -1.00, 490.8, 76.0)">y</text><text xml:space="preserve" font-family="AvenirNext-Medium" font-size="46.0" fill="#838686" transform="matrix(1.00, 0.00, -0.00, -1.00, 513.9, 76.0)"> </text><text xml:space="preserve" font-family="AvenirNext-Medium" font-size="46.0" fill="#838686" transform="matrix(1.00, 0.00, -0.00, -1.00, 525.4, 76.0)">o</text><text xml:space="preserve" font-family="AvenirNext-Medium" font-size="46.0" fill="#838686" transform="matrix(1.00, 0.00, -0.00, -1.00, 553.5, 76.0)">n</text><text xml:space="preserve" font-family="AvenirNext-Medium" font-size="46.0" fill="#838686" transform="matrix(1.00, 0.00, -0.00, -1.00, 580.3, 76.0)">e</text><text xml:space="preserve" font-family="AvenirNext-Medium" font-size="46.0" fill="#838686" transform="matrix(1.00, 0.00, -0.00, -1.00, 606.6, 76.0)"> </text><text xml:space="preserve" font-family="AvenirNext-Medium" font-size="46.0" fill="#838686" transform="matrix(1.00, 0.00, -0.00, -1.00, 618.1, 76.0)">r</text><text xml:space="preserve" font-family="AvenirNext-Medium" font-size="46.0" fill="#838686" transform="matrix(1.00, 0.00, -0.00, -1.00, 634.0, 76.0)">e</text><text xml:space="preserve" font-family="AvenirNext-Medium" font-size="46.0" fill="#838686" transform="matrix(1.00, 0.00, -0.00, -1.00, 660.3, 76.0)">s</text><text xml:space="preserve" font-family="AvenirNext-Medium" font-size="46.0" fill="#838686" transform="matrix(1.00, 0.00, -0.00, -1.00, 680.7, 76.0)">p</text><text xml:space="preserve" font-family="AvenirNext-Medium" font-size="46.0" fill="#838686" transform="matrix(1.00, 0.00, -0.00, -1.00, 709.9, 76.0)">o</text><text xml:space="preserve" font-family="AvenirNext-Medium" font-size="46.0" fill="#838686" transform="matrix(1.00, 0.00, -0.00, -1.00, 738.0, 76.0)">n</text><text xml:space="preserve" font-family="AvenirNext-Medium" font-size="46.0" fill="#838686" transform="matrix(1.00, 0.00, -0.00, -1.00, 764.7, 76.0)">s</text><text xml:space="preserve" font-family="AvenirNext-Medium" font-size="46.0" fill="#838686" transform="matrix(1.00, 0.00, -0.00, -1.00, 785.2, 76.0)">i</text><text xml:space="preserve" font-family="AvenirNext-Medium" font-size="46.0" fill="#838686" transform="matrix(1.00, 0.00, -0.00, -1.00, 797.1, 76.0)">b</text><text xml:space="preserve" font-family="AvenirNext-Medium" font-size="46.0" fill="#838686" transform="matrix(1.00, 0.00, -0.00, -1.00, 826.3, 76.0)">i</text><text xml:space="preserve" font-family="AvenirNext-Medium" font-size="46.0" fill="#838686" transform="matrix(1.00, 0.00, -0.00, -1.00, 838.2, 76.0)">l</text><text xml:space="preserve" font-family="AvenirNext-Medium" font-size="46.0" fill="#838686" transform="matrix(1.00, 0.00, -0.00, -1.00, 850.2, 76.0)">i</text><text xml:space="preserve" font-family="AvenirNext-Medium" font-size="46.0" fill="#838686" transform="matrix(1.00, 0.00, -0.00, -1.00, 862.1, 76.0)">t</text><text xml:space="preserve" font-family="AvenirNext-Medium" font-size="46.0" fill="#838686" transform="matrix(1.00, 0.00, -0.00, -1.00, 877.3, 76.0)">y</text><text xml:space="preserve" font-family="AvenirNext-Medium" font-size="46.0" fill="#838686" transform="matrix(1.00, 0.00, -0.00, -1.00, 900.4, 76.0)"> </text><text xml:space="preserve" font-family="AvenirNext-Medium" font-size="46.0" fill="#838686" transform="matrix(1.00, 0.00, -0.00, -1.00, 1.0, 13.0)">a</text><text xml:space="preserve" font-family="AvenirNext-Medium" font-size="46.0" fill="#838686" transform="matrix(1.00, 0.00, -0.00, -1.00, 25.9, 13.0)">n</text><text xml:space="preserve" font-family="AvenirNext-Medium" font-size="46.0" fill="#838686" transform="matrix(1.00, 0.00, -0.00, -1.00, 52.7, 13.0)">d</text><text xml:space="preserve" font-family="AvenirNext-Medium" font-size="46.0" fill="#838686" transform="matrix(1.00, 0.00, -0.00, -1.00, 81.9, 13.0)"> </text><text xml:space="preserve" font-family="AvenirNext-Medium" font-size="46.0" fill="#838686" transform="matrix(1.00, 0.00, -0.00, -1.00, 93.4, 13.0)">s</text><text xml:space="preserve" font-family="AvenirNext-Medium" font-size="46.0" fill="#838686" transform="matrix(1.00, 0.00, -0.00, -1.00, 113.8, 13.0)">h</text><text xml:space="preserve" font-family="AvenirNext-Medium" font-size="46.0" fill="#838686" transform="matrix(1.00, 0.00, -0.00, -1.00, 140.7, 13.0)">o</text><text xml:space="preserve" font-family="AvenirNext-Medium" font-size="46.0" fill="#838686" transform="matrix(1.00, 0.00, -0.00, -1.00, 168.8, 13.0)">u</text><text xml:space="preserve" font-family="AvenirNext-Medium" font-size="46.0" fill="#838686" transform="matrix(1.00, 0.00, -0.00, -1.00, 195.5, 13.0)">l</text><text xml:space="preserve" font-family="AvenirNext-Medium" font-size="46.0" fill="#838686" transform="matrix(1.00, 0.00, -0.00, -1.00, 207.5, 13.0)">d</text><text xml:space="preserve" font-family="AvenirNext-Medium" font-size="46.0" fill="#838686" transform="matrix(1.00, 0.00, -0.00, -1.00, 236.7, 13.0)"> </text><text xml:space="preserve" font-family="AvenirNext-Medium" font-size="46.0" fill="#838686" transform="matrix(1.00, 0.00, -0.00, -1.00, 248.2, 13.0)">f</text><text xml:space="preserve" font-family="AvenirNext-Medium" font-size="46.0" fill="#838686" transform="matrix(1.00, 0.00, -0.00, -1.00, 262.5, 13.0)">u</text><text xml:space="preserve" font-family="AvenirNext-Medium" font-size="46.0" fill="#838686" transform="matrix(1.00, 0.00, -0.00, -1.00, 289.2, 13.0)">l</text><text xml:space="preserve" font-family="AvenirNext-Medium" font-size="46.0" fill="#838686" transform="matrix(1.00, 0.00, -0.00, -1.00, 301.2, 13.0)">l</text><text xml:space="preserve" font-family="AvenirNext-Medium" font-size="46.0" fill="#838686" transform="matrix(1.00, 0.00, -0.00, -1.00, 313.2, 13.0)">y</text><text xml:space="preserve" font-family="AvenirNext-Medium" font-size="46.0" fill="#838686" transform="matrix(1.00, 0.00, -0.00, -1.00, 336.3, 13.0)"> </text><text xml:space="preserve" font-family="AvenirNext-Medium" font-size="46.0" fill="#838686" transform="matrix(1.00, 0.00, -0.00, -1.00, 347.8, 13.0)">e</text><text xml:space="preserve" font-family="AvenirNext-Medium" font-size="46.0" fill="#838686" transform="matrix(1.00, 0.00, -0.00, -1.00, 373.7, 13.0)">x</text><text xml:space="preserve" font-family="AvenirNext-Medium" font-size="46.0" fill="#838686" transform="matrix(1.00, 0.00, -0.00, -1.00, 396.8, 13.0)">e</text><text xml:space="preserve" font-family="AvenirNext-Medium" font-size="46.0" fill="#838686" transform="matrix(1.00, 0.00, -0.00, -1.00, 423.1, 13.0)">c</text><text xml:space="preserve" font-family="AvenirNext-Medium" font-size="46.0" fill="#838686" transform="matrix(1.00, 0.00, -0.00, -1.00, 445.9, 13.0)">u</text><text xml:space="preserve" font-family="AvenirNext-Medium" font-size="46.0" fill="#838686" transform="matrix(1.00, 0.00, -0.00, -1.00, 472.6, 13.0)">t</text><text xml:space="preserve" font-family="AvenirNext-Medium" font-size="46.0" fill="#838686" transform="matrix(1.00, 0.00, -0.00, -1.00, 487.8, 13.0)">e</text><text xml:space="preserve" font-family="AvenirNext-Medium" font-size="46.0" fill="#838686" transform="matrix(1.00, 0.00, -0.00, -1.00, 514.1, 13.0)"> </text><text xml:space="preserve" font-family="AvenirNext-Medium" font-size="46.0" fill="#838686" transform="matrix(1.00, 0.00, -0.00, -1.00, 525.6, 13.0)">i</text><text xml:space="preserve" font-family="AvenirNext-Medium" font-size="46.0" fill="#838686" transform="matrix(1.00, 0.00, -0.00, -1.00, 537.5, 13.0)">t</text><text xml:space="preserve" font-family="AvenirNext-Medium" font-size="46.0" fill="#838686" transform="matrix(1.00, 0.00, -0.00, -1.00, 552.7, 13.0)">.</text></g></svg>