<?xml version="1.0" encoding="UTF-8" standalone="no"?><svg xmlns="http://www.w3.org/2000/svg" xmlns:xlink="http://www.w3.org/1999/xlink" clip-rule="evenodd" stroke-miterlimit="4.00" viewBox="0 0 1024 768"><desc>SVG generated by Keynote</desc><defs></defs><g transform="matrix(1.00, 0.00, -0.00, -1.00, 0.0, 768.0)"><path d="M 0.0 768.0 L 1024.0 768.0 L 1024.0 0.0 L 0.0 0.0 Z M 0.0 768.0 " fill="#FFFFFF"></path><path d="M 136.8 643.0 L 355.3 643.0 L 355.3 606.0 L 136.8 606.0 Z M 136.8 643.0 " fill="#FFE988"></path><path d="M 321.6 606.0 L 422.5 606.0 L 422.5 569.0 L 321.6 569.0 Z M 321.6 606.0 " fill="#FFE988"></path><path d="M 36.0 421.0 L 338.4 421.0 L 338.4 384.0 L 36.0 384.0 Z M 36.0 421.0 " fill="#FFE988"></path><text xml:space="preserve" font-family="Monaco" font-size="28.0" fill="#285E99" transform="matrix(1.00, 0.00, -0.00, -1.00, 36.0, 615.0)">c</text><text xml:space="preserve" font-family="Monaco" font-size="28.0" fill="#285E99" transform="matrix(1.00, 0.00, -0.00, -1.00, 52.8, 615.0)">l</text><text xml:space="preserve" font-family="Monaco" font-size="28.0" fill="#285E99" transform="matrix(1.00, 0.00, -0.00, -1.00, 69.6, 615.0)">a</text><text xml:space="preserve" font-family="Monaco" font-size="28.0" fill="#285E99" transform="matrix(1.00, 0.00, -0.00, -1.00, 86.4, 615.0)">s</text><text xml:space="preserve" font-family="Monaco" font-size="28.0" fill="#285E99" transform="matrix(1.00, 0.00, -0.00, -1.00, 103.2, 615.0)">s</text><text xml:space="preserve" font-family="Monaco" font-size="28.0" fill="#000000" transform="matrix(1.00, 0.00, -0.00, -1.00, 120.0, 615.0)"> </text><text xml:space="preserve" font-family="Monaco" font-size="28.0" fill="#000000" transform="matrix(1.00, 0.00, -0.00, -1.00, 136.8, 615.0)">P</text><text xml:space="preserve" font-family="Monaco" font-size="28.0" fill="#000000" transform="matrix(1.00, 0.00, -0.00, -1.00, 153.6, 615.0)">r</text><text xml:space="preserve" font-family="Monaco" font-size="28.0" fill="#000000" transform="matrix(1.00, 0.00, -0.00, -1.00, 170.4, 615.0)">o</text><text xml:space="preserve" font-family="Monaco" font-size="28.0" fill="#000000" transform="matrix(1.00, 0.00, -0.00, -1.00, 187.2, 615.0)">d</text><text xml:space="preserve" font-family="Monaco" font-size="28.0" fill="#000000" transform="matrix(1.00, 0.00, -0.00, -1.00, 204.0, 615.0)">u</text><text xml:space="preserve" font-family="Monaco" font-size="28.0" fill="#000000" transform="matrix(1.00, 0.00, -0.00, -1.00, 220.8, 615.0)">c</text><text xml:space="preserve" font-family="Monaco" font-size="28.0" fill="#000000" transform="matrix(1.00, 0.00, -0.00, -1.00, 237.6, 615.0)">t</text><text xml:space="preserve" font-family="Monaco" font-size="28.0" fill="#000000" transform="matrix(1.00, 0.00, -0.00, -1.00, 254.5, 615.0)">P</text><text xml:space="preserve" font-family="Monaco" font-size="28.0" fill="#000000" transform="matrix(1.00, 0.00, -0.00, -1.00, 271.3, 615.0)">a</text><text xml:space="preserve" font-family="Monaco" font-size="28.0" fill="#000000" transform="matrix(1.00, 0.00, -0.00, -1.00, 288.1, 615.0)">r</text><text xml:space="preserve" font-family="Monaco" font-size="28.0" fill="#000000" transform="matrix(1.00, 0.00, -0.00, -1.00, 304.9, 615.0)">s</text><text xml:space="preserve" font-family="Monaco" font-size="28.0" fill="#000000" transform="matrix(1.00, 0.00, -0.00, -1.00, 321.7, 615.0)">e</text><text xml:space="preserve" font-family="Monaco" font-size="28.0" fill="#000000" transform="matrix(1.00, 0.00, -0.00, -1.00, 338.5, 615.0)">r</text><g><clipPath id="clip-117"><path d="M 135.8 612.2 L 355.3 612.2 L 355.3 616.3 L 135.8 616.3 Z M 135.8 612.2 "></path></clipPath><g clip-path="url(#clip-117)"><path d="M 104.8 32.7 L 323.3 32.7 " fill="none" stroke="#000000" stroke-width="2.12" stroke-miterlimit="0.00" transform="matrix(1.00, 0.00, 0.00, -1.00, 32.0, 647.0)"></path></g></g><text xml:space="preserve" font-family="Monaco" font-size="28.0" fill="#000000" transform="matrix(1.00, 0.00, -0.00, -1.00, 36.0, 578.0)"> </text><text xml:space="preserve" font-family="Monaco" font-size="28.0" fill="#000000" transform="matrix(1.00, 0.00, -0.00, -1.00, 52.8, 578.0)"> </text><text xml:space="preserve" font-family="Monaco" font-size="28.0" fill="#285E99" transform="matrix(1.00, 0.00, -0.00, -1.00, 69.6, 578.0)">d</text><text xml:space="preserve" font-family="Monaco" font-size="28.0" fill="#285E99" transform="matrix(1.00, 0.00, -0.00, -1.00, 86.4, 578.0)">e</text><text xml:space="preserve" font-family="Monaco" font-size="28.0" fill="#285E99" transform="matrix(1.00, 0.00, -0.00, -1.00, 103.2, 578.0)">f</text><text xml:space="preserve" font-family="Monaco" font-size="28.0" fill="#000000" transform="matrix(1.00, 0.00, -0.00, -1.00, 120.0, 578.0)"> </text><text xml:space="preserve" font-family="Monaco" font-size="28.0" fill="#000000" transform="matrix(1.00, 0.00, -0.00, -1.00, 136.8, 578.0)">i</text><text xml:space="preserve" font-family="Monaco" font-size="28.0" fill="#000000" transform="matrix(1.00, 0.00, -0.00, -1.00, 153.6, 578.0)">n</text><text xml:space="preserve" font-family="Monaco" font-size="28.0" fill="#000000" transform="matrix(1.00, 0.00, -0.00, -1.00, 170.4, 578.0)">i</text><text xml:space="preserve" font-family="Monaco" font-size="28.0" fill="#000000" transform="matrix(1.00, 0.00, -0.00, -1.00, 187.2, 578.0)">t</text><text xml:space="preserve" font-family="Monaco" font-size="28.0" fill="#000000" transform="matrix(1.00, 0.00, -0.00, -1.00, 204.0, 578.0)">i</text><text xml:space="preserve" font-family="Monaco" font-size="28.0" fill="#000000" transform="matrix(1.00, 0.00, -0.00, -1.00, 220.8, 578.0)">a</text><text xml:space="preserve" font-family="Monaco" font-size="28.0" fill="#000000" transform="matrix(1.00, 0.00, -0.00, -1.00, 237.7, 578.0)">l</text><text xml:space="preserve" font-family="Monaco" font-size="28.0" fill="#000000" transform="matrix(1.00, 0.00, -0.00, -1.00, 254.5, 578.0)">i</text><text xml:space="preserve" font-family="Monaco" font-size="28.0" fill="#000000" transform="matrix(1.00, 0.00, -0.00, -1.00, 271.3, 578.0)">z</text><text xml:space="preserve" font-family="Monaco" font-size="28.0" fill="#000000" transform="matrix(1.00, 0.00, -0.00, -1.00, 288.1, 578.0)">e</text><text xml:space="preserve" font-family="Monaco" font-size="28.0" fill="#000000" transform="matrix(1.00, 0.00, -0.00, -1.00, 304.9, 578.0)">(</text><text xml:space="preserve" font-family="Monaco" font-size="28.0" fill="#000000" transform="matrix(1.00, 0.00, -0.00, -1.00, 321.6, 578.0)">p</text><text xml:space="preserve" font-family="Monaco" font-size="28.0" fill="#000000" transform="matrix(1.00, 0.00, -0.00, -1.00, 338.5, 578.0)">a</text><text xml:space="preserve" font-family="Monaco" font-size="28.0" fill="#000000" transform="matrix(1.00, 0.00, -0.00, -1.00, 355.3, 578.0)">r</text><text xml:space="preserve" font-family="Monaco" font-size="28.0" fill="#000000" transform="matrix(1.00, 0.00, -0.00, -1.00, 372.1, 578.0)">s</text><text xml:space="preserve" font-family="Monaco" font-size="28.0" fill="#000000" transform="matrix(1.00, 0.00, -0.00, -1.00, 388.9, 578.0)">e</text><text xml:space="preserve" font-family="Monaco" font-size="28.0" fill="#000000" transform="matrix(1.00, 0.00, -0.00, -1.00, 405.7, 578.0)">r</text><text xml:space="preserve" font-family="Monaco" font-size="28.0" fill="#000000" transform="matrix(1.00, 0.00, -0.00, -1.00, 422.5, 578.0)">)</text><text xml:space="preserve" font-family="Monaco" font-size="28.0" fill="#000000" transform="matrix(1.00, 0.00, -0.00, -1.00, 36.0, 541.0)"> </text><text xml:space="preserve" font-family="Monaco" font-size="28.0" fill="#000000" transform="matrix(1.00, 0.00, -0.00, -1.00, 52.8, 541.0)"> </text><text xml:space="preserve" font-family="Monaco" font-size="28.0" fill="#000000" transform="matrix(1.00, 0.00, -0.00, -1.00, 69.6, 541.0)"> </text><text xml:space="preserve" font-family="Monaco" font-size="28.0" fill="#000000" transform="matrix(1.00, 0.00, -0.00, -1.00, 86.4, 541.0)"> </text><text xml:space="preserve" font-family="Monaco" font-size="28.0" fill="#000000" transform="matrix(1.00, 0.00, -0.00, -1.00, 103.2, 541.0)">@</text><text xml:space="preserve" font-family="Monaco" font-size="28.0" fill="#000000" transform="matrix(1.00, 0.00, -0.00, -1.00, 120.0, 541.0)">p</text><text xml:space="preserve" font-family="Monaco" font-size="28.0" fill="#000000" transform="matrix(1.00, 0.00, -0.00, -1.00, 136.8, 541.0)">a</text><text xml:space="preserve" font-family="Monaco" font-size="28.0" fill="#000000" transform="matrix(1.00, 0.00, -0.00, -1.00, 153.6, 541.0)">r</text><text xml:space="preserve" font-family="Monaco" font-size="28.0" fill="#000000" transform="matrix(1.00, 0.00, -0.00, -1.00, 170.4, 541.0)">s</text><text xml:space="preserve" font-family="Monaco" font-size="28.0" fill="#000000" transform="matrix(1.00, 0.00, -0.00, -1.00, 187.2, 541.0)">e</text><text xml:space="preserve" font-family="Monaco" font-size="28.0" fill="#000000" transform="matrix(1.00, 0.00, -0.00, -1.00, 204.1, 541.0)">r</text><text xml:space="preserve" font-family="Monaco" font-size="28.0" fill="#000000" transform="matrix(1.00, 0.00, -0.00, -1.00, 220.9, 541.0)"> </text><text xml:space="preserve" font-family="Monaco" font-size="28.0" fill="#D97000" transform="matrix(1.00, 0.00, -0.00, -1.00, 237.6, 541.0)">=</text><text xml:space="preserve" font-family="Monaco" font-size="28.0" fill="#000000" transform="matrix(1.00, 0.00, -0.00, -1.00, 254.4, 541.0)"> </text><text xml:space="preserve" font-family="Monaco" font-size="28.0" fill="#000000" transform="matrix(1.00, 0.00, -0.00, -1.00, 271.2, 541.0)">p</text><text xml:space="preserve" font-family="Monaco" font-size="28.0" fill="#000000" transform="matrix(1.00, 0.00, -0.00, -1.00, 288.0, 541.0)">a</text><text xml:space="preserve" font-family="Monaco" font-size="28.0" fill="#000000" transform="matrix(1.00, 0.00, -0.00, -1.00, 304.9, 541.0)">r</text><text xml:space="preserve" font-family="Monaco" font-size="28.0" fill="#000000" transform="matrix(1.00, 0.00, -0.00, -1.00, 321.7, 541.0)">s</text><text xml:space="preserve" font-family="Monaco" font-size="28.0" fill="#000000" transform="matrix(1.00, 0.00, -0.00, -1.00, 338.5, 541.0)">e</text><text xml:space="preserve" font-family="Monaco" font-size="28.0" fill="#000000" transform="matrix(1.00, 0.00, -0.00, -1.00, 355.3, 541.0)">r</text><text xml:space="preserve" font-family="Monaco" font-size="28.0" fill="#000000" transform="matrix(1.00, 0.00, -0.00, -1.00, 36.0, 504.0)"> </text><text xml:space="preserve" font-family="Monaco" font-size="28.0" fill="#000000" transform="matrix(1.00, 0.00, -0.00, -1.00, 52.8, 504.0)"> </text><text xml:space="preserve" font-family="Monaco" font-size="28.0" fill="#285E99" transform="matrix(1.00, 0.00, -0.00, -1.00, 69.6, 504.0)">e</text><text xml:space="preserve" font-family="Monaco" font-size="28.0" fill="#285E99" transform="matrix(1.00, 0.00, -0.00, -1.00, 86.4, 504.0)">n</text><text xml:space="preserve" font-family="Monaco" font-size="28.0" fill="#285E99" transform="matrix(1.00, 0.00, -0.00, -1.00, 103.2, 504.0)">d</text><text xml:space="preserve" font-family="Monaco" font-size="28.0" fill="#000000" transform="matrix(1.00, 0.00, -0.00, -1.00, 36.0, 430.0)"> </text><text xml:space="preserve" font-family="Monaco" font-size="28.0" fill="#000000" transform="matrix(1.00, 0.00, -0.00, -1.00, 52.8, 430.0)"> </text><text xml:space="preserve" font-family="Monaco" font-size="28.0" fill="#285E99" transform="matrix(1.00, 0.00, -0.00, -1.00, 69.6, 430.0)">d</text><text xml:space="preserve" font-family="Monaco" font-size="28.0" fill="#285E99" transform="matrix(1.00, 0.00, -0.00, -1.00, 86.4, 430.0)">e</text><text xml:space="preserve" font-family="Monaco" font-size="28.0" fill="#285E99" transform="matrix(1.00, 0.00, -0.00, -1.00, 103.2, 430.0)">f</text><text xml:space="preserve" font-family="Monaco" font-size="28.0" fill="#000000" transform="matrix(1.00, 0.00, -0.00, -1.00, 120.0, 430.0)"> </text><text xml:space="preserve" font-family="Monaco" font-size="28.0" fill="#000000" transform="matrix(1.00, 0.00, -0.00, -1.00, 136.8, 430.0)">p</text><text xml:space="preserve" font-family="Monaco" font-size="28.0" fill="#000000" transform="matrix(1.00, 0.00, -0.00, -1.00, 153.6, 430.0)">a</text><text xml:space="preserve" font-family="Monaco" font-size="28.0" fill="#000000" transform="matrix(1.00, 0.00, -0.00, -1.00, 170.4, 430.0)">r</text><text xml:space="preserve" font-family="Monaco" font-size="28.0" fill="#000000" transform="matrix(1.00, 0.00, -0.00, -1.00, 187.2, 430.0)">s</text><text xml:space="preserve" font-family="Monaco" font-size="28.0" fill="#000000" transform="matrix(1.00, 0.00, -0.00, -1.00, 204.0, 430.0)">e</text><text xml:space="preserve" font-family="Monaco" font-size="28.0" fill="#000000" transform="matrix(1.00, 0.00, -0.00, -1.00, 36.0, 393.0)"> </text><text xml:space="preserve" font-family="Monaco" font-size="28.0" fill="#000000" transform="matrix(1.00, 0.00, -0.00, -1.00, 52.8, 393.0)"> </text><text xml:space="preserve" font-family="Monaco" font-size="28.0" fill="#000000" transform="matrix(1.00, 0.00, -0.00, -1.00, 69.6, 393.0)"> </text><text xml:space="preserve" font-family="Monaco" font-size="28.0" fill="#000000" transform="matrix(1.00, 0.00, -0.00, -1.00, 86.4, 393.0)"> </text><text xml:space="preserve" font-family="Monaco" font-size="28.0" fill="#000000" transform="matrix(1.00, 0.00, -0.00, -1.00, 103.2, 393.0)">@</text><text xml:space="preserve" font-family="Monaco" font-size="28.0" fill="#000000" transform="matrix(1.00, 0.00, -0.00, -1.00, 120.0, 393.0)">p</text><text xml:space="preserve" font-family="Monaco" font-size="28.0" fill="#000000" transform="matrix(1.00, 0.00, -0.00, -1.00, 136.8, 393.0)">a</text><text xml:space="preserve" font-family="Monaco" font-size="28.0" fill="#000000" transform="matrix(1.00, 0.00, -0.00, -1.00, 153.6, 393.0)">r</text><text xml:space="preserve" font-family="Monaco" font-size="28.0" fill="#000000" transform="matrix(1.00, 0.00, -0.00, -1.00, 170.4, 393.0)">s</text><text xml:space="preserve" font-family="Monaco" font-size="28.0" fill="#000000" transform="matrix(1.00, 0.00, -0.00, -1.00, 187.2, 393.0)">e</text><text xml:space="preserve" font-family="Monaco" font-size="28.0" fill="#000000" transform="matrix(1.00, 0.00, -0.00, -1.00, 204.1, 393.0)">r</text><text xml:space="preserve" font-family="Monaco" font-size="28.0" fill="#D97000" transform="matrix(1.00, 0.00, -0.00, -1.00, 220.8, 393.0)">.</text><text xml:space="preserve" font-family="Monaco" font-size="28.0" fill="#000000" transform="matrix(1.00, 0.00, -0.00, -1.00, 237.6, 393.0)">p</text><text xml:space="preserve" font-family="Monaco" font-size="28.0" fill="#000000" transform="matrix(1.00, 0.00, -0.00, -1.00, 254.4, 393.0)">a</text><text xml:space="preserve" font-family="Monaco" font-size="28.0" fill="#000000" transform="matrix(1.00, 0.00, -0.00, -1.00, 271.2, 393.0)">r</text><text xml:space="preserve" font-family="Monaco" font-size="28.0" fill="#000000" transform="matrix(1.00, 0.00, -0.00, -1.00, 288.0, 393.0)">s</text><text xml:space="preserve" font-family="Monaco" font-size="28.0" fill="#000000" transform="matrix(1.00, 0.00, -0.00, -1.00, 304.9, 393.0)">e</text><text xml:space="preserve" font-family="Monaco" font-size="28.0" fill="#000000" transform="matrix(1.00, 0.00, -0.00, -1.00, 36.0, 356.0)"> </text><text xml:space="preserve" font-family="Monaco" font-size="28.0" fill="#000000" transform="matrix(1.00, 0.00, -0.00, -1.00, 52.8, 356.0)"> </text><text xml:space="preserve" font-family="Monaco" font-size="28.0" fill="#285E99" transform="matrix(1.00, 0.00, -0.00, -1.00, 69.6, 356.0)">e</text><text xml:space="preserve" font-family="Monaco" font-size="28.0" fill="#285E99" transform="matrix(1.00, 0.00, -0.00, -1.00, 86.4, 356.0)">n</text><text xml:space="preserve" font-family="Monaco" font-size="28.0" fill="#285E99" transform="matrix(1.00, 0.00, -0.00, -1.00, 103.2, 356.0)">d</text><text xml:space="preserve" font-family="Monaco" font-size="28.0" fill="#285E99" transform="matrix(1.00, 0.00, -0.00, -1.00, 36.0, 319.0)">e</text><text xml:space="preserve" font-family="Monaco" font-size="28.0" fill="#285E99" transform="matrix(1.00, 0.00, -0.00, -1.00, 52.8, 319.0)">n</text><text xml:space="preserve" font-family="Monaco" font-size="28.0" fill="#285E99" transform="matrix(1.00, 0.00, -0.00, -1.00, 69.6, 319.0)">d</text><text xml:space="preserve" font-family="Monaco" font-size="28.0" fill="#000000" transform="matrix(1.00, 0.00, -0.00, -1.00, 36.0, 245.0)">P</text><text xml:space="preserve" font-family="Monaco" font-size="28.0" fill="#000000" transform="matrix(1.00, 0.00, -0.00, -1.00, 52.8, 245.0)">r</text><text xml:space="preserve" font-family="Monaco" font-size="28.0" fill="#000000" transform="matrix(1.00, 0.00, -0.00, -1.00, 69.6, 245.0)">o</text><text xml:space="preserve" font-family="Monaco" font-size="28.0" fill="#000000" transform="matrix(1.00, 0.00, -0.00, -1.00, 86.4, 245.0)">d</text><text xml:space="preserve" font-family="Monaco" font-size="28.0" fill="#000000" transform="matrix(1.00, 0.00, -0.00, -1.00, 103.2, 245.0)">u</text><text xml:space="preserve" font-family="Monaco" font-size="28.0" fill="#000000" transform="matrix(1.00, 0.00, -0.00, -1.00, 120.0, 245.0)">c</text><text xml:space="preserve" font-family="Monaco" font-size="28.0" fill="#000000" transform="matrix(1.00, 0.00, -0.00, -1.00, 136.8, 245.0)">t</text><text xml:space="preserve" font-family="Monaco" font-size="28.0" fill="#000000" transform="matrix(1.00, 0.00, -0.00, -1.00, 153.6, 245.0)">P</text><text xml:space="preserve" font-family="Monaco" font-size="28.0" fill="#000000" transform="matrix(1.00, 0.00, -0.00, -1.00, 170.4, 245.0)">a</text><text xml:space="preserve" font-family="Monaco" font-size="28.0" fill="#000000" transform="matrix(1.00, 0.00, -0.00, -1.00, 187.2, 245.0)">r</text><text xml:space="preserve" font-family="Monaco" font-size="28.0" fill="#000000" transform="matrix(1.00, 0.00, -0.00, -1.00, 204.1, 245.0)">s</text><text xml:space="preserve" font-family="Monaco" font-size="28.0" fill="#000000" transform="matrix(1.00, 0.00, -0.00, -1.00, 220.9, 245.0)">e</text><text xml:space="preserve" font-family="Monaco" font-size="28.0" fill="#000000" transform="matrix(1.00, 0.00, -0.00, -1.00, 237.7, 245.0)">r</text><text xml:space="preserve" font-family="Monaco" font-size="28.0" fill="#000000" transform="matrix(1.00, 0.00, -0.00, -1.00, 254.5, 245.0)">.</text><text xml:space="preserve" font-family="Monaco" font-size="28.0" fill="#000000" transform="matrix(1.00, 0.00, -0.00, -1.00, 271.3, 245.0)">n</text><text xml:space="preserve" font-family="Monaco" font-size="28.0" fill="#000000" transform="matrix(1.00, 0.00, -0.00, -1.00, 288.1, 245.0)">e</text><text xml:space="preserve" font-family="Monaco" font-size="28.0" fill="#000000" transform="matrix(1.00, 0.00, -0.00, -1.00, 304.9, 245.0)">w</text><text xml:space="preserve" font-family="Monaco" font-size="28.0" fill="#000000" transform="matrix(1.00, 0.00, -0.00, -1.00, 321.7, 245.0)">(</text><text xml:space="preserve" font-family="Monaco" font-size="28.0" fill="#000000" transform="matrix(1.00, 0.00, -0.00, -1.00, 338.5, 245.0)">C</text><text xml:space="preserve" font-family="Monaco" font-size="28.0" fill="#000000" transform="matrix(1.00, 0.00, -0.00, -1.00, 355.3, 245.0)">S</text><text xml:space="preserve" font-family="Monaco" font-size="28.0" fill="#000000" transform="matrix(1.00, 0.00, -0.00, -1.00, 372.1, 245.0)">V</text><text xml:space="preserve" font-family="Monaco" font-size="28.0" fill="#000000" transform="matrix(1.00, 0.00, -0.00, -1.00, 388.9, 245.0)">P</text><text xml:space="preserve" font-family="Monaco" font-size="28.0" fill="#000000" transform="matrix(1.00, 0.00, -0.00, -1.00, 405.7, 245.0)">a</text><text xml:space="preserve" font-family="Monaco" font-size="28.0" fill="#000000" transform="matrix(1.00, 0.00, -0.00, -1.00, 422.5, 245.0)">r</text><text xml:space="preserve" font-family="Monaco" font-size="28.0" fill="#000000" transform="matrix(1.00, 0.00, -0.00, -1.00, 439.3, 245.0)">s</text><text xml:space="preserve" font-family="Monaco" font-size="28.0" fill="#000000" transform="matrix(1.00, 0.00, -0.00, -1.00, 456.1, 245.0)">e</text><text xml:space="preserve" font-family="Monaco" font-size="28.0" fill="#000000" transform="matrix(1.00, 0.00, -0.00, -1.00, 472.9, 245.0)">r</text><text xml:space="preserve" font-family="Monaco" font-size="28.0" fill="#000000" transform="matrix(1.00, 0.00, -0.00, -1.00, 489.7, 245.0)">.</text><text xml:space="preserve" font-family="Monaco" font-size="28.0" fill="#000000" transform="matrix(1.00, 0.00, -0.00, -1.00, 506.6, 245.0)">n</text><text xml:space="preserve" font-family="Monaco" font-size="28.0" fill="#000000" transform="matrix(1.00, 0.00, -0.00, -1.00, 523.4, 245.0)">e</text><text xml:space="preserve" font-family="Monaco" font-size="28.0" fill="#000000" transform="matrix(1.00, 0.00, -0.00, -1.00, 540.2, 245.0)">w</text><text xml:space="preserve" font-family="Monaco" font-size="28.0" fill="#000000" transform="matrix(1.00, 0.00, -0.00, -1.00, 557.0, 245.0)">)</text><text xml:space="preserve" font-family="Monaco" font-size="28.0" fill="#000000" transform="matrix(1.00, 0.00, -0.00, -1.00, 573.8, 245.0)">.</text><text xml:space="preserve" font-family="Monaco" font-size="28.0" fill="#000000" transform="matrix(1.00, 0.00, -0.00, -1.00, 590.6, 245.0)">p</text><text xml:space="preserve" font-family="Monaco" font-size="28.0" fill="#000000" transform="matrix(1.00, 0.00, -0.00, -1.00, 607.4, 245.0)">a</text><text xml:space="preserve" font-family="Monaco" font-size="28.0" fill="#000000" transform="matrix(1.00, 0.00, -0.00, -1.00, 624.2, 245.0)">r</text><text xml:space="preserve" font-family="Monaco" font-size="28.0" fill="#000000" transform="matrix(1.00, 0.00, -0.00, -1.00, 641.0, 245.0)">s</text><text xml:space="preserve" font-family="Monaco" font-size="28.0" fill="#000000" transform="matrix(1.00, 0.00, -0.00, -1.00, 657.8, 245.0)">e</text><text xml:space="preserve" font-family="DINCondensed-Bold" font-weight="bold" font-size="48.0" fill="#34A4DA" transform="matrix(1.00, 0.00, -0.00, -1.00, 36.0, 705.0)">O</text><text xml:space="preserve" font-family="DINCondensed-Bold" font-weight="bold" font-size="48.0" fill="#34A4DA" transform="matrix(1.00, 0.00, -0.00, -1.00, 56.4, 705.0)">P</text><text xml:space="preserve" font-family="DINCondensed-Bold" font-weight="bold" font-size="48.0" fill="#34A4DA" transform="matrix(1.00, 0.00, -0.00, -1.00, 76.0, 705.0)">E</text><text xml:space="preserve" font-family="DINCondensed-Bold" font-weight="bold" font-size="48.0" fill="#34A4DA" transform="matrix(1.00, 0.00, -0.00, -1.00, 93.7, 705.0)">N</text><text xml:space="preserve" font-family="DINCondensed-Bold" font-weight="bold" font-size="48.0" fill="#34A4DA" transform="matrix(1.00, 0.00, -0.00, -1.00, 115.1, 705.0)">/</text><text xml:space="preserve" font-family="DINCondensed-Bold" font-weight="bold" font-size="48.0" fill="#34A4DA" transform="matrix(1.00, 0.00, -0.00, -1.00, 125.7, 705.0)">C</text><text xml:space="preserve" font-family="DINCondensed-Bold" font-weight="bold" font-size="48.0" fill="#34A4DA" transform="matrix(1.00, 0.00, -0.00, -1.00, 145.2, 705.0)">L</text><text xml:space="preserve" font-family="DINCondensed-Bold" font-weight="bold" font-size="48.0" fill="#34A4DA" transform="matrix(1.00, 0.00, -0.00, -1.00, 163.0, 705.0)">O</text><text xml:space="preserve" font-family="DINCondensed-Bold" font-weight="bold" font-size="48.0" fill="#34A4DA" transform="matrix(1.00, 0.00, -0.00, -1.00, 183.5, 705.0)">S</text><text xml:space="preserve" font-family="DINCondensed-Bold" font-weight="bold" font-size="48.0" fill="#34A4DA" transform="matrix(1.00, 0.00, -0.00, -1.00, 202.9, 705.0)">E</text><text xml:space="preserve" font-family="DINCondensed-Bold" font-weight="bold" font-size="48.0" fill="#34A4DA" transform="matrix(1.00, 0.00, -0.00, -1.00, 220.7, 705.0)">D</text><text xml:space="preserve" font-family="DINCondensed-Bold" font-weight="bold" font-size="48.0" fill="#34A4DA" transform="matrix(1.00, 0.00, -0.00, -1.00, 241.2, 705.0)"> </text><text xml:space="preserve" font-family="DINCondensed-Bold" font-weight="bold" font-size="48.0" fill="#34A4DA" transform="matrix(1.00, 0.00, -0.00, -1.00, 250.1, 705.0)">P</text><text xml:space="preserve" font-family="DINCondensed-Bold" font-weight="bold" font-size="48.0" fill="#34A4DA" transform="matrix(1.00, 0.00, -0.00, -1.00, 269.6, 705.0)">R</text><text xml:space="preserve" font-family="DINCondensed-Bold" font-weight="bold" font-size="48.0" fill="#34A4DA" transform="matrix(1.00, 0.00, -0.00, -1.00, 290.1, 705.0)">I</text><text xml:space="preserve" font-family="DINCondensed-Bold" font-weight="bold" font-size="48.0" fill="#34A4DA" transform="matrix(1.00, 0.00, -0.00, -1.00, 299.9, 705.0)">N</text><text xml:space="preserve" font-family="DINCondensed-Bold" font-weight="bold" font-size="48.0" fill="#34A4DA" transform="matrix(1.00, 0.00, -0.00, -1.00, 321.2, 705.0)">C</text><text xml:space="preserve" font-family="DINCondensed-Bold" font-weight="bold" font-size="48.0" fill="#34A4DA" transform="matrix(1.00, 0.00, -0.00, -1.00, 340.7, 705.0)">I</text><text xml:space="preserve" font-family="DINCondensed-Bold" font-weight="bold" font-size="48.0" fill="#34A4DA" transform="matrix(1.00, 0.00, -0.00, -1.00, 350.5, 705.0)">P</text><text xml:space="preserve" font-family="DINCondensed-Bold" font-weight="bold" font-size="48.0" fill="#34A4DA" transform="matrix(1.00, 0.00, -0.00, -1.00, 370.0, 705.0)">L</text><text xml:space="preserve" font-family="DINCondensed-Bold" font-weight="bold" font-size="48.0" fill="#34A4DA" transform="matrix(1.00, 0.00, -0.00, -1.00, 387.8, 705.0)">E</text></g></svg>