<?xml version="1.0" encoding="UTF-8" standalone="no"?><svg xmlns="http://www.w3.org/2000/svg" xmlns:xlink="http://www.w3.org/1999/xlink" clip-rule="evenodd" stroke-miterlimit="4.00" viewBox="0 0 1024 768"><desc>SVG generated by Keynote</desc><defs></defs><g transform="matrix(1.00, 0.00, -0.00, -1.00, 0.0, 768.0)"><path d="M 0.0 768.0 L 1024.0 768.0 L 1024.0 0.0 L 0.0 0.0 Z M 0.0 768.0 " fill="#FFFFFF"></path><text xml:space="preserve" font-family="DINCondensed-Bold" font-weight="bold" font-size="48.0" fill="#34A4DA" transform="matrix(1.00, 0.00, -0.00, -1.00, 36.0, 705.0)">O</text><text xml:space="preserve" font-family="DINCondensed-Bold" font-weight="bold" font-size="48.0" fill="#34A4DA" transform="matrix(1.00, 0.00, -0.00, -1.00, 56.4, 705.0)">P</text><text xml:space="preserve" font-family="DINCondensed-Bold" font-weight="bold" font-size="48.0" fill="#34A4DA" transform="matrix(1.00, 0.00, -0.00, -1.00, 76.0, 705.0)">E</text><text xml:space="preserve" font-family="DINCondensed-Bold" font-weight="bold" font-size="48.0" fill="#34A4DA" transform="matrix(1.00, 0.00, -0.00, -1.00, 93.7, 705.0)">N</text><text xml:space="preserve" font-family="DINCondensed-Bold" font-weight="bold" font-size="48.0" fill="#34A4DA" transform="matrix(1.00, 0.00, -0.00, -1.00, 115.1, 705.0)">/</text><text xml:space="preserve" font-family="DINCondensed-Bold" font-weight="bold" font-size="48.0" fill="#34A4DA" transform="matrix(1.00, 0.00, -0.00, -1.00, 125.7, 705.0)">C</text><text xml:space="preserve" font-family="DINCondensed-Bold" font-weight="bold" font-size="48.0" fill="#34A4DA" transform="matrix(1.00, 0.00, -0.00, -1.00, 145.2, 705.0)">L</text><text xml:space="preserve" font-family="DINCondensed-Bold" font-weight="bold" font-size="48.0" fill="#34A4DA" transform="matrix(1.00, 0.00, -0.00, -1.00, 163.0, 705.0)">O</text><text xml:space="preserve" font-family="DINCondensed-Bold" font-weight="bold" font-size="48.0" fill="#34A4DA" transform="matrix(1.00, 0.00, -0.00, -1.00, 183.5, 705.0)">S</text><text xml:space="preserve" font-family="DINCondensed-Bold" font-weight="bold" font-size="48.0" fill="#34A4DA" transform="matrix(1.00, 0.00, -0.00, -1.00, 202.9, 705.0)">E</text><text xml:space="preserve" font-family="DINCondensed-Bold" font-weight="bold" font-size="48.0" fill="#34A4DA" transform="matrix(1.00, 0.00, -0.00, -1.00, 220.7, 705.0)">D</text><text xml:space="preserve" font-family="DINCondensed-Bold" font-weight="bold" font-size="48.0" fill="#34A4DA" transform="matrix(1.00, 0.00, -0.00, -1.00, 241.2, 705.0)"> </text><text xml:space="preserve" font-family="DINCondensed-Bold" font-weight="bold" font-size="48.0" fill="#34A4DA" transform="matrix(1.00, 0.00, -0.00, -1.00, 250.1, 705.0)">P</text><text xml:space="preserve" font-family="DINCondensed-Bold" font-weight="bold" font-size="48.0" fill="#34A4DA" transform="matrix(1.00, 0.00, -0.00, -1.00, 269.6, 705.0)">R</text><text xml:space="preserve" font-family="DINCondensed-Bold" font-weight="bold" font-size="48.0" fill="#34A4DA" transform="matrix(1.00, 0.00, -0.00, -1.00, 290.1, 705.0)">I</text><text xml:space="preserve" font-family="DINCondensed-Bold" font-weight="bold" font-size="48.0" fill="#34A4DA" transform="matrix(1.00, 0.00, -0.00, -1.00, 299.9, 705.0)">N</text><text xml:space="preserve" font-family="DINCondensed-Bold" font-weight="bold" font-size="48.0" fill="#34A4DA" transform="matrix(1.00, 0.00, -0.00, -1.00, 321.2, 705.0)">C</text><text xml:space="preserve" font-family="DINCondensed-Bold" font-weight="bold" font-size="48.0" fill="#34A4DA" transform="matrix(1.00, 0.00, -0.00, -1.00, 340.7, 705.0)">I</text><text xml:space="preserve" font-family="DINCondensed-Bold" font-weight="bold" font-size="48.0" fill="#34A4DA" transform="matrix(1.00, 0.00, -0.00, -1.00, 350.5, 705.0)">P</text><text xml:space="preserve" font-family="DINCondensed-Bold" font-weight="bold" font-size="48.0" fill="#34A4DA" transform="matrix(1.00, 0.00, -0.00, -1.00, 370.0, 705.0)">L</text><text xml:space="preserve" font-family="DINCondensed-Bold" font-weight="bold" font-size="48.0" fill="#34A4DA" transform="matrix(1.00, 0.00, -0.00, -1.00, 387.8, 705.0)">E</text><text xml:space="preserve" font-family="AvenirNext-Medium" font-size="46.0" fill="#838686" transform="matrix(1.00, 0.00, -0.00, -1.00, 94.0, 396.0)">P</text><text xml:space="preserve" font-family="AvenirNext-Medium" font-size="46.0" fill="#838686" transform="matrix(1.00, 0.00, -0.00, -1.00, 119.3, 396.0)">r</text><text xml:space="preserve" font-family="AvenirNext-Medium" font-size="46.0" fill="#838686" transform="matrix(1.00, 0.00, -0.00, -1.00, 135.1, 396.0)">e</text><text xml:space="preserve" font-family="AvenirNext-Medium" font-size="46.0" fill="#838686" transform="matrix(1.00, 0.00, -0.00, -1.00, 161.4, 396.0)">f</text><text xml:space="preserve" font-family="AvenirNext-Medium" font-size="46.0" fill="#838686" transform="matrix(1.00, 0.00, -0.00, -1.00, 175.7, 396.0)">e</text><text xml:space="preserve" font-family="AvenirNext-Medium" font-size="46.0" fill="#838686" transform="matrix(1.00, 0.00, -0.00, -1.00, 202.1, 396.0)">r</text><text xml:space="preserve" font-family="AvenirNext-Medium" font-size="46.0" fill="#838686" transform="matrix(1.00, 0.00, -0.00, -1.00, 218.7, 396.0)"> </text><text xml:space="preserve" font-family="AvenirNext-Medium" font-size="46.0" fill="#838686" transform="matrix(1.00, 0.00, -0.00, -1.00, 230.2, 396.0)">e</text><text xml:space="preserve" font-family="AvenirNext-Medium" font-size="46.0" fill="#838686" transform="matrix(1.00, 0.00, -0.00, -1.00, 256.1, 396.0)">x</text><text xml:space="preserve" font-family="AvenirNext-Medium" font-size="46.0" fill="#838686" transform="matrix(1.00, 0.00, -0.00, -1.00, 279.6, 396.0)">t</text><text xml:space="preserve" font-family="AvenirNext-Medium" font-size="46.0" fill="#838686" transform="matrix(1.00, 0.00, -0.00, -1.00, 294.7, 396.0)">e</text><text xml:space="preserve" font-family="AvenirNext-Medium" font-size="46.0" fill="#838686" transform="matrix(1.00, 0.00, -0.00, -1.00, 321.1, 396.0)">n</text><text xml:space="preserve" font-family="AvenirNext-Medium" font-size="46.0" fill="#838686" transform="matrix(1.00, 0.00, -0.00, -1.00, 347.9, 396.0)">s</text><text xml:space="preserve" font-family="AvenirNext-Medium" font-size="46.0" fill="#838686" transform="matrix(1.00, 0.00, -0.00, -1.00, 368.3, 396.0)">i</text><text xml:space="preserve" font-family="AvenirNext-Medium" font-size="46.0" fill="#838686" transform="matrix(1.00, 0.00, -0.00, -1.00, 380.2, 396.0)">o</text><text xml:space="preserve" font-family="AvenirNext-Medium" font-size="46.0" fill="#838686" transform="matrix(1.00, 0.00, -0.00, -1.00, 408.3, 396.0)">n</text><text xml:space="preserve" font-family="AvenirNext-Medium" font-size="46.0" fill="#838686" transform="matrix(1.00, 0.00, -0.00, -1.00, 435.0, 396.0)"> </text><text xml:space="preserve" font-family="AvenirNext-Medium" font-size="46.0" fill="#838686" transform="matrix(1.00, 0.00, -0.00, -1.00, 446.5, 396.0)">o</text><text xml:space="preserve" font-family="AvenirNext-Medium" font-size="46.0" fill="#838686" transform="matrix(1.00, 0.00, -0.00, -1.00, 474.6, 396.0)">v</text><text xml:space="preserve" font-family="AvenirNext-Medium" font-size="46.0" fill="#838686" transform="matrix(1.00, 0.00, -0.00, -1.00, 497.8, 396.0)">e</text><text xml:space="preserve" font-family="AvenirNext-Medium" font-size="46.0" fill="#838686" transform="matrix(1.00, 0.00, -0.00, -1.00, 524.1, 396.0)">r</text><text xml:space="preserve" font-family="AvenirNext-Medium" font-size="46.0" fill="#838686" transform="matrix(1.00, 0.00, -0.00, -1.00, 540.8, 396.0)"> </text><text xml:space="preserve" font-family="AvenirNext-Medium" font-size="46.0" fill="#838686" transform="matrix(1.00, 0.00, -0.00, -1.00, 552.3, 396.0)">m</text><text xml:space="preserve" font-family="AvenirNext-Medium" font-size="46.0" fill="#838686" transform="matrix(1.00, 0.00, -0.00, -1.00, 593.1, 396.0)">o</text><text xml:space="preserve" font-family="AvenirNext-Medium" font-size="46.0" fill="#838686" transform="matrix(1.00, 0.00, -0.00, -1.00, 621.2, 396.0)">n</text><text xml:space="preserve" font-family="AvenirNext-Medium" font-size="46.0" fill="#838686" transform="matrix(1.00, 0.00, -0.00, -1.00, 647.9, 396.0)">k</text><text xml:space="preserve" font-family="AvenirNext-Medium" font-size="46.0" fill="#838686" transform="matrix(1.00, 0.00, -0.00, -1.00, 671.3, 396.0)">e</text><text xml:space="preserve" font-family="AvenirNext-Medium" font-size="46.0" fill="#838686" transform="matrix(1.00, 0.00, -0.00, -1.00, 697.7, 396.0)">y</text><text xml:space="preserve" font-family="AvenirNext-Medium" font-size="46.0" fill="#838686" transform="matrix(1.00, 0.00, -0.00, -1.00, 720.9, 396.0)"> </text><text xml:space="preserve" font-family="AvenirNext-Medium" font-size="46.0" fill="#838686" transform="matrix(1.00, 0.00, -0.00, -1.00, 732.4, 396.0)">p</text><text xml:space="preserve" font-family="AvenirNext-Medium" font-size="46.0" fill="#838686" transform="matrix(1.00, 0.00, -0.00, -1.00, 761.6, 396.0)">a</text><text xml:space="preserve" font-family="AvenirNext-Medium" font-size="46.0" fill="#838686" transform="matrix(1.00, 0.00, -0.00, -1.00, 786.0, 396.0)">t</text><text xml:space="preserve" font-family="AvenirNext-Medium" font-size="46.0" fill="#838686" transform="matrix(1.00, 0.00, -0.00, -1.00, 801.2, 396.0)">c</text><text xml:space="preserve" font-family="AvenirNext-Medium" font-size="46.0" fill="#838686" transform="matrix(1.00, 0.00, -0.00, -1.00, 823.9, 396.0)">h</text><text xml:space="preserve" font-family="AvenirNext-Medium" font-size="46.0" fill="#838686" transform="matrix(1.00, 0.00, -0.00, -1.00, 850.7, 396.0)">i</text><text xml:space="preserve" font-family="AvenirNext-Medium" font-size="46.0" fill="#838686" transform="matrix(1.00, 0.00, -0.00, -1.00, 862.7, 396.0)">n</text><text xml:space="preserve" font-family="AvenirNext-Medium" font-size="46.0" fill="#838686" transform="matrix(1.00, 0.00, -0.00, -1.00, 889.4, 396.0)">g</text><text xml:space="preserve" font-family="AvenirNext-Medium" font-size="46.0" fill="#838686" transform="matrix(1.00, 0.00, -0.00, -1.00, 918.5, 396.0)">.</text></g></svg>