<?xml version="1.0" encoding="UTF-8" standalone="no"?><svg xmlns="http://www.w3.org/2000/svg" xmlns:xlink="http://www.w3.org/1999/xlink" clip-rule="evenodd" stroke-miterlimit="4.00" viewBox="0 0 1024 768"><desc>SVG generated by Keynote</desc><defs></defs><g transform="matrix(1.00, 0.00, -0.00, -1.00, 0.0, 768.0)"><path d="M 0.0 768.0 L 1024.0 768.0 L 1024.0 0.0 L 0.0 0.0 Z M 0.0 768.0 " fill="#FFFFFF"></path><text xml:space="preserve" font-family="DINCondensed-Bold" font-weight="bold" font-size="48.0" fill="#34A4DA" transform="matrix(1.00, 0.00, -0.00, -1.00, 36.0, 705.0)">L</text><text xml:space="preserve" font-family="DINCondensed-Bold" font-weight="bold" font-size="48.0" fill="#34A4DA" transform="matrix(1.00, 0.00, -0.00, -1.00, 53.8, 705.0)">I</text><text xml:space="preserve" font-family="DINCondensed-Bold" font-weight="bold" font-size="48.0" fill="#34A4DA" transform="matrix(1.00, 0.00, -0.00, -1.00, 63.6, 705.0)">S</text><text xml:space="preserve" font-family="DINCondensed-Bold" font-weight="bold" font-size="48.0" fill="#34A4DA" transform="matrix(1.00, 0.00, -0.00, -1.00, 83.0, 705.0)">K</text><text xml:space="preserve" font-family="DINCondensed-Bold" font-weight="bold" font-size="48.0" fill="#34A4DA" transform="matrix(1.00, 0.00, -0.00, -1.00, 102.9, 705.0)">O</text><text xml:space="preserve" font-family="DINCondensed-Bold" font-weight="bold" font-size="48.0" fill="#34A4DA" transform="matrix(1.00, 0.00, -0.00, -1.00, 122.5, 705.0)">V</text><text xml:space="preserve" font-family="DINCondensed-Bold" font-weight="bold" font-size="48.0" fill="#34A4DA" transform="matrix(1.00, 0.00, -0.00, -1.00, 142.0, 705.0)"> </text><text xml:space="preserve" font-family="DINCondensed-Bold" font-weight="bold" font-size="48.0" fill="#34A4DA" transform="matrix(1.00, 0.00, -0.00, -1.00, 151.0, 705.0)">S</text><text xml:space="preserve" font-family="DINCondensed-Bold" font-weight="bold" font-size="48.0" fill="#34A4DA" transform="matrix(1.00, 0.00, -0.00, -1.00, 170.4, 705.0)">U</text><text xml:space="preserve" font-family="DINCondensed-Bold" font-weight="bold" font-size="48.0" fill="#34A4DA" transform="matrix(1.00, 0.00, -0.00, -1.00, 190.9, 705.0)">B</text><text xml:space="preserve" font-family="DINCondensed-Bold" font-weight="bold" font-size="48.0" fill="#34A4DA" transform="matrix(1.00, 0.00, -0.00, -1.00, 211.3, 705.0)">S</text><text xml:space="preserve" font-family="DINCondensed-Bold" font-weight="bold" font-size="48.0" fill="#34A4DA" transform="matrix(1.00, 0.00, -0.00, -1.00, 230.8, 705.0)">T</text><text xml:space="preserve" font-family="DINCondensed-Bold" font-weight="bold" font-size="48.0" fill="#34A4DA" transform="matrix(1.00, 0.00, -0.00, -1.00, 246.8, 705.0)">I</text><text xml:space="preserve" font-family="DINCondensed-Bold" font-weight="bold" font-size="48.0" fill="#34A4DA" transform="matrix(1.00, 0.00, -0.00, -1.00, 256.6, 705.0)">T</text><text xml:space="preserve" font-family="DINCondensed-Bold" font-weight="bold" font-size="48.0" fill="#34A4DA" transform="matrix(1.00, 0.00, -0.00, -1.00, 272.5, 705.0)">U</text><text xml:space="preserve" font-family="DINCondensed-Bold" font-weight="bold" font-size="48.0" fill="#34A4DA" transform="matrix(1.00, 0.00, -0.00, -1.00, 292.9, 705.0)">T</text><text xml:space="preserve" font-family="DINCondensed-Bold" font-weight="bold" font-size="48.0" fill="#34A4DA" transform="matrix(1.00, 0.00, -0.00, -1.00, 308.9, 705.0)">I</text><text xml:space="preserve" font-family="DINCondensed-Bold" font-weight="bold" font-size="48.0" fill="#34A4DA" transform="matrix(1.00, 0.00, -0.00, -1.00, 318.7, 705.0)">O</text><text xml:space="preserve" font-family="DINCondensed-Bold" font-weight="bold" font-size="48.0" fill="#34A4DA" transform="matrix(1.00, 0.00, -0.00, -1.00, 339.1, 705.0)">N</text><text xml:space="preserve" font-family="DINCondensed-Bold" font-weight="bold" font-size="48.0" fill="#34A4DA" transform="matrix(1.00, 0.00, -0.00, -1.00, 360.4, 705.0)"> </text><text xml:space="preserve" font-family="DINCondensed-Bold" font-weight="bold" font-size="48.0" fill="#34A4DA" transform="matrix(1.00, 0.00, -0.00, -1.00, 369.4, 705.0)">P</text><text xml:space="preserve" font-family="DINCondensed-Bold" font-weight="bold" font-size="48.0" fill="#34A4DA" transform="matrix(1.00, 0.00, -0.00, -1.00, 388.9, 705.0)">R</text><text xml:space="preserve" font-family="DINCondensed-Bold" font-weight="bold" font-size="48.0" fill="#34A4DA" transform="matrix(1.00, 0.00, -0.00, -1.00, 409.3, 705.0)">I</text><text xml:space="preserve" font-family="DINCondensed-Bold" font-weight="bold" font-size="48.0" fill="#34A4DA" transform="matrix(1.00, 0.00, -0.00, -1.00, 419.1, 705.0)">N</text><text xml:space="preserve" font-family="DINCondensed-Bold" font-weight="bold" font-size="48.0" fill="#34A4DA" transform="matrix(1.00, 0.00, -0.00, -1.00, 440.4, 705.0)">C</text><text xml:space="preserve" font-family="DINCondensed-Bold" font-weight="bold" font-size="48.0" fill="#34A4DA" transform="matrix(1.00, 0.00, -0.00, -1.00, 460.0, 705.0)">I</text><text xml:space="preserve" font-family="DINCondensed-Bold" font-weight="bold" font-size="48.0" fill="#34A4DA" transform="matrix(1.00, 0.00, -0.00, -1.00, 469.8, 705.0)">P</text><text xml:space="preserve" font-family="DINCondensed-Bold" font-weight="bold" font-size="48.0" fill="#34A4DA" transform="matrix(1.00, 0.00, -0.00, -1.00, 489.3, 705.0)">L</text><text xml:space="preserve" font-family="DINCondensed-Bold" font-weight="bold" font-size="48.0" fill="#34A4DA" transform="matrix(1.00, 0.00, -0.00, -1.00, 507.1, 705.0)">E</text><text xml:space="preserve" font-family="AvenirNext-Medium" font-size="46.0" fill="#838686" transform="matrix(1.00, 0.00, -0.00, -1.00, 154.0, 396.0)">R</text><text xml:space="preserve" font-family="AvenirNext-Medium" font-size="46.0" fill="#838686" transform="matrix(1.00, 0.00, -0.00, -1.00, 181.7, 396.0)">e</text><text xml:space="preserve" font-family="AvenirNext-Medium" font-size="46.0" fill="#838686" transform="matrix(1.00, 0.00, -0.00, -1.00, 208.1, 396.0)">q</text><text xml:space="preserve" font-family="AvenirNext-Medium" font-size="46.0" fill="#838686" transform="matrix(1.00, 0.00, -0.00, -1.00, 237.2, 396.0)">u</text><text xml:space="preserve" font-family="AvenirNext-Medium" font-size="46.0" fill="#838686" transform="matrix(1.00, 0.00, -0.00, -1.00, 263.9, 396.0)">i</text><text xml:space="preserve" font-family="AvenirNext-Medium" font-size="46.0" fill="#838686" transform="matrix(1.00, 0.00, -0.00, -1.00, 275.9, 396.0)">r</text><text xml:space="preserve" font-family="AvenirNext-Medium" font-size="46.0" fill="#838686" transform="matrix(1.00, 0.00, -0.00, -1.00, 291.7, 396.0)">e</text><text xml:space="preserve" font-family="AvenirNext-Medium" font-size="46.0" fill="#838686" transform="matrix(1.00, 0.00, -0.00, -1.00, 318.0, 396.0)"> </text><text xml:space="preserve" font-family="AvenirNext-Medium" font-size="46.0" fill="#838686" transform="matrix(1.00, 0.00, -0.00, -1.00, 329.5, 396.0)">n</text><text xml:space="preserve" font-family="AvenirNext-Medium" font-size="46.0" fill="#838686" transform="matrix(1.00, 0.00, -0.00, -1.00, 356.3, 396.0)">o</text><text xml:space="preserve" font-family="AvenirNext-Medium" font-size="46.0" fill="#838686" transform="matrix(1.00, 0.00, -0.00, -1.00, 384.4, 396.0)"> </text><text xml:space="preserve" font-family="AvenirNext-Medium" font-size="46.0" fill="#838686" transform="matrix(1.00, 0.00, -0.00, -1.00, 395.9, 396.0)">m</text><text xml:space="preserve" font-family="AvenirNext-Medium" font-size="46.0" fill="#838686" transform="matrix(1.00, 0.00, -0.00, -1.00, 436.7, 396.0)">o</text><text xml:space="preserve" font-family="AvenirNext-Medium" font-size="46.0" fill="#838686" transform="matrix(1.00, 0.00, -0.00, -1.00, 464.7, 396.0)">r</text><text xml:space="preserve" font-family="AvenirNext-Medium" font-size="46.0" fill="#838686" transform="matrix(1.00, 0.00, -0.00, -1.00, 480.6, 396.0)">e</text><text xml:space="preserve" font-family="AvenirNext-Medium" font-size="46.0" fill="#838686" transform="matrix(1.00, 0.00, -0.00, -1.00, 506.9, 396.0)">,</text><text xml:space="preserve" font-family="AvenirNext-Medium" font-size="46.0" fill="#838686" transform="matrix(1.00, 0.00, -0.00, -1.00, 517.5, 396.0)"> </text><text xml:space="preserve" font-family="AvenirNext-Medium" font-size="46.0" fill="#838686" transform="matrix(1.00, 0.00, -0.00, -1.00, 529.0, 396.0)">p</text><text xml:space="preserve" font-family="AvenirNext-Medium" font-size="46.0" fill="#838686" transform="matrix(1.00, 0.00, -0.00, -1.00, 558.2, 396.0)">r</text><text xml:space="preserve" font-family="AvenirNext-Medium" font-size="46.0" fill="#838686" transform="matrix(1.00, 0.00, -0.00, -1.00, 574.0, 396.0)">o</text><text xml:space="preserve" font-family="AvenirNext-Medium" font-size="46.0" fill="#838686" transform="matrix(1.00, 0.00, -0.00, -1.00, 602.0, 396.0)">m</text><text xml:space="preserve" font-family="AvenirNext-Medium" font-size="46.0" fill="#838686" transform="matrix(1.00, 0.00, -0.00, -1.00, 642.8, 396.0)">i</text><text xml:space="preserve" font-family="AvenirNext-Medium" font-size="46.0" fill="#838686" transform="matrix(1.00, 0.00, -0.00, -1.00, 654.8, 396.0)">s</text><text xml:space="preserve" font-family="AvenirNext-Medium" font-size="46.0" fill="#838686" transform="matrix(1.00, 0.00, -0.00, -1.00, 675.2, 396.0)">e</text><text xml:space="preserve" font-family="AvenirNext-Medium" font-size="46.0" fill="#838686" transform="matrix(1.00, 0.00, -0.00, -1.00, 701.5, 396.0)"> </text><text xml:space="preserve" font-family="AvenirNext-Medium" font-size="46.0" fill="#838686" transform="matrix(1.00, 0.00, -0.00, -1.00, 713.0, 396.0)">n</text><text xml:space="preserve" font-family="AvenirNext-Medium" font-size="46.0" fill="#838686" transform="matrix(1.00, 0.00, -0.00, -1.00, 739.8, 396.0)">o</text><text xml:space="preserve" font-family="AvenirNext-Medium" font-size="46.0" fill="#838686" transform="matrix(1.00, 0.00, -0.00, -1.00, 767.9, 396.0)"> </text><text xml:space="preserve" font-family="AvenirNext-Medium" font-size="46.0" fill="#838686" transform="matrix(1.00, 0.00, -0.00, -1.00, 779.4, 396.0)">l</text><text xml:space="preserve" font-family="AvenirNext-Medium" font-size="46.0" fill="#838686" transform="matrix(1.00, 0.00, -0.00, -1.00, 791.3, 396.0)">e</text><text xml:space="preserve" font-family="AvenirNext-Medium" font-size="46.0" fill="#838686" transform="matrix(1.00, 0.00, -0.00, -1.00, 817.7, 396.0)">s</text><text xml:space="preserve" font-family="AvenirNext-Medium" font-size="46.0" fill="#838686" transform="matrix(1.00, 0.00, -0.00, -1.00, 838.1, 396.0)">s</text><text xml:space="preserve" font-family="AvenirNext-Medium" font-size="46.0" fill="#838686" transform="matrix(1.00, 0.00, -0.00, -1.00, 858.5, 396.0)">.</text></g></svg>