<?xml version="1.0" encoding="UTF-8" standalone="no"?><svg xmlns="http://www.w3.org/2000/svg" xmlns:xlink="http://www.w3.org/1999/xlink" clip-rule="evenodd" stroke-miterlimit="4.00" viewBox="0 0 1024 768"><desc>SVG generated by Keynote</desc><defs></defs><g transform="matrix(1.00, 0.00, -0.00, -1.00, 0.0, 768.0)"><path d="M 0.0 768.0 L 1024.0 768.0 L 1024.0 0.0 L 0.0 0.0 Z M 0.0 768.0 " fill="#FFFFFF"></path><path d="M 36.0 643.0 L 270.0 643.0 L 270.0 608.0 L 36.0 608.0 Z M 36.0 643.0 " fill="#FFE988"></path><text xml:space="preserve" font-family="Monaco" font-size="26.0" fill="#285E99" transform="matrix(1.00, 0.00, -0.00, -1.00, 36.0, 617.0)">c</text><text xml:space="preserve" font-family="Monaco" font-size="26.0" fill="#285E99" transform="matrix(1.00, 0.00, -0.00, -1.00, 51.6, 617.0)">l</text><text xml:space="preserve" font-family="Monaco" font-size="26.0" fill="#285E99" transform="matrix(1.00, 0.00, -0.00, -1.00, 67.2, 617.0)">a</text><text xml:space="preserve" font-family="Monaco" font-size="26.0" fill="#285E99" transform="matrix(1.00, 0.00, -0.00, -1.00, 82.8, 617.0)">s</text><text xml:space="preserve" font-family="Monaco" font-size="26.0" fill="#285E99" transform="matrix(1.00, 0.00, -0.00, -1.00, 98.4, 617.0)">s</text><text xml:space="preserve" font-family="Monaco" font-size="26.0" fill="#000000" transform="matrix(1.00, 0.00, -0.00, -1.00, 114.0, 617.0)"> </text><text xml:space="preserve" font-family="Monaco" font-size="26.0" fill="#000000" transform="matrix(1.00, 0.00, -0.00, -1.00, 129.6, 617.0)">C</text><text xml:space="preserve" font-family="Monaco" font-size="26.0" fill="#000000" transform="matrix(1.00, 0.00, -0.00, -1.00, 145.2, 617.0)">S</text><text xml:space="preserve" font-family="Monaco" font-size="26.0" fill="#000000" transform="matrix(1.00, 0.00, -0.00, -1.00, 160.8, 617.0)">V</text><text xml:space="preserve" font-family="Monaco" font-size="26.0" fill="#000000" transform="matrix(1.00, 0.00, -0.00, -1.00, 176.4, 617.0)">P</text><text xml:space="preserve" font-family="Monaco" font-size="26.0" fill="#000000" transform="matrix(1.00, 0.00, -0.00, -1.00, 192.0, 617.0)">a</text><text xml:space="preserve" font-family="Monaco" font-size="26.0" fill="#000000" transform="matrix(1.00, 0.00, -0.00, -1.00, 207.6, 617.0)">r</text><text xml:space="preserve" font-family="Monaco" font-size="26.0" fill="#000000" transform="matrix(1.00, 0.00, -0.00, -1.00, 223.2, 617.0)">s</text><text xml:space="preserve" font-family="Monaco" font-size="26.0" fill="#000000" transform="matrix(1.00, 0.00, -0.00, -1.00, 238.9, 617.0)">e</text><text xml:space="preserve" font-family="Monaco" font-size="26.0" fill="#000000" transform="matrix(1.00, 0.00, -0.00, -1.00, 254.5, 617.0)">r</text><g><clipPath id="clip-63"><path d="M 128.6 611.9 L 270.0 611.9 L 270.0 615.8 L 128.6 615.8 Z M 128.6 611.9 "></path></clipPath><g clip-path="url(#clip-63)"><path d="M 97.6 33.2 L 238.0 33.2 " fill="none" stroke="#000000" stroke-width="1.97" stroke-miterlimit="0.00" transform="matrix(1.00, 0.00, 0.00, -1.00, 32.0, 647.0)"></path></g></g><text xml:space="preserve" font-family="Monaco" font-size="26.0" fill="#000000" transform="matrix(1.00, 0.00, -0.00, -1.00, 36.0, 582.0)"> </text><text xml:space="preserve" font-family="Monaco" font-size="26.0" fill="#000000" transform="matrix(1.00, 0.00, -0.00, -1.00, 51.6, 582.0)"> </text><text xml:space="preserve" font-family="Monaco" font-size="26.0" fill="#285E99" transform="matrix(1.00, 0.00, -0.00, -1.00, 67.2, 582.0)">i</text><text xml:space="preserve" font-family="Monaco" font-size="26.0" fill="#285E99" transform="matrix(1.00, 0.00, -0.00, -1.00, 82.8, 582.0)">n</text><text xml:space="preserve" font-family="Monaco" font-size="26.0" fill="#285E99" transform="matrix(1.00, 0.00, -0.00, -1.00, 98.4, 582.0)">c</text><text xml:space="preserve" font-family="Monaco" font-size="26.0" fill="#285E99" transform="matrix(1.00, 0.00, -0.00, -1.00, 114.0, 582.0)">l</text><text xml:space="preserve" font-family="Monaco" font-size="26.0" fill="#285E99" transform="matrix(1.00, 0.00, -0.00, -1.00, 129.6, 582.0)">u</text><text xml:space="preserve" font-family="Monaco" font-size="26.0" fill="#285E99" transform="matrix(1.00, 0.00, -0.00, -1.00, 145.2, 582.0)">d</text><text xml:space="preserve" font-family="Monaco" font-size="26.0" fill="#285E99" transform="matrix(1.00, 0.00, -0.00, -1.00, 160.8, 582.0)">e</text><text xml:space="preserve" font-family="Monaco" font-size="26.0" fill="#000000" transform="matrix(1.00, 0.00, -0.00, -1.00, 176.4, 582.0)"> </text><text xml:space="preserve" font-family="Monaco" font-size="26.0" fill="#000000" transform="matrix(1.00, 0.00, -0.00, -1.00, 192.0, 582.0)">H</text><text xml:space="preserve" font-family="Monaco" font-size="26.0" fill="#000000" transform="matrix(1.00, 0.00, -0.00, -1.00, 207.6, 582.0)">a</text><text xml:space="preserve" font-family="Monaco" font-size="26.0" fill="#000000" transform="matrix(1.00, 0.00, -0.00, -1.00, 223.2, 582.0)">s</text><text xml:space="preserve" font-family="Monaco" font-size="26.0" fill="#000000" transform="matrix(1.00, 0.00, -0.00, -1.00, 238.8, 582.0)">S</text><text xml:space="preserve" font-family="Monaco" font-size="26.0" fill="#000000" transform="matrix(1.00, 0.00, -0.00, -1.00, 254.4, 582.0)">e</text><text xml:space="preserve" font-family="Monaco" font-size="26.0" fill="#000000" transform="matrix(1.00, 0.00, -0.00, -1.00, 270.1, 582.0)">p</text><text xml:space="preserve" font-family="Monaco" font-size="26.0" fill="#000000" transform="matrix(1.00, 0.00, -0.00, -1.00, 285.7, 582.0)">a</text><text xml:space="preserve" font-family="Monaco" font-size="26.0" fill="#000000" transform="matrix(1.00, 0.00, -0.00, -1.00, 301.3, 582.0)">r</text><text xml:space="preserve" font-family="Monaco" font-size="26.0" fill="#000000" transform="matrix(1.00, 0.00, -0.00, -1.00, 316.9, 582.0)">a</text><text xml:space="preserve" font-family="Monaco" font-size="26.0" fill="#000000" transform="matrix(1.00, 0.00, -0.00, -1.00, 332.5, 582.0)">t</text><text xml:space="preserve" font-family="Monaco" font-size="26.0" fill="#000000" transform="matrix(1.00, 0.00, -0.00, -1.00, 348.1, 582.0)">o</text><text xml:space="preserve" font-family="Monaco" font-size="26.0" fill="#000000" transform="matrix(1.00, 0.00, -0.00, -1.00, 363.7, 582.0)">r</text><text xml:space="preserve" font-family="Monaco" font-size="26.0" fill="#000000" transform="matrix(1.00, 0.00, -0.00, -1.00, 36.0, 547.0)"> </text><text xml:space="preserve" font-family="Monaco" font-size="26.0" fill="#000000" transform="matrix(1.00, 0.00, -0.00, -1.00, 51.6, 547.0)"> </text><text xml:space="preserve" font-family="Monaco" font-size="26.0" fill="#000000" transform="matrix(1.00, 0.00, -0.00, -1.00, 36.0, 512.0)"> </text><text xml:space="preserve" font-family="Monaco" font-size="26.0" fill="#000000" transform="matrix(1.00, 0.00, -0.00, -1.00, 51.6, 512.0)"> </text><text xml:space="preserve" font-family="Monaco" font-size="26.0" fill="#285E99" transform="matrix(1.00, 0.00, -0.00, -1.00, 67.2, 512.0)">d</text><text xml:space="preserve" font-family="Monaco" font-size="26.0" fill="#285E99" transform="matrix(1.00, 0.00, -0.00, -1.00, 82.8, 512.0)">e</text><text xml:space="preserve" font-family="Monaco" font-size="26.0" fill="#285E99" transform="matrix(1.00, 0.00, -0.00, -1.00, 98.4, 512.0)">f</text><text xml:space="preserve" font-family="Monaco" font-size="26.0" fill="#000000" transform="matrix(1.00, 0.00, -0.00, -1.00, 114.0, 512.0)"> </text><text xml:space="preserve" font-family="Monaco" font-size="26.0" fill="#000000" transform="matrix(1.00, 0.00, -0.00, -1.00, 129.6, 512.0)">p</text><text xml:space="preserve" font-family="Monaco" font-size="26.0" fill="#000000" transform="matrix(1.00, 0.00, -0.00, -1.00, 145.2, 512.0)">a</text><text xml:space="preserve" font-family="Monaco" font-size="26.0" fill="#000000" transform="matrix(1.00, 0.00, -0.00, -1.00, 160.8, 512.0)">r</text><text xml:space="preserve" font-family="Monaco" font-size="26.0" fill="#000000" transform="matrix(1.00, 0.00, -0.00, -1.00, 176.4, 512.0)">s</text><text xml:space="preserve" font-family="Monaco" font-size="26.0" fill="#000000" transform="matrix(1.00, 0.00, -0.00, -1.00, 192.0, 512.0)">e</text><text xml:space="preserve" font-family="Monaco" font-size="26.0" fill="#000000" transform="matrix(1.00, 0.00, -0.00, -1.00, 36.0, 477.0)"> </text><text xml:space="preserve" font-family="Monaco" font-size="26.0" fill="#000000" transform="matrix(1.00, 0.00, -0.00, -1.00, 51.6, 477.0)"> </text><text xml:space="preserve" font-family="Monaco" font-size="26.0" fill="#000000" transform="matrix(1.00, 0.00, -0.00, -1.00, 67.2, 477.0)"> </text><text xml:space="preserve" font-family="Monaco" font-size="26.0" fill="#000000" transform="matrix(1.00, 0.00, -0.00, -1.00, 82.8, 477.0)"> </text><text xml:space="preserve" font-family="Monaco" font-size="26.0" fill="#000000" transform="matrix(1.00, 0.00, -0.00, -1.00, 98.4, 477.0)">@</text><text xml:space="preserve" font-family="Monaco" font-size="26.0" fill="#000000" transform="matrix(1.00, 0.00, -0.00, -1.00, 114.0, 477.0)">c</text><text xml:space="preserve" font-family="Monaco" font-size="26.0" fill="#000000" transform="matrix(1.00, 0.00, -0.00, -1.00, 129.6, 477.0)">o</text><text xml:space="preserve" font-family="Monaco" font-size="26.0" fill="#000000" transform="matrix(1.00, 0.00, -0.00, -1.00, 145.2, 477.0)">n</text><text xml:space="preserve" font-family="Monaco" font-size="26.0" fill="#000000" transform="matrix(1.00, 0.00, -0.00, -1.00, 160.8, 477.0)">t</text><text xml:space="preserve" font-family="Monaco" font-size="26.0" fill="#000000" transform="matrix(1.00, 0.00, -0.00, -1.00, 176.4, 477.0)">e</text><text xml:space="preserve" font-family="Monaco" font-size="26.0" fill="#000000" transform="matrix(1.00, 0.00, -0.00, -1.00, 192.1, 477.0)">n</text><text xml:space="preserve" font-family="Monaco" font-size="26.0" fill="#000000" transform="matrix(1.00, 0.00, -0.00, -1.00, 207.7, 477.0)">t</text><text xml:space="preserve" font-family="Monaco" font-size="26.0" fill="#000000" transform="matrix(1.00, 0.00, -0.00, -1.00, 223.3, 477.0)"> </text><text xml:space="preserve" font-family="Monaco" font-size="26.0" fill="#D97000" transform="matrix(1.00, 0.00, -0.00, -1.00, 238.8, 477.0)">=</text><text xml:space="preserve" font-family="Monaco" font-size="26.0" fill="#000000" transform="matrix(1.00, 0.00, -0.00, -1.00, 254.4, 477.0)"> </text><text xml:space="preserve" font-family="Monaco" font-size="26.0" fill="#000000" transform="matrix(1.00, 0.00, -0.00, -1.00, 270.0, 477.0)">r</text><text xml:space="preserve" font-family="Monaco" font-size="26.0" fill="#000000" transform="matrix(1.00, 0.00, -0.00, -1.00, 285.6, 477.0)">e</text><text xml:space="preserve" font-family="Monaco" font-size="26.0" fill="#000000" transform="matrix(1.00, 0.00, -0.00, -1.00, 301.3, 477.0)">a</text><text xml:space="preserve" font-family="Monaco" font-size="26.0" fill="#000000" transform="matrix(1.00, 0.00, -0.00, -1.00, 316.9, 477.0)">d</text><text xml:space="preserve" font-family="Monaco" font-size="26.0" fill="#000000" transform="matrix(1.00, 0.00, -0.00, -1.00, 332.5, 477.0)">_</text><text xml:space="preserve" font-family="Monaco" font-size="26.0" fill="#000000" transform="matrix(1.00, 0.00, -0.00, -1.00, 348.1, 477.0)">f</text><text xml:space="preserve" font-family="Monaco" font-size="26.0" fill="#000000" transform="matrix(1.00, 0.00, -0.00, -1.00, 363.7, 477.0)">i</text><text xml:space="preserve" font-family="Monaco" font-size="26.0" fill="#000000" transform="matrix(1.00, 0.00, -0.00, -1.00, 379.3, 477.0)">l</text><text xml:space="preserve" font-family="Monaco" font-size="26.0" fill="#000000" transform="matrix(1.00, 0.00, -0.00, -1.00, 394.9, 477.0)">e</text><text xml:space="preserve" font-family="Monaco" font-size="26.0" fill="#000000" transform="matrix(1.00, 0.00, -0.00, -1.00, 36.0, 407.0)"> </text><text xml:space="preserve" font-family="Monaco" font-size="26.0" fill="#000000" transform="matrix(1.00, 0.00, -0.00, -1.00, 51.6, 407.0)"> </text><text xml:space="preserve" font-family="Monaco" font-size="26.0" fill="#000000" transform="matrix(1.00, 0.00, -0.00, -1.00, 67.2, 407.0)"> </text><text xml:space="preserve" font-family="Monaco" font-size="26.0" fill="#000000" transform="matrix(1.00, 0.00, -0.00, -1.00, 82.8, 407.0)"> </text><text xml:space="preserve" font-family="Monaco" font-size="26.0" fill="#A16B00" transform="matrix(1.00, 0.00, -0.00, -1.00, 98.4, 407.0)">#</text><text xml:space="preserve" font-family="Monaco" font-size="26.0" fill="#A16B00" transform="matrix(1.00, 0.00, -0.00, -1.00, 114.0, 407.0)"> </text><text xml:space="preserve" font-family="Monaco" font-size="26.0" fill="#A16B00" transform="matrix(1.00, 0.00, -0.00, -1.00, 129.6, 407.0)">D</text><text xml:space="preserve" font-family="Monaco" font-size="26.0" fill="#A16B00" transform="matrix(1.00, 0.00, -0.00, -1.00, 145.2, 407.0)">o</text><text xml:space="preserve" font-family="Monaco" font-size="26.0" fill="#A16B00" transform="matrix(1.00, 0.00, -0.00, -1.00, 160.8, 407.0)"> </text><text xml:space="preserve" font-family="Monaco" font-size="26.0" fill="#A16B00" transform="matrix(1.00, 0.00, -0.00, -1.00, 176.4, 407.0)">s</text><text xml:space="preserve" font-family="Monaco" font-size="26.0" fill="#A16B00" transform="matrix(1.00, 0.00, -0.00, -1.00, 192.0, 407.0)">t</text><text xml:space="preserve" font-family="Monaco" font-size="26.0" fill="#A16B00" transform="matrix(1.00, 0.00, -0.00, -1.00, 207.6, 407.0)">u</text><text xml:space="preserve" font-family="Monaco" font-size="26.0" fill="#A16B00" transform="matrix(1.00, 0.00, -0.00, -1.00, 223.3, 407.0)">f</text><text xml:space="preserve" font-family="Monaco" font-size="26.0" fill="#A16B00" transform="matrix(1.00, 0.00, -0.00, -1.00, 238.9, 407.0)">f</text><text xml:space="preserve" font-family="Monaco" font-size="26.0" fill="#A16B00" transform="matrix(1.00, 0.00, -0.00, -1.00, 254.5, 407.0)"> </text><text xml:space="preserve" font-family="Monaco" font-size="26.0" fill="#A16B00" transform="matrix(1.00, 0.00, -0.00, -1.00, 270.1, 407.0)">w</text><text xml:space="preserve" font-family="Monaco" font-size="26.0" fill="#A16B00" transform="matrix(1.00, 0.00, -0.00, -1.00, 285.7, 407.0)">i</text><text xml:space="preserve" font-family="Monaco" font-size="26.0" fill="#A16B00" transform="matrix(1.00, 0.00, -0.00, -1.00, 301.3, 407.0)">t</text><text xml:space="preserve" font-family="Monaco" font-size="26.0" fill="#A16B00" transform="matrix(1.00, 0.00, -0.00, -1.00, 316.9, 407.0)">h</text><text xml:space="preserve" font-family="Monaco" font-size="26.0" fill="#A16B00" transform="matrix(1.00, 0.00, -0.00, -1.00, 332.5, 407.0)"> </text><text xml:space="preserve" font-family="Monaco" font-size="26.0" fill="#A16B00" transform="matrix(1.00, 0.00, -0.00, -1.00, 348.1, 407.0)">@</text><text xml:space="preserve" font-family="Monaco" font-size="26.0" fill="#A16B00" transform="matrix(1.00, 0.00, -0.00, -1.00, 363.7, 407.0)">c</text><text xml:space="preserve" font-family="Monaco" font-size="26.0" fill="#A16B00" transform="matrix(1.00, 0.00, -0.00, -1.00, 379.3, 407.0)">o</text><text xml:space="preserve" font-family="Monaco" font-size="26.0" fill="#A16B00" transform="matrix(1.00, 0.00, -0.00, -1.00, 394.9, 407.0)">n</text><text xml:space="preserve" font-family="Monaco" font-size="26.0" fill="#A16B00" transform="matrix(1.00, 0.00, -0.00, -1.00, 410.5, 407.0)">t</text><text xml:space="preserve" font-family="Monaco" font-size="26.0" fill="#A16B00" transform="matrix(1.00, 0.00, -0.00, -1.00, 426.1, 407.0)">e</text><text xml:space="preserve" font-family="Monaco" font-size="26.0" fill="#A16B00" transform="matrix(1.00, 0.00, -0.00, -1.00, 441.7, 407.0)">n</text><text xml:space="preserve" font-family="Monaco" font-size="26.0" fill="#A16B00" transform="matrix(1.00, 0.00, -0.00, -1.00, 457.3, 407.0)">t</text><text xml:space="preserve" font-family="Monaco" font-size="26.0" fill="#000000" transform="matrix(1.00, 0.00, -0.00, -1.00, 36.0, 372.0)"> </text><text xml:space="preserve" font-family="Monaco" font-size="26.0" fill="#000000" transform="matrix(1.00, 0.00, -0.00, -1.00, 51.6, 372.0)"> </text><text xml:space="preserve" font-family="Monaco" font-size="26.0" fill="#285E99" transform="matrix(1.00, 0.00, -0.00, -1.00, 67.2, 372.0)">e</text><text xml:space="preserve" font-family="Monaco" font-size="26.0" fill="#285E99" transform="matrix(1.00, 0.00, -0.00, -1.00, 82.8, 372.0)">n</text><text xml:space="preserve" font-family="Monaco" font-size="26.0" fill="#285E99" transform="matrix(1.00, 0.00, -0.00, -1.00, 98.4, 372.0)">d</text><text xml:space="preserve" font-family="Monaco" font-size="26.0" fill="#285E99" transform="matrix(1.00, 0.00, -0.00, -1.00, 36.0, 337.0)">e</text><text xml:space="preserve" font-family="Monaco" font-size="26.0" fill="#285E99" transform="matrix(1.00, 0.00, -0.00, -1.00, 51.6, 337.0)">n</text><text xml:space="preserve" font-family="Monaco" font-size="26.0" fill="#285E99" transform="matrix(1.00, 0.00, -0.00, -1.00, 67.2, 337.0)">d</text><text xml:space="preserve" font-family="Monaco" font-size="26.0" fill="#285E99" transform="matrix(1.00, 0.00, -0.00, -1.00, 36.0, 232.0)">m</text><text xml:space="preserve" font-family="Monaco" font-size="26.0" fill="#285E99" transform="matrix(1.00, 0.00, -0.00, -1.00, 51.6, 232.0)">o</text><text xml:space="preserve" font-family="Monaco" font-size="26.0" fill="#285E99" transform="matrix(1.00, 0.00, -0.00, -1.00, 67.2, 232.0)">d</text><text xml:space="preserve" font-family="Monaco" font-size="26.0" fill="#285E99" transform="matrix(1.00, 0.00, -0.00, -1.00, 82.8, 232.0)">u</text><text xml:space="preserve" font-family="Monaco" font-size="26.0" fill="#285E99" transform="matrix(1.00, 0.00, -0.00, -1.00, 98.4, 232.0)">l</text><text xml:space="preserve" font-family="Monaco" font-size="26.0" fill="#285E99" transform="matrix(1.00, 0.00, -0.00, -1.00, 114.0, 232.0)">e</text><text xml:space="preserve" font-family="Monaco" font-size="26.0" fill="#000000" transform="matrix(1.00, 0.00, -0.00, -1.00, 129.6, 232.0)"> </text><text xml:space="preserve" font-family="Monaco" font-size="26.0" fill="#000000" transform="matrix(1.00, 0.00, -0.00, -1.00, 145.2, 232.0)">H</text><text xml:space="preserve" font-family="Monaco" font-size="26.0" fill="#000000" transform="matrix(1.00, 0.00, -0.00, -1.00, 160.8, 232.0)">a</text><text xml:space="preserve" font-family="Monaco" font-size="26.0" fill="#000000" transform="matrix(1.00, 0.00, -0.00, -1.00, 176.4, 232.0)">s</text><text xml:space="preserve" font-family="Monaco" font-size="26.0" fill="#000000" transform="matrix(1.00, 0.00, -0.00, -1.00, 192.0, 232.0)">S</text><text xml:space="preserve" font-family="Monaco" font-size="26.0" fill="#000000" transform="matrix(1.00, 0.00, -0.00, -1.00, 207.6, 232.0)">e</text><text xml:space="preserve" font-family="Monaco" font-size="26.0" fill="#000000" transform="matrix(1.00, 0.00, -0.00, -1.00, 223.2, 232.0)">p</text><text xml:space="preserve" font-family="Monaco" font-size="26.0" fill="#000000" transform="matrix(1.00, 0.00, -0.00, -1.00, 238.8, 232.0)">a</text><text xml:space="preserve" font-family="Monaco" font-size="26.0" fill="#000000" transform="matrix(1.00, 0.00, -0.00, -1.00, 254.5, 232.0)">r</text><text xml:space="preserve" font-family="Monaco" font-size="26.0" fill="#000000" transform="matrix(1.00, 0.00, -0.00, -1.00, 270.1, 232.0)">a</text><text xml:space="preserve" font-family="Monaco" font-size="26.0" fill="#000000" transform="matrix(1.00, 0.00, -0.00, -1.00, 285.7, 232.0)">t</text><text xml:space="preserve" font-family="Monaco" font-size="26.0" fill="#000000" transform="matrix(1.00, 0.00, -0.00, -1.00, 301.3, 232.0)">o</text><text xml:space="preserve" font-family="Monaco" font-size="26.0" fill="#000000" transform="matrix(1.00, 0.00, -0.00, -1.00, 316.9, 232.0)">r</text><g><clipPath id="clip-64"><path d="M 144.2 226.9 L 332.4 226.9 L 332.4 230.8 L 144.2 230.8 Z M 144.2 226.9 "></path></clipPath><g clip-path="url(#clip-64)"><path d="M 113.2 418.2 L 300.4 418.2 " fill="none" stroke="#000000" stroke-width="1.97" stroke-miterlimit="0.00" transform="matrix(1.00, 0.00, 0.00, -1.00, 32.0, 647.0)"></path></g></g><text xml:space="preserve" font-family="Monaco" font-size="26.0" fill="#000000" transform="matrix(1.00, 0.00, -0.00, -1.00, 36.0, 197.0)"> </text><text xml:space="preserve" font-family="Monaco" font-size="26.0" fill="#000000" transform="matrix(1.00, 0.00, -0.00, -1.00, 51.6, 197.0)"> </text><text xml:space="preserve" font-family="Monaco" font-size="26.0" fill="#285E99" transform="matrix(1.00, 0.00, -0.00, -1.00, 67.2, 197.0)">d</text><text xml:space="preserve" font-family="Monaco" font-size="26.0" fill="#285E99" transform="matrix(1.00, 0.00, -0.00, -1.00, 82.8, 197.0)">e</text><text xml:space="preserve" font-family="Monaco" font-size="26.0" fill="#285E99" transform="matrix(1.00, 0.00, -0.00, -1.00, 98.4, 197.0)">f</text><text xml:space="preserve" font-family="Monaco" font-size="26.0" fill="#000000" transform="matrix(1.00, 0.00, -0.00, -1.00, 114.0, 197.0)"> </text><text xml:space="preserve" font-family="Monaco" font-size="26.0" fill="#000000" transform="matrix(1.00, 0.00, -0.00, -1.00, 129.6, 197.0)">s</text><text xml:space="preserve" font-family="Monaco" font-size="26.0" fill="#000000" transform="matrix(1.00, 0.00, -0.00, -1.00, 145.2, 197.0)">e</text><text xml:space="preserve" font-family="Monaco" font-size="26.0" fill="#000000" transform="matrix(1.00, 0.00, -0.00, -1.00, 160.8, 197.0)">p</text><text xml:space="preserve" font-family="Monaco" font-size="26.0" fill="#000000" transform="matrix(1.00, 0.00, -0.00, -1.00, 176.4, 197.0)">a</text><text xml:space="preserve" font-family="Monaco" font-size="26.0" fill="#000000" transform="matrix(1.00, 0.00, -0.00, -1.00, 192.0, 197.0)">r</text><text xml:space="preserve" font-family="Monaco" font-size="26.0" fill="#000000" transform="matrix(1.00, 0.00, -0.00, -1.00, 207.6, 197.0)">a</text><text xml:space="preserve" font-family="Monaco" font-size="26.0" fill="#000000" transform="matrix(1.00, 0.00, -0.00, -1.00, 223.2, 197.0)">t</text><text xml:space="preserve" font-family="Monaco" font-size="26.0" fill="#000000" transform="matrix(1.00, 0.00, -0.00, -1.00, 238.9, 197.0)">o</text><text xml:space="preserve" font-family="Monaco" font-size="26.0" fill="#000000" transform="matrix(1.00, 0.00, -0.00, -1.00, 254.5, 197.0)">r</text><text xml:space="preserve" font-family="Monaco" font-size="26.0" fill="#000000" transform="matrix(1.00, 0.00, -0.00, -1.00, 36.0, 162.0)"> </text><text xml:space="preserve" font-family="Monaco" font-size="26.0" fill="#000000" transform="matrix(1.00, 0.00, -0.00, -1.00, 51.6, 162.0)"> </text><text xml:space="preserve" font-family="Monaco" font-size="26.0" fill="#000000" transform="matrix(1.00, 0.00, -0.00, -1.00, 67.2, 162.0)"> </text><text xml:space="preserve" font-family="Monaco" font-size="26.0" fill="#000000" transform="matrix(1.00, 0.00, -0.00, -1.00, 82.8, 162.0)"> </text><text xml:space="preserve" font-family="Monaco" font-size="26.0" fill="#5DA602" transform="matrix(1.00, 0.00, -0.00, -1.00, 98.4, 162.0)">'</text><text xml:space="preserve" font-family="Monaco" font-size="26.0" fill="#5DA602" transform="matrix(1.00, 0.00, -0.00, -1.00, 114.0, 162.0)">,</text><text xml:space="preserve" font-family="Monaco" font-size="26.0" fill="#5DA602" transform="matrix(1.00, 0.00, -0.00, -1.00, 129.6, 162.0)">'</text><text xml:space="preserve" font-family="Monaco" font-size="26.0" fill="#000000" transform="matrix(1.00, 0.00, -0.00, -1.00, 36.0, 127.0)"> </text><text xml:space="preserve" font-family="Monaco" font-size="26.0" fill="#000000" transform="matrix(1.00, 0.00, -0.00, -1.00, 51.6, 127.0)"> </text><text xml:space="preserve" font-family="Monaco" font-size="26.0" fill="#285E99" transform="matrix(1.00, 0.00, -0.00, -1.00, 67.2, 127.0)">e</text><text xml:space="preserve" font-family="Monaco" font-size="26.0" fill="#285E99" transform="matrix(1.00, 0.00, -0.00, -1.00, 82.8, 127.0)">n</text><text xml:space="preserve" font-family="Monaco" font-size="26.0" fill="#285E99" transform="matrix(1.00, 0.00, -0.00, -1.00, 98.4, 127.0)">d</text><text xml:space="preserve" font-family="Monaco" font-size="26.0" fill="#285E99" transform="matrix(1.00, 0.00, -0.00, -1.00, 36.0, 92.0)">e</text><text xml:space="preserve" font-family="Monaco" font-size="26.0" fill="#285E99" transform="matrix(1.00, 0.00, -0.00, -1.00, 51.6, 92.0)">n</text><text xml:space="preserve" font-family="Monaco" font-size="26.0" fill="#285E99" transform="matrix(1.00, 0.00, -0.00, -1.00, 67.2, 92.0)">d</text><text xml:space="preserve" font-family="DINCondensed-Bold" font-weight="bold" font-size="48.0" fill="#34A4DA" transform="matrix(1.00, 0.00, -0.00, -1.00, 36.0, 705.0)">L</text><text xml:space="preserve" font-family="DINCondensed-Bold" font-weight="bold" font-size="48.0" fill="#34A4DA" transform="matrix(1.00, 0.00, -0.00, -1.00, 53.8, 705.0)">I</text><text xml:space="preserve" font-family="DINCondensed-Bold" font-weight="bold" font-size="48.0" fill="#34A4DA" transform="matrix(1.00, 0.00, -0.00, -1.00, 63.6, 705.0)">S</text><text xml:space="preserve" font-family="DINCondensed-Bold" font-weight="bold" font-size="48.0" fill="#34A4DA" transform="matrix(1.00, 0.00, -0.00, -1.00, 83.0, 705.0)">K</text><text xml:space="preserve" font-family="DINCondensed-Bold" font-weight="bold" font-size="48.0" fill="#34A4DA" transform="matrix(1.00, 0.00, -0.00, -1.00, 102.9, 705.0)">O</text><text xml:space="preserve" font-family="DINCondensed-Bold" font-weight="bold" font-size="48.0" fill="#34A4DA" transform="matrix(1.00, 0.00, -0.00, -1.00, 122.5, 705.0)">V</text><text xml:space="preserve" font-family="DINCondensed-Bold" font-weight="bold" font-size="48.0" fill="#34A4DA" transform="matrix(1.00, 0.00, -0.00, -1.00, 142.0, 705.0)"> </text><text xml:space="preserve" font-family="DINCondensed-Bold" font-weight="bold" font-size="48.0" fill="#34A4DA" transform="matrix(1.00, 0.00, -0.00, -1.00, 151.0, 705.0)">S</text><text xml:space="preserve" font-family="DINCondensed-Bold" font-weight="bold" font-size="48.0" fill="#34A4DA" transform="matrix(1.00, 0.00, -0.00, -1.00, 170.4, 705.0)">U</text><text xml:space="preserve" font-family="DINCondensed-Bold" font-weight="bold" font-size="48.0" fill="#34A4DA" transform="matrix(1.00, 0.00, -0.00, -1.00, 190.9, 705.0)">B</text><text xml:space="preserve" font-family="DINCondensed-Bold" font-weight="bold" font-size="48.0" fill="#34A4DA" transform="matrix(1.00, 0.00, -0.00, -1.00, 211.3, 705.0)">S</text><text xml:space="preserve" font-family="DINCondensed-Bold" font-weight="bold" font-size="48.0" fill="#34A4DA" transform="matrix(1.00, 0.00, -0.00, -1.00, 230.8, 705.0)">T</text><text xml:space="preserve" font-family="DINCondensed-Bold" font-weight="bold" font-size="48.0" fill="#34A4DA" transform="matrix(1.00, 0.00, -0.00, -1.00, 246.8, 705.0)">I</text><text xml:space="preserve" font-family="DINCondensed-Bold" font-weight="bold" font-size="48.0" fill="#34A4DA" transform="matrix(1.00, 0.00, -0.00, -1.00, 256.6, 705.0)">T</text><text xml:space="preserve" font-family="DINCondensed-Bold" font-weight="bold" font-size="48.0" fill="#34A4DA" transform="matrix(1.00, 0.00, -0.00, -1.00, 272.5, 705.0)">U</text><text xml:space="preserve" font-family="DINCondensed-Bold" font-weight="bold" font-size="48.0" fill="#34A4DA" transform="matrix(1.00, 0.00, -0.00, -1.00, 292.9, 705.0)">T</text><text xml:space="preserve" font-family="DINCondensed-Bold" font-weight="bold" font-size="48.0" fill="#34A4DA" transform="matrix(1.00, 0.00, -0.00, -1.00, 308.9, 705.0)">I</text><text xml:space="preserve" font-family="DINCondensed-Bold" font-weight="bold" font-size="48.0" fill="#34A4DA" transform="matrix(1.00, 0.00, -0.00, -1.00, 318.7, 705.0)">O</text><text xml:space="preserve" font-family="DINCondensed-Bold" font-weight="bold" font-size="48.0" fill="#34A4DA" transform="matrix(1.00, 0.00, -0.00, -1.00, 339.1, 705.0)">N</text><text xml:space="preserve" font-family="DINCondensed-Bold" font-weight="bold" font-size="48.0" fill="#34A4DA" transform="matrix(1.00, 0.00, -0.00, -1.00, 360.4, 705.0)"> </text><text xml:space="preserve" font-family="DINCondensed-Bold" font-weight="bold" font-size="48.0" fill="#34A4DA" transform="matrix(1.00, 0.00, -0.00, -1.00, 369.4, 705.0)">P</text><text xml:space="preserve" font-family="DINCondensed-Bold" font-weight="bold" font-size="48.0" fill="#34A4DA" transform="matrix(1.00, 0.00, -0.00, -1.00, 388.9, 705.0)">R</text><text xml:space="preserve" font-family="DINCondensed-Bold" font-weight="bold" font-size="48.0" fill="#34A4DA" transform="matrix(1.00, 0.00, -0.00, -1.00, 409.3, 705.0)">I</text><text xml:space="preserve" font-family="DINCondensed-Bold" font-weight="bold" font-size="48.0" fill="#34A4DA" transform="matrix(1.00, 0.00, -0.00, -1.00, 419.1, 705.0)">N</text><text xml:space="preserve" font-family="DINCondensed-Bold" font-weight="bold" font-size="48.0" fill="#34A4DA" transform="matrix(1.00, 0.00, -0.00, -1.00, 440.4, 705.0)">C</text><text xml:space="preserve" font-family="DINCondensed-Bold" font-weight="bold" font-size="48.0" fill="#34A4DA" transform="matrix(1.00, 0.00, -0.00, -1.00, 460.0, 705.0)">I</text><text xml:space="preserve" font-family="DINCondensed-Bold" font-weight="bold" font-size="48.0" fill="#34A4DA" transform="matrix(1.00, 0.00, -0.00, -1.00, 469.8, 705.0)">P</text><text xml:space="preserve" font-family="DINCondensed-Bold" font-weight="bold" font-size="48.0" fill="#34A4DA" transform="matrix(1.00, 0.00, -0.00, -1.00, 489.3, 705.0)">L</text><text xml:space="preserve" font-family="DINCondensed-Bold" font-weight="bold" font-size="48.0" fill="#34A4DA" transform="matrix(1.00, 0.00, -0.00, -1.00, 507.1, 705.0)">E</text></g></svg>