<?xml version="1.0" encoding="UTF-8" standalone="no"?><svg xmlns="http://www.w3.org/2000/svg" xmlns:xlink="http://www.w3.org/1999/xlink" clip-rule="evenodd" stroke-miterlimit="4.00" viewBox="0 0 1024 768"><desc>SVG generated by Keynote</desc><defs></defs><g transform="matrix(1.00, 0.00, -0.00, -1.00, 0.0, 768.0)"><path d="M 0.0 768.0 L 1024.0 768.0 L 1024.0 0.0 L 0.0 0.0 Z M 0.0 768.0 " fill="#212121"></path><text xml:space="preserve" font-family="DINCondensed-Bold" font-weight="bold" font-size="60.0" fill="#34A4DA" transform="matrix(1.00, 0.00, -0.00, -1.00, 335.0, 481.0)">P</text><text xml:space="preserve" font-family="DINCondensed-Bold" font-weight="bold" font-size="60.0" fill="#34A4DA" transform="matrix(1.00, 0.00, -0.00, -1.00, 357.2, 481.0)">A</text><text xml:space="preserve" font-family="DINCondensed-Bold" font-weight="bold" font-size="60.0" fill="#34A4DA" transform="matrix(1.00, 0.00, -0.00, -1.00, 381.6, 481.0)">B</text><text xml:space="preserve" font-family="DINCondensed-Bold" font-weight="bold" font-size="60.0" fill="#34A4DA" transform="matrix(1.00, 0.00, -0.00, -1.00, 407.2, 481.0)">L</text><text xml:space="preserve" font-family="DINCondensed-Bold" font-weight="bold" font-size="60.0" fill="#34A4DA" transform="matrix(1.00, 0.00, -0.00, -1.00, 429.4, 481.0)">O</text><text xml:space="preserve" font-family="DINCondensed-Bold" font-weight="bold" font-size="60.0" fill="#34A4DA" transform="matrix(1.00, 0.00, -0.00, -1.00, 454.9, 481.0)"> </text><text xml:space="preserve" font-family="DINCondensed-Bold" font-weight="bold" font-size="60.0" fill="#34A4DA" transform="matrix(1.00, 0.00, -0.00, -1.00, 466.1, 481.0)">T</text><text xml:space="preserve" font-family="DINCondensed-Bold" font-weight="bold" font-size="60.0" fill="#34A4DA" transform="matrix(1.00, 0.00, -0.00, -1.00, 485.3, 481.0)">O</text><text xml:space="preserve" font-family="DINCondensed-Bold" font-weight="bold" font-size="60.0" fill="#34A4DA" transform="matrix(1.00, 0.00, -0.00, -1.00, 510.9, 481.0)">R</text><text xml:space="preserve" font-family="DINCondensed-Bold" font-weight="bold" font-size="60.0" fill="#34A4DA" transform="matrix(1.00, 0.00, -0.00, -1.00, 536.4, 481.0)">R</text><text xml:space="preserve" font-family="DINCondensed-Bold" font-weight="bold" font-size="60.0" fill="#34A4DA" transform="matrix(1.00, 0.00, -0.00, -1.00, 562.0, 481.0)">E</text><text xml:space="preserve" font-family="DINCondensed-Bold" font-weight="bold" font-size="60.0" fill="#34A4DA" transform="matrix(1.00, 0.00, -0.00, -1.00, 584.2, 481.0)">C</text><text xml:space="preserve" font-family="DINCondensed-Bold" font-weight="bold" font-size="60.0" fill="#34A4DA" transform="matrix(1.00, 0.00, -0.00, -1.00, 608.6, 481.0)">I</text><text xml:space="preserve" font-family="DINCondensed-Bold" font-weight="bold" font-size="60.0" fill="#34A4DA" transform="matrix(1.00, 0.00, -0.00, -1.00, 620.8, 481.0)">L</text><text xml:space="preserve" font-family="DINCondensed-Bold" font-weight="bold" font-size="60.0" fill="#34A4DA" transform="matrix(1.00, 0.00, -0.00, -1.00, 643.0, 481.0)">L</text><text xml:space="preserve" font-family="DINCondensed-Bold" font-weight="bold" font-size="60.0" fill="#34A4DA" transform="matrix(1.00, 0.00, -0.00, -1.00, 665.2, 481.0)">A</text><g><clipPath id="clip-0"><path d="M 278.1 232.4 L 745.9 232.4 L 745.9 346.4 L 278.1 346.4 Z M 278.1 232.4 "></path></clipPath><g clip-path="url(#clip-0)"><text xml:space="preserve" font-family="DINCondensed-Bold" font-weight="bold" font-size="60.0" fill="#34A4DA" transform="matrix(1.00, 0.00, -0.00, -1.00, 293.0, 289.0)">P</text><text xml:space="preserve" font-family="DINCondensed-Bold" font-weight="bold" font-size="60.0" fill="#34A4DA" transform="matrix(1.00, 0.00, -0.00, -1.00, 315.2, 289.0)">A</text><text xml:space="preserve" font-family="DINCondensed-Bold" font-weight="bold" font-size="60.0" fill="#34A4DA" transform="matrix(1.00, 0.00, -0.00, -1.00, 339.6, 289.0)">U</text><text xml:space="preserve" font-family="DINCondensed-Bold" font-weight="bold" font-size="60.0" fill="#34A4DA" transform="matrix(1.00, 0.00, -0.00, -1.00, 365.2, 289.0)">@</text><text xml:space="preserve" font-family="DINCondensed-Bold" font-weight="bold" font-size="60.0" fill="#34A4DA" transform="matrix(1.00, 0.00, -0.00, -1.00, 413.2, 289.0)">N</text><text xml:space="preserve" font-family="DINCondensed-Bold" font-weight="bold" font-size="60.0" fill="#34A4DA" transform="matrix(1.00, 0.00, -0.00, -1.00, 439.8, 289.0)">O</text><text xml:space="preserve" font-family="DINCondensed-Bold" font-weight="bold" font-size="60.0" fill="#34A4DA" transform="matrix(1.00, 0.00, -0.00, -1.00, 465.4, 289.0)">S</text><text xml:space="preserve" font-family="DINCondensed-Bold" font-weight="bold" font-size="60.0" fill="#34A4DA" transform="matrix(1.00, 0.00, -0.00, -1.00, 489.7, 289.0)">O</text><text xml:space="preserve" font-family="DINCondensed-Bold" font-weight="bold" font-size="60.0" fill="#34A4DA" transform="matrix(1.00, 0.00, -0.00, -1.00, 515.3, 289.0)">L</text><text xml:space="preserve" font-family="DINCondensed-Bold" font-weight="bold" font-size="60.0" fill="#34A4DA" transform="matrix(1.00, 0.00, -0.00, -1.00, 537.5, 289.0)">O</text><text xml:space="preserve" font-family="DINCondensed-Bold" font-weight="bold" font-size="60.0" fill="#34A4DA" transform="matrix(1.00, 0.00, -0.00, -1.00, 563.1, 289.0)">P</text><text xml:space="preserve" font-family="DINCondensed-Bold" font-weight="bold" font-size="60.0" fill="#34A4DA" transform="matrix(1.00, 0.00, -0.00, -1.00, 585.3, 289.0)">A</text><text xml:space="preserve" font-family="DINCondensed-Bold" font-weight="bold" font-size="60.0" fill="#34A4DA" transform="matrix(1.00, 0.00, -0.00, -1.00, 609.7, 289.0)">U</text><text xml:space="preserve" font-family="DINCondensed-Bold" font-weight="bold" font-size="60.0" fill="#34A4DA" transform="matrix(1.00, 0.00, -0.00, -1.00, 635.2, 289.0)">.</text><text xml:space="preserve" font-family="DINCondensed-Bold" font-weight="bold" font-size="60.0" fill="#34A4DA" transform="matrix(1.00, 0.00, -0.00, -1.00, 646.4, 289.0)">C</text><text xml:space="preserve" font-family="DINCondensed-Bold" font-weight="bold" font-size="60.0" fill="#34A4DA" transform="matrix(1.00, 0.00, -0.00, -1.00, 670.8, 289.0)">O</text><text xml:space="preserve" font-family="DINCondensed-Bold" font-weight="bold" font-size="60.0" fill="#34A4DA" transform="matrix(1.00, 0.00, -0.00, -1.00, 696.4, 289.0)">M</text></g></g><g><clipPath id="clip-1"><path d="M 483.8 237.3 L 564.8 237.3 L 564.8 278.0 L 483.8 278.0 Z M 483.8 237.3 "></path></clipPath><g clip-path="url(#clip-1)"><text xml:space="preserve" font-family="AvenirNext-Medium" font-size="20.0" fill="#A6AAA8" transform="matrix(1.00, 0.00, -0.00, -1.00, 491.0, 251.0)">G</text><text xml:space="preserve" font-family="AvenirNext-Medium" font-size="20.0" fill="#A6AAA8" transform="matrix(1.00, 0.00, -0.00, -1.00, 506.6, 251.0)">i</text><text xml:space="preserve" font-family="AvenirNext-Medium" font-size="20.0" fill="#A6AAA8" transform="matrix(1.00, 0.00, -0.00, -1.00, 511.7, 251.0)">t</text><text xml:space="preserve" font-family="AvenirNext-Medium" font-size="20.0" fill="#A6AAA8" transform="matrix(1.00, 0.00, -0.00, -1.00, 518.3, 251.0)">H</text><text xml:space="preserve" font-family="AvenirNext-Medium" font-size="20.0" fill="#A6AAA8" transform="matrix(1.00, 0.00, -0.00, -1.00, 532.9, 251.0)">u</text><text xml:space="preserve" font-family="AvenirNext-Medium" font-size="20.0" fill="#A6AAA8" transform="matrix(1.00, 0.00, -0.00, -1.00, 544.5, 251.0)">b</text></g></g><g><clipPath id="clip-2"><path d="M 413.6 273.9 L 635.0 273.9 L 635.0 280.9 L 413.6 280.9 Z M 413.6 273.9 "></path></clipPath><g clip-path="url(#clip-2)"><path d="M 0.0 0.0 L 219.4 0.0 " fill="none" stroke="#A6AAA8" stroke-width="5.00" transform="matrix(1.00, 0.00, 0.00, -1.00, 414.6, 277.4)"></path></g></g><g><clipPath id="clip-3"><path d="M 464.5 337.7 L 540.8 337.7 L 540.8 378.4 L 464.5 378.4 Z M 464.5 337.7 "></path></clipPath><g clip-path="url(#clip-3)"><text xml:space="preserve" font-family="AvenirNext-Medium" font-size="20.0" fill="#A6AAA8" transform="matrix(1.00, 0.00, -0.00, -1.00, 471.0, 352.0)">T</text><text xml:space="preserve" font-family="AvenirNext-Medium" font-size="20.0" fill="#A6AAA8" transform="matrix(1.00, 0.00, -0.00, -1.00, 480.5, 352.0)">w</text><text xml:space="preserve" font-family="AvenirNext-Medium" font-size="20.0" fill="#A6AAA8" transform="matrix(1.00, 0.00, -0.00, -1.00, 495.9, 352.0)">i</text><text xml:space="preserve" font-family="AvenirNext-Medium" font-size="20.0" fill="#A6AAA8" transform="matrix(1.00, 0.00, -0.00, -1.00, 501.1, 352.0)">t</text><text xml:space="preserve" font-family="AvenirNext-Medium" font-size="20.0" fill="#A6AAA8" transform="matrix(1.00, 0.00, -0.00, -1.00, 507.4, 352.0)">t</text><text xml:space="preserve" font-family="AvenirNext-Medium" font-size="20.0" fill="#A6AAA8" transform="matrix(1.00, 0.00, -0.00, -1.00, 514.0, 352.0)">e</text><text xml:space="preserve" font-family="AvenirNext-Medium" font-size="20.0" fill="#A6AAA8" transform="matrix(1.00, 0.00, -0.00, -1.00, 525.4, 352.0)">r</text></g></g><g><clipPath id="clip-4"><path d="M 370.3 339.5 L 634.9 339.5 L 634.9 346.5 L 370.3 346.5 Z M 370.3 339.5 "></path></clipPath><g clip-path="url(#clip-4)"><path d="M 0.0 0.0 L 262.6 0.0 " fill="none" stroke="#A6AAA8" stroke-width="5.00" transform="matrix(1.00, 0.00, 0.00, -1.00, 371.3, 343.0)"></path></g></g><text xml:space="preserve" font-family="AvenirNext-Medium" font-size="24.0" fill="#A6AAA8" transform="matrix(1.00, 0.00, -0.00, -1.00, 395.0, 447.0)">T</text><text xml:space="preserve" font-family="AvenirNext-Medium" font-size="24.0" fill="#A6AAA8" transform="matrix(1.00, 0.00, -0.00, -1.00, 406.4, 447.0)">e</text><text xml:space="preserve" font-family="AvenirNext-Medium" font-size="24.0" fill="#A6AAA8" transform="matrix(1.00, 0.00, -0.00, -1.00, 420.1, 447.0)">c</text><text xml:space="preserve" font-family="AvenirNext-Medium" font-size="24.0" fill="#A6AAA8" transform="matrix(1.00, 0.00, -0.00, -1.00, 432.0, 447.0)">h</text><text xml:space="preserve" font-family="AvenirNext-Medium" font-size="24.0" fill="#A6AAA8" transform="matrix(1.00, 0.00, -0.00, -1.00, 446.0, 447.0)"> </text><text xml:space="preserve" font-family="AvenirNext-Medium" font-size="24.0" fill="#A6AAA8" transform="matrix(1.00, 0.00, -0.00, -1.00, 452.0, 447.0)">L</text><text xml:space="preserve" font-family="AvenirNext-Medium" font-size="24.0" fill="#A6AAA8" transform="matrix(1.00, 0.00, -0.00, -1.00, 463.8, 447.0)">e</text><text xml:space="preserve" font-family="AvenirNext-Medium" font-size="24.0" fill="#A6AAA8" transform="matrix(1.00, 0.00, -0.00, -1.00, 477.4, 447.0)">a</text><text xml:space="preserve" font-family="AvenirNext-Medium" font-size="24.0" fill="#A6AAA8" transform="matrix(1.00, 0.00, -0.00, -1.00, 490.4, 447.0)">d</text><text xml:space="preserve" font-family="AvenirNext-Medium" font-size="24.0" fill="#A6AAA8" transform="matrix(1.00, 0.00, -0.00, -1.00, 505.7, 447.0)"> </text><text xml:space="preserve" font-family="AvenirNext-Medium" font-size="24.0" fill="#A6AAA8" transform="matrix(1.00, 0.00, -0.00, -1.00, 511.7, 447.0)">a</text><text xml:space="preserve" font-family="AvenirNext-Medium" font-size="24.0" fill="#A6AAA8" transform="matrix(1.00, 0.00, -0.00, -1.00, 524.4, 447.0)">t</text><text xml:space="preserve" font-family="AvenirNext-Medium" font-size="24.0" fill="#A6AAA8" transform="matrix(1.00, 0.00, -0.00, -1.00, 532.3, 447.0)"> </text><text xml:space="preserve" font-family="AvenirNext-Medium" font-size="24.0" fill="#A6AAA8" transform="matrix(1.00, 0.00, -0.00, -1.00, 538.3, 447.0)">R</text><text xml:space="preserve" font-family="AvenirNext-Medium" font-size="24.0" fill="#A6AAA8" transform="matrix(1.00, 0.00, -0.00, -1.00, 552.8, 447.0)">a</text><text xml:space="preserve" font-family="AvenirNext-Medium" font-size="24.0" fill="#A6AAA8" transform="matrix(1.00, 0.00, -0.00, -1.00, 565.8, 447.0)">k</text><text xml:space="preserve" font-family="AvenirNext-Medium" font-size="24.0" fill="#A6AAA8" transform="matrix(1.00, 0.00, -0.00, -1.00, 578.1, 447.0)">u</text><text xml:space="preserve" font-family="AvenirNext-Medium" font-size="24.0" fill="#A6AAA8" transform="matrix(1.00, 0.00, -0.00, -1.00, 592.1, 447.0)">t</text><text xml:space="preserve" font-family="AvenirNext-Medium" font-size="24.0" fill="#A6AAA8" transform="matrix(1.00, 0.00, -0.00, -1.00, 600.0, 447.0)">e</text><text xml:space="preserve" font-family="AvenirNext-Medium" font-size="24.0" fill="#A6AAA8" transform="matrix(1.00, 0.00, -0.00, -1.00, 613.8, 447.0)">n</text></g></svg>