<?xml version="1.0" encoding="UTF-8" standalone="no"?><svg xmlns="http://www.w3.org/2000/svg" xmlns:xlink="http://www.w3.org/1999/xlink" clip-rule="evenodd" stroke-miterlimit="4.00" viewBox="0 0 1024 768"><desc>SVG generated by Keynote</desc><defs></defs><g transform="matrix(1.00, 0.00, -0.00, -1.00, 0.0, 768.0)"><path d="M 0.0 768.0 L 1024.0 768.0 L 1024.0 0.0 L 0.0 0.0 Z M 0.0 768.0 " fill="#212121"></path><g><clipPath id="clip-78"><path d="M 278.1 308.6 L 745.9 308.6 L 745.9 422.6 L 278.1 422.6 Z M 278.1 308.6 "></path></clipPath><g clip-path="url(#clip-78)"><text xml:space="preserve" font-family="DINCondensed-Bold" font-weight="bold" font-size="60.0" fill="#34A4DA" transform="matrix(1.00, 0.00, -0.00, -1.00, 293.0, 365.0)">P</text><text xml:space="preserve" font-family="DINCondensed-Bold" font-weight="bold" font-size="60.0" fill="#34A4DA" transform="matrix(1.00, 0.00, -0.00, -1.00, 315.2, 365.0)">A</text><text xml:space="preserve" font-family="DINCondensed-Bold" font-weight="bold" font-size="60.0" fill="#34A4DA" transform="matrix(1.00, 0.00, -0.00, -1.00, 339.6, 365.0)">U</text><text xml:space="preserve" font-family="DINCondensed-Bold" font-weight="bold" font-size="60.0" fill="#34A4DA" transform="matrix(1.00, 0.00, -0.00, -1.00, 365.2, 365.0)">@</text><text xml:space="preserve" font-family="DINCondensed-Bold" font-weight="bold" font-size="60.0" fill="#34A4DA" transform="matrix(1.00, 0.00, -0.00, -1.00, 413.2, 365.0)">N</text><text xml:space="preserve" font-family="DINCondensed-Bold" font-weight="bold" font-size="60.0" fill="#34A4DA" transform="matrix(1.00, 0.00, -0.00, -1.00, 439.8, 365.0)">O</text><text xml:space="preserve" font-family="DINCondensed-Bold" font-weight="bold" font-size="60.0" fill="#34A4DA" transform="matrix(1.00, 0.00, -0.00, -1.00, 465.4, 365.0)">S</text><text xml:space="preserve" font-family="DINCondensed-Bold" font-weight="bold" font-size="60.0" fill="#34A4DA" transform="matrix(1.00, 0.00, -0.00, -1.00, 489.7, 365.0)">O</text><text xml:space="preserve" font-family="DINCondensed-Bold" font-weight="bold" font-size="60.0" fill="#34A4DA" transform="matrix(1.00, 0.00, -0.00, -1.00, 515.3, 365.0)">L</text><text xml:space="preserve" font-family="DINCondensed-Bold" font-weight="bold" font-size="60.0" fill="#34A4DA" transform="matrix(1.00, 0.00, -0.00, -1.00, 537.5, 365.0)">O</text><text xml:space="preserve" font-family="DINCondensed-Bold" font-weight="bold" font-size="60.0" fill="#34A4DA" transform="matrix(1.00, 0.00, -0.00, -1.00, 563.1, 365.0)">P</text><text xml:space="preserve" font-family="DINCondensed-Bold" font-weight="bold" font-size="60.0" fill="#34A4DA" transform="matrix(1.00, 0.00, -0.00, -1.00, 585.3, 365.0)">A</text><text xml:space="preserve" font-family="DINCondensed-Bold" font-weight="bold" font-size="60.0" fill="#34A4DA" transform="matrix(1.00, 0.00, -0.00, -1.00, 609.7, 365.0)">U</text><text xml:space="preserve" font-family="DINCondensed-Bold" font-weight="bold" font-size="60.0" fill="#34A4DA" transform="matrix(1.00, 0.00, -0.00, -1.00, 635.2, 365.0)">.</text><text xml:space="preserve" font-family="DINCondensed-Bold" font-weight="bold" font-size="60.0" fill="#34A4DA" transform="matrix(1.00, 0.00, -0.00, -1.00, 646.4, 365.0)">C</text><text xml:space="preserve" font-family="DINCondensed-Bold" font-weight="bold" font-size="60.0" fill="#34A4DA" transform="matrix(1.00, 0.00, -0.00, -1.00, 670.8, 365.0)">O</text><text xml:space="preserve" font-family="DINCondensed-Bold" font-weight="bold" font-size="60.0" fill="#34A4DA" transform="matrix(1.00, 0.00, -0.00, -1.00, 696.4, 365.0)">M</text></g></g><g><clipPath id="clip-79"><path d="M 483.8 313.5 L 564.8 313.5 L 564.8 354.1 L 483.8 354.1 Z M 483.8 313.5 "></path></clipPath><g clip-path="url(#clip-79)"><text xml:space="preserve" font-family="AvenirNext-Medium" font-size="20.0" fill="#A6AAA8" transform="matrix(1.00, 0.00, -0.00, -1.00, 491.0, 328.0)">G</text><text xml:space="preserve" font-family="AvenirNext-Medium" font-size="20.0" fill="#A6AAA8" transform="matrix(1.00, 0.00, -0.00, -1.00, 506.6, 328.0)">i</text><text xml:space="preserve" font-family="AvenirNext-Medium" font-size="20.0" fill="#A6AAA8" transform="matrix(1.00, 0.00, -0.00, -1.00, 511.7, 328.0)">t</text><text xml:space="preserve" font-family="AvenirNext-Medium" font-size="20.0" fill="#A6AAA8" transform="matrix(1.00, 0.00, -0.00, -1.00, 518.3, 328.0)">H</text><text xml:space="preserve" font-family="AvenirNext-Medium" font-size="20.0" fill="#A6AAA8" transform="matrix(1.00, 0.00, -0.00, -1.00, 532.9, 328.0)">u</text><text xml:space="preserve" font-family="AvenirNext-Medium" font-size="20.0" fill="#A6AAA8" transform="matrix(1.00, 0.00, -0.00, -1.00, 544.5, 328.0)">b</text></g></g><g><clipPath id="clip-80"><path d="M 413.6 350.1 L 635.0 350.1 L 635.0 357.1 L 413.6 357.1 Z M 413.6 350.1 "></path></clipPath><g clip-path="url(#clip-80)"><path d="M 0.0 0.0 L 219.4 0.0 " fill="none" stroke="#A6AAA8" stroke-width="5.00" transform="matrix(1.00, 0.00, 0.00, -1.00, 414.6, 353.6)"></path></g></g><g><clipPath id="clip-81"><path d="M 464.5 413.9 L 540.8 413.9 L 540.8 454.5 L 464.5 454.5 Z M 464.5 413.9 "></path></clipPath><g clip-path="url(#clip-81)"><text xml:space="preserve" font-family="AvenirNext-Medium" font-size="20.0" fill="#A6AAA8" transform="matrix(1.00, 0.00, -0.00, -1.00, 471.0, 428.0)">T</text><text xml:space="preserve" font-family="AvenirNext-Medium" font-size="20.0" fill="#A6AAA8" transform="matrix(1.00, 0.00, -0.00, -1.00, 480.5, 428.0)">w</text><text xml:space="preserve" font-family="AvenirNext-Medium" font-size="20.0" fill="#A6AAA8" transform="matrix(1.00, 0.00, -0.00, -1.00, 495.9, 428.0)">i</text><text xml:space="preserve" font-family="AvenirNext-Medium" font-size="20.0" fill="#A6AAA8" transform="matrix(1.00, 0.00, -0.00, -1.00, 501.1, 428.0)">t</text><text xml:space="preserve" font-family="AvenirNext-Medium" font-size="20.0" fill="#A6AAA8" transform="matrix(1.00, 0.00, -0.00, -1.00, 507.4, 428.0)">t</text><text xml:space="preserve" font-family="AvenirNext-Medium" font-size="20.0" fill="#A6AAA8" transform="matrix(1.00, 0.00, -0.00, -1.00, 514.0, 428.0)">e</text><text xml:space="preserve" font-family="AvenirNext-Medium" font-size="20.0" fill="#A6AAA8" transform="matrix(1.00, 0.00, -0.00, -1.00, 525.4, 428.0)">r</text></g></g><g><clipPath id="clip-82"><path d="M 370.3 415.7 L 634.9 415.7 L 634.9 422.7 L 370.3 422.7 Z M 370.3 415.7 "></path></clipPath><g clip-path="url(#clip-82)"><path d="M 0.0 0.0 L 262.6 0.0 " fill="none" stroke="#A6AAA8" stroke-width="5.00" transform="matrix(1.00, 0.00, 0.00, -1.00, 371.3, 419.2)"></path></g></g></g></svg>